{
	"asset":{
		"generator":"Khronos glTF Blender I/O v4.0.44",
		"version":"2.0"
	},
	"scene":0,
	"scenes":[
		{
			"name":"Scene",
			"nodes":[
				0
			]
		}
	],
	"nodes":[
		{
			"mesh":0,
			"name":"Cube",
			"scale":[
				12,
				20,
				12
			]
		}
	],
	"meshes":[
		{
			"name":"Cube.002",
			"primitives":[
				{
					"attributes":{
						"POSITION":0,
						"NORMAL":1,
						"TEXCOORD_0":2
					},
					"indices":3
				}
			]
		}
	],
	"accessors":[
		{
			"bufferView":0,
			"componentType":5126,
			"count":504702,
			"max":[
				1,
				0.779119074344635,
				1
			],
			"min":[
				-1,
				0,
				-1
			],
			"type":"VEC3"
		},
		{
			"bufferView":1,
			"componentType":5126,
			"count":504702,
			"type":"VEC3"
		},
		{
			"bufferView":2,
			"componentType":5126,
			"count":504702,
			"type":"VEC2"
		},
		{
			"bufferView":3,
			"componentType":5125,
			"count":520932,
			"type":"SCALAR"
		}
	],
	"bufferViews":[
		{
			"buffer":0,
			"byteLength":6056424,
			"byteOffset":0,
			"target":34962
		},
		{
			"buffer":0,
			"byteLength":6056424,
			"byteOffset":6056424,
			"target":34962
		},
		{
			"buffer":0,
			"byteLength":4037616,
			"byteOffset":12112848,
			"target":34962
		},
		{
			"buffer":0,
			"byteLength":2083728,
			"byteOffset":16150464,
			"target":34963
		}
	],
	"buffers":[
		{
			"byteLength":18234192,
			"uri":"gebergte-mont-blanc.bin"
		}
	]
}
