{
	"asset":{
		"generator":"Khronos glTF Blender I/O v4.0.44",
		"version":"2.0"
	},
	"scene":0,
	"scenes":[
		{
			"name":"Scene",
			"nodes":[
				0
			]
		}
	],
	"nodes":[
		{
			"mesh":0,
			"name":"Cube",
			"scale":[
				12,
				50,
				12
			]
		}
	],
	"meshes":[
		{
			"name":"Cube.003",
			"primitives":[
				{
					"attributes":{
						"POSITION":0,
						"NORMAL":1,
						"TEXCOORD_0":2
					},
					"indices":3
				}
			]
		}
	],
	"accessors":[
		{
			"bufferView":0,
			"componentType":5126,
			"count":399623,
			"max":[
				1,
				0.5730267763137817,
				1
			],
			"min":[
				-1,
				0,
				-1
			],
			"type":"VEC3"
		},
		{
			"bufferView":1,
			"componentType":5126,
			"count":399623,
			"type":"VEC3"
		},
		{
			"bufferView":2,
			"componentType":5126,
			"count":399623,
			"type":"VEC2"
		},
		{
			"bufferView":3,
			"componentType":5125,
			"count":410784,
			"type":"SCALAR"
		}
	],
	"bufferViews":[
		{
			"buffer":0,
			"byteLength":4795476,
			"byteOffset":0,
			"target":34962
		},
		{
			"buffer":0,
			"byteLength":4795476,
			"byteOffset":4795476,
			"target":34962
		},
		{
			"buffer":0,
			"byteLength":3196984,
			"byteOffset":9590952,
			"target":34962
		},
		{
			"buffer":0,
			"byteLength":1643136,
			"byteOffset":12787936,
			"target":34963
		}
	],
	"buffers":[
		{
			"byteLength":14431072,
			"uri":"gebergte-mount-everest.bin"
		}
	]
}
