{
	"asset":{
		"generator":"Khronos glTF Blender I/O v4.0.44",
		"version":"2.0"
	},
	"scene":0,
	"scenes":[
		{
			"name":"Scene",
			"nodes":[
				0
			]
		}
	],
	"nodes":[
		{
			"mesh":0,
			"name":"Cube",
			"scale":[
				12,
				12,
				12
			]
		}
	],
	"meshes":[
		{
			"name":"Cube.006",
			"primitives":[
				{
					"attributes":{
						"POSITION":0,
						"NORMAL":1,
						"TEXCOORD_0":2
					},
					"indices":3
				}
			]
		}
	],
	"accessors":[
		{
			"bufferView":0,
			"componentType":5126,
			"count":147296,
			"max":[
				1,
				0.42313724756240845,
				1
			],
			"min":[
				-1,
				0,
				-1
			],
			"type":"VEC3"
		},
		{
			"bufferView":1,
			"componentType":5126,
			"count":147296,
			"type":"VEC3"
		},
		{
			"bufferView":2,
			"componentType":5126,
			"count":147296,
			"type":"VEC2"
		},
		{
			"bufferView":3,
			"componentType":5125,
			"count":156282,
			"type":"SCALAR"
		}
	],
	"bufferViews":[
		{
			"buffer":0,
			"byteLength":1767552,
			"byteOffset":0,
			"target":34962
		},
		{
			"buffer":0,
			"byteLength":1767552,
			"byteOffset":1767552,
			"target":34962
		},
		{
			"buffer":0,
			"byteLength":1178368,
			"byteOffset":3535104,
			"target":34962
		},
		{
			"buffer":0,
			"byteLength":625128,
			"byteOffset":4713472,
			"target":34963
		}
	],
	"buffers":[
		{
			"byteLength":5338600,
			"uri":"heuvels-wales.bin"
		}
	]
}
