{
	"asset":{
		"generator":"Khronos glTF Blender I/O v4.0.44",
		"version":"2.0"
	},
	"scene":0,
	"scenes":[
		{
			"name":"Scene",
			"nodes":[
				0
			]
		}
	],
	"nodes":[
		{
			"mesh":0,
			"name":"Cube",
			"scale":[
				12,
				10,
				12
			]
		}
	],
	"meshes":[
		{
			"name":"Cube.004",
			"primitives":[
				{
					"attributes":{
						"POSITION":0,
						"NORMAL":1,
						"TEXCOORD_0":2
					},
					"indices":3
				}
			]
		}
	],
	"accessors":[
		{
			"bufferView":0,
			"componentType":5126,
			"count":147750,
			"max":[
				1,
				0.4437168538570404,
				1
			],
			"min":[
				-1,
				0,
				-1
			],
			"type":"VEC3"
		},
		{
			"bufferView":1,
			"componentType":5126,
			"count":147750,
			"type":"VEC3"
		},
		{
			"bufferView":2,
			"componentType":5126,
			"count":147750,
			"type":"VEC2"
		},
		{
			"bufferView":3,
			"componentType":5125,
			"count":155160,
			"type":"SCALAR"
		}
	],
	"bufferViews":[
		{
			"buffer":0,
			"byteLength":1773000,
			"byteOffset":0,
			"target":34962
		},
		{
			"buffer":0,
			"byteLength":1773000,
			"byteOffset":1773000,
			"target":34962
		},
		{
			"buffer":0,
			"byteLength":1182000,
			"byteOffset":3546000,
			"target":34962
		},
		{
			"buffer":0,
			"byteLength":620640,
			"byteOffset":4728000,
			"target":34963
		}
	],
	"buffers":[
		{
			"byteLength":5348640,
			"uri":"heuvels-kazachstan.bin"
		}
	]
}
