{
	"asset":{
		"generator":"Khronos glTF Blender I/O v4.0.44",
		"version":"2.0"
	},
	"scene":0,
	"scenes":[
		{
			"name":"Scene",
			"nodes":[
				0
			]
		}
	],
	"nodes":[
		{
			"mesh":0,
			"name":"Cube",
			"scale":[
				12,
				12,
				12
			]
		}
	],
	"meshes":[
		{
			"name":"Cube.005",
			"primitives":[
				{
					"attributes":{
						"POSITION":0,
						"NORMAL":1,
						"TEXCOORD_0":2
					},
					"indices":3
				}
			]
		}
	],
	"accessors":[
		{
			"bufferView":0,
			"componentType":5126,
			"count":110010,
			"max":[
				1,
				0.3444579541683197,
				1
			],
			"min":[
				-0.9468600153923035,
				0,
				-1
			],
			"type":"VEC3"
		},
		{
			"bufferView":1,
			"componentType":5126,
			"count":110010,
			"type":"VEC3"
		},
		{
			"bufferView":2,
			"componentType":5126,
			"count":110010,
			"type":"VEC2"
		},
		{
			"bufferView":3,
			"componentType":5125,
			"count":125304,
			"type":"SCALAR"
		}
	],
	"bufferViews":[
		{
			"buffer":0,
			"byteLength":1320120,
			"byteOffset":0,
			"target":34962
		},
		{
			"buffer":0,
			"byteLength":1320120,
			"byteOffset":1320120,
			"target":34962
		},
		{
			"buffer":0,
			"byteLength":880080,
			"byteOffset":2640240,
			"target":34962
		},
		{
			"buffer":0,
			"byteLength":501216,
			"byteOffset":3520320,
			"target":34963
		}
	],
	"buffers":[
		{
			"byteLength":4021536,
			"uri":"heuvels-oeral.bin"
		}
	]
}
