{
	"asset":{
		"generator":"Khronos glTF Blender I/O v4.0.44",
		"version":"2.0"
	},
	"scene":0,
	"scenes":[
		{
			"name":"Scene",
			"nodes":[
				0
			]
		}
	],
	"nodes":[
		{
			"mesh":0,
			"name":"Cube",
			"scale":[
				12,
				12,
				12
			]
		}
	],
	"meshes":[
		{
			"name":"Cube.001",
			"primitives":[
				{
					"attributes":{
						"POSITION":0,
						"NORMAL":1,
						"TEXCOORD_0":2
					},
					"indices":3
				}
			]
		}
	],
	"accessors":[
		{
			"bufferView":0,
			"componentType":5126,
			"count":399770,
			"max":[
				1,
				0.3874742388725281,
				1
			],
			"min":[
				-1,
				0,
				-1
			],
			"type":"VEC3"
		},
		{
			"bufferView":1,
			"componentType":5126,
			"count":399770,
			"type":"VEC3"
		},
		{
			"bufferView":2,
			"componentType":5126,
			"count":399770,
			"type":"VEC2"
		},
		{
			"bufferView":3,
			"componentType":5125,
			"count":413232,
			"type":"SCALAR"
		}
	],
	"bufferViews":[
		{
			"buffer":0,
			"byteLength":4797240,
			"byteOffset":0,
			"target":34962
		},
		{
			"buffer":0,
			"byteLength":4797240,
			"byteOffset":4797240,
			"target":34962
		},
		{
			"buffer":0,
			"byteLength":3198160,
			"byteOffset":9594480,
			"target":34962
		},
		{
			"buffer":0,
			"byteLength":1652928,
			"byteOffset":12792640,
			"target":34963
		}
	],
	"buffers":[
		{
			"byteLength":14445568,
			"uri":"plateau-fish-river-canyon.bin"
		}
	]
}
