{
	"asset":{
		"generator":"Khronos glTF Blender I/O v4.0.44",
		"version":"2.0"
	},
	"scene":0,
	"scenes":[
		{
			"name":"Scene",
			"nodes":[
				0
			]
		}
	],
	"nodes":[
		{
			"mesh":0,
			"name":"Cube",
			"scale":[
				12,
				20,
				12
			]
		}
	],
	"meshes":[
		{
			"name":"Cube.003",
			"primitives":[
				{
					"attributes":{
						"POSITION":0,
						"NORMAL":1,
						"TEXCOORD_0":2
					},
					"indices":3
				}
			]
		}
	],
	"accessors":[
		{
			"bufferView":0,
			"componentType":5126,
			"count":432364,
			"max":[
				1,
				0.43750351667404175,
				1
			],
			"min":[
				-1,
				0,
				-1
			],
			"type":"VEC3"
		},
		{
			"bufferView":1,
			"componentType":5126,
			"count":432364,
			"type":"VEC3"
		},
		{
			"bufferView":2,
			"componentType":5126,
			"count":432364,
			"type":"VEC2"
		},
		{
			"bufferView":3,
			"componentType":5125,
			"count":439152,
			"type":"SCALAR"
		}
	],
	"bufferViews":[
		{
			"buffer":0,
			"byteLength":5188368,
			"byteOffset":0,
			"target":34962
		},
		{
			"buffer":0,
			"byteLength":5188368,
			"byteOffset":5188368,
			"target":34962
		},
		{
			"buffer":0,
			"byteLength":3458912,
			"byteOffset":10376736,
			"target":34962
		},
		{
			"buffer":0,
			"byteLength":1756608,
			"byteOffset":13835648,
			"target":34963
		}
	],
	"buffers":[
		{
			"byteLength":15592256,
			"uri":"plateau-grand-canyon.bin"
		}
	]
}
