{
	"asset":{
		"generator":"Khronos glTF Blender I/O v4.0.44",
		"version":"2.0"
	},
	"scene":0,
	"scenes":[
		{
			"name":"Scene",
			"nodes":[
				0
			]
		}
	],
	"nodes":[
		{
			"mesh":0,
			"name":"Cube",
			"scale":[
				12,
				20,
				12
			]
		}
	],
	"meshes":[
		{
			"name":"Cube.007",
			"primitives":[
				{
					"attributes":{
						"POSITION":0,
						"NORMAL":1,
						"TEXCOORD_0":2
					},
					"indices":3
				}
			]
		}
	],
	"accessors":[
		{
			"bufferView":0,
			"componentType":5126,
			"count":359344,
			"max":[
				1,
				0.6262523531913757,
				1
			],
			"min":[
				-1,
				0,
				-1
			],
			"type":"VEC3"
		},
		{
			"bufferView":1,
			"componentType":5126,
			"count":359344,
			"type":"VEC3"
		},
		{
			"bufferView":2,
			"componentType":5126,
			"count":359344,
			"type":"VEC2"
		},
		{
			"bufferView":3,
			"componentType":5125,
			"count":369822,
			"type":"SCALAR"
		}
	],
	"bufferViews":[
		{
			"buffer":0,
			"byteLength":4312128,
			"byteOffset":0,
			"target":34962
		},
		{
			"buffer":0,
			"byteLength":4312128,
			"byteOffset":4312128,
			"target":34962
		},
		{
			"buffer":0,
			"byteLength":2874752,
			"byteOffset":8624256,
			"target":34962
		},
		{
			"buffer":0,
			"byteLength":1479288,
			"byteOffset":11499008,
			"target":34963
		}
	],
	"buffers":[
		{
			"byteLength":12978296,
			"uri":"plateau-ethiopie.bin"
		}
	]
}
