{
    "asset": {
        "version": "1.0",
        "generator": "Open Asset Import Library (assimp v4.1.0)"
    },
    "accessors": {
        "mesh_accessor": {
            "bufferView": "mesh_view",
            "byteOffset": 0,
            "byteStride": 0,
            "componentType": 5126,
            "count": 65534,
            "type": "VEC3",
            "max": [
                74.55809020996094,
                -29.0,
                2.665621757507324
            ],
            "min": [
                0.0,
                -120.0,
                0.0
            ]
        },
        "mesh_accessor_0": {
            "bufferView": "mesh_view_0",
            "byteOffset": 0,
            "byteStride": 0,
            "componentType": 5126,
            "count": 65534,
            "type": "VEC3",
            "max": [
                2.242147445678711,
                0.5190621018409729,
                0.6265411376953125
            ],
            "min": [
                -2.602825403213501,
                -0.9033380746841431,
                0.0
            ]
        },
        "mesh_accessor_1": {
            "bufferView": "mesh_view_1",
            "byteOffset": 0,
            "byteStride": 0,
            "componentType": 5123,
            "count": 66210,
            "type": "SCALAR",
            "max": [
                65533.0
            ],
            "min": [
                0.0
            ]
        },
        "mesh_0_accessor": {
            "bufferView": "mesh_0_view",
            "byteOffset": 0,
            "byteStride": 0,
            "componentType": 5126,
            "count": 22563,
            "type": "VEC3",
            "max": [
                74.55809020996094,
                0.0,
                1.7456640005111695
            ],
            "min": [
                0.0,
                -120.0,
                0.0
            ]
        },
        "mesh_0_accessor_0": {
            "bufferView": "mesh_0_view_0",
            "byteOffset": 0,
            "byteStride": 0,
            "componentType": 5126,
            "count": 22563,
            "type": "VEC3",
            "max": [
                1.738830327987671,
                0.863149106502533,
                0.6265411376953125
            ],
            "min": [
                -1.4041956663131714,
                -0.17919129133224488,
                -68.91952514648438
            ]
        },
        "mesh_0_accessor_1": {
            "bufferView": "mesh_0_view_1",
            "byteOffset": 0,
            "byteStride": 0,
            "componentType": 5123,
            "count": 23772,
            "type": "SCALAR",
            "max": [
                22562.0
            ],
            "min": [
                0.0
            ]
        }
    },
    "buffers": {
        "../../download/1hnr88orb3o4/1hnr88orb3o4": {
            "byteLength": 2294292,
            "type": "arraybuffer",
            "uri": "../../download/1hnr88orb3o4/1hnr88orb3o4.bin"
        }
    },
    "bufferViews": {
        "mesh_view": {
            "buffer": "../../download/1hnr88orb3o4/1hnr88orb3o4",
            "byteOffset": 0,
            "byteLength": 786408,
            "target": 34962
        },
        "mesh_view_0": {
            "buffer": "../../download/1hnr88orb3o4/1hnr88orb3o4",
            "byteOffset": 786408,
            "byteLength": 786408,
            "target": 34962
        },
        "mesh_view_1": {
            "buffer": "../../download/1hnr88orb3o4/1hnr88orb3o4",
            "byteOffset": 1572816,
            "byteLength": 132420,
            "target": 34963
        },
        "mesh_0_view": {
            "buffer": "../../download/1hnr88orb3o4/1hnr88orb3o4",
            "byteOffset": 1705236,
            "byteLength": 270756,
            "target": 34962
        },
        "mesh_0_view_0": {
            "buffer": "../../download/1hnr88orb3o4/1hnr88orb3o4",
            "byteOffset": 1975992,
            "byteLength": 270756,
            "target": 34962
        },
        "mesh_0_view_1": {
            "buffer": "../../download/1hnr88orb3o4/1hnr88orb3o4",
            "byteOffset": 2246748,
            "byteLength": 47544,
            "target": 34963
        }
    },
    "materials": {
        "DefaultMaterial": {
            "values": {
                "ambient": [
                    1.0,
                    1.0,
                    1.0,
                    1.0
                ],
                "diffuse": [
                    1.0,
                    1.0,
                    1.0,
                    1.0
                ],
                "specular": [
                    1.0,
                    1.0,
                    1.0,
                    1.0
                ],
                "emission": [
                    0.0,
                    0.0,
                    0.0,
                    1.0
                ],
                "shininess": 0.0
            }
        }
    },
    "meshes": {
        "mesh": {
            "name": "",
            "primitives": [
                {
                    "mode": 4,
                    "material": "DefaultMaterial",
                    "indices": "mesh_accessor_1",
                    "attributes": {
                        "POSITION": "mesh_accessor",
                        "NORMAL": "mesh_accessor_0"
                    }
                }
            ]
        },
        "mesh_0": {
            "name": "",
            "primitives": [
                {
                    "mode": 4,
                    "material": "DefaultMaterial",
                    "indices": "mesh_0_accessor_1",
                    "attributes": {
                        "POSITION": "mesh_0_accessor",
                        "NORMAL": "mesh_0_accessor_0"
                    }
                }
            ]
        }
    },
    "nodes": {
        "<STL_BINARY>": {
            "meshes": [
                "mesh",
                "mesh_0"
            ]
        }
    },
    "scenes": {
        "defaultScene": {
            "nodes": [
                "<STL_BINARY>"
            ]
        }
    },
    "scene": "defaultScene"
}