{
	"asset":{
		"generator":"Khronos glTF Blender I/O v4.0.44",
		"version":"2.0"
	},
	"scene":0,
	"scenes":[
		{
			"name":"Scene",
			"nodes":[
				0
			]
		}
	],
	"nodes":[
		{
			"mesh":0,
			"name":"Cube",
			"scale":[
				12,
				12,
				12
			]
		}
	],
	"meshes":[
		{
			"name":"Cube.004",
			"primitives":[
				{
					"attributes":{
						"POSITION":0,
						"NORMAL":1,
						"TEXCOORD_0":2
					},
					"indices":3
				}
			]
		}
	],
	"accessors":[
		{
			"bufferView":0,
			"componentType":5126,
			"count":158997,
			"max":[
				1,
				0.0689721629023552,
				1
			],
			"min":[
				-1,
				0,
				-1
			],
			"type":"VEC3"
		},
		{
			"bufferView":1,
			"componentType":5126,
			"count":158997,
			"type":"VEC3"
		},
		{
			"bufferView":2,
			"componentType":5126,
			"count":158997,
			"type":"VEC2"
		},
		{
			"bufferView":3,
			"componentType":5125,
			"count":169512,
			"type":"SCALAR"
		}
	],
	"bufferViews":[
		{
			"buffer":0,
			"byteLength":1907964,
			"byteOffset":0,
			"target":34962
		},
		{
			"buffer":0,
			"byteLength":1907964,
			"byteOffset":1907964,
			"target":34962
		},
		{
			"buffer":0,
			"byteLength":1271976,
			"byteOffset":3815928,
			"target":34962
		},
		{
			"buffer":0,
			"byteLength":678048,
			"byteOffset":5087904,
			"target":34963
		}
	],
	"buffers":[
		{
			"byteLength":5765952,
			"uri":"vlakte-kopenhagen.bin"
		}
	]
}
