{
	"asset":{
		"generator":"Khronos glTF Blender I/O v4.0.44",
		"version":"2.0"
	},
	"scene":0,
	"scenes":[
		{
			"name":"Scene",
			"nodes":[
				0
			]
		}
	],
	"nodes":[
		{
			"mesh":0,
			"name":"Cube",
			"scale":[
				12,
				12,
				12
			]
		}
	],
	"meshes":[
		{
			"name":"Cube.005",
			"primitives":[
				{
					"attributes":{
						"POSITION":0,
						"NORMAL":1,
						"TEXCOORD_0":2
					},
					"indices":3
				}
			]
		}
	],
	"accessors":[
		{
			"bufferView":0,
			"componentType":5126,
			"count":35866,
			"max":[
				1,
				0.0802038237452507,
				1
			],
			"min":[
				-1,
				0,
				-1
			],
			"type":"VEC3"
		},
		{
			"bufferView":1,
			"componentType":5126,
			"count":35866,
			"type":"VEC3"
		},
		{
			"bufferView":2,
			"componentType":5126,
			"count":35866,
			"type":"VEC2"
		},
		{
			"bufferView":3,
			"componentType":5123,
			"count":38742,
			"type":"SCALAR"
		}
	],
	"bufferViews":[
		{
			"buffer":0,
			"byteLength":430392,
			"byteOffset":0,
			"target":34962
		},
		{
			"buffer":0,
			"byteLength":430392,
			"byteOffset":430392,
			"target":34962
		},
		{
			"buffer":0,
			"byteLength":286928,
			"byteOffset":860784,
			"target":34962
		},
		{
			"buffer":0,
			"byteLength":77484,
			"byteOffset":1147712,
			"target":34963
		}
	],
	"buffers":[
		{
			"byteLength":1225196,
			"uri":"vlakte-sint-niklaas.bin"
		}
	]
}
