{
	"asset":{
		"generator":"Khronos glTF Blender I/O v4.0.44",
		"version":"2.0"
	},
	"scene":0,
	"scenes":[
		{
			"name":"Scene",
			"nodes":[
				0
			]
		}
	],
	"nodes":[
		{
			"mesh":0,
			"name":"Cube",
			"scale":[
				12,
				12,
				12
			]
		}
	],
	"meshes":[
		{
			"name":"Cube.006",
			"primitives":[
				{
					"attributes":{
						"POSITION":0,
						"NORMAL":1,
						"TEXCOORD_0":2
					},
					"indices":3
				}
			]
		}
	],
	"accessors":[
		{
			"bufferView":0,
			"componentType":5126,
			"count":36935,
			"max":[
				1,
				0.05266532301902771,
				1
			],
			"min":[
				-1,
				0,
				-1
			],
			"type":"VEC3"
		},
		{
			"bufferView":1,
			"componentType":5126,
			"count":36935,
			"type":"VEC3"
		},
		{
			"bufferView":2,
			"componentType":5126,
			"count":36935,
			"type":"VEC2"
		},
		{
			"bufferView":3,
			"componentType":5123,
			"count":41700,
			"type":"SCALAR"
		}
	],
	"bufferViews":[
		{
			"buffer":0,
			"byteLength":443220,
			"byteOffset":0,
			"target":34962
		},
		{
			"buffer":0,
			"byteLength":443220,
			"byteOffset":443220,
			"target":34962
		},
		{
			"buffer":0,
			"byteLength":295480,
			"byteOffset":886440,
			"target":34962
		},
		{
			"buffer":0,
			"byteLength":83400,
			"byteOffset":1181920,
			"target":34963
		}
	],
	"buffers":[
		{
			"byteLength":1265320,
			"uri":"vlakte-urk.bin"
		}
	]
}
