{"asset":{"copyright":"","generator":"Aspose GLTF","version":"2.0"},"extensionsUsed":["KHR_materials_unlit"],"accessors":[{"name":"POSITION","bufferView":0,"componentType":5126,"count":14998,"max":[74.55809020996094,0.0,2.665621757507324],"min":[0.0,-120.0,0.0],"type":"VEC3"},{"bufferView":1,"componentType":5123,"count":59988,"type":"SCALAR"}],"bufferViews":[{"buffer":0,"byteLength":179976,"byteStride":12,"target":34962},{"buffer":0,"byteLength":119976,"byteOffset":179976,"target":34963}],"buffers":[{"byteLength":299952,"uri":"vlakte-sint-niklaas.bin"}],"materials":[{"extensions":{"KHR_materials_unlit":{}},"name":"material1","pbrMetallicRoughness":{}}],"meshes":[{"name":"mesh","primitives":[{"attributes":{"POSITION":0},"indices":1,"material":0,"mode":1}]}],"nodes":[{"mesh":0}],"scenes":[{"name":"Default","nodes":[0]}]}