{
	"asset":{
		"generator":"Khronos glTF Blender I/O v4.0.44",
		"version":"2.0"
	},
	"extensionsUsed":[
		"KHR_materials_specular",
		"KHR_materials_ior"
	],
	"scene":0,
	"scenes":[
		{
			"name":"Scene",
			"nodes":[
				0,
				1,
				2,
				3,
				4,
				5,
				6,
				7,
				8,
				9,
				10,
				11,
				12,
				13,
				14
			]
		}
	],
	"nodes":[
		{
			"mesh":0,
			"name":"000_Plane",
			"rotation":[
				0.7071068286895752,
				0,
				0,
				0.7071068286895752
			]
		},
		{
			"mesh":1,
			"name":"001_L-14.svg_2mm",
			"rotation":[
				0.7071068286895752,
				0,
				0,
				0.7071068286895752
			]
		},
		{
			"mesh":2,
			"name":"002_L-13.svg_2mm",
			"rotation":[
				0.7071068286895752,
				0,
				0,
				0.7071068286895752
			]
		},
		{
			"mesh":3,
			"name":"003_L-12.svg_2mm",
			"rotation":[
				0.7071068286895752,
				0,
				0,
				0.7071068286895752
			]
		},
		{
			"mesh":4,
			"name":"004_L-11.svg_2mm",
			"rotation":[
				0.7071068286895752,
				0,
				0,
				0.7071068286895752
			]
		},
		{
			"mesh":5,
			"name":"005_L-10.svg_2mm",
			"rotation":[
				0.7071068286895752,
				0,
				0,
				0.7071068286895752
			]
		},
		{
			"mesh":6,
			"name":"006_L-9.svg_2mm",
			"rotation":[
				0.7071068286895752,
				0,
				0,
				0.7071068286895752
			]
		},
		{
			"mesh":7,
			"name":"007_L-8.svg_2mm",
			"rotation":[
				0.7071068286895752,
				0,
				0,
				0.7071068286895752
			]
		},
		{
			"mesh":8,
			"name":"008_L-6.svg_2mm",
			"rotation":[
				0.7071068286895752,
				0,
				0,
				0.7071068286895752
			]
		},
		{
			"mesh":9,
			"name":"009_L-5.svg_2mm",
			"rotation":[
				0.7071068286895752,
				0,
				0,
				0.7071068286895752
			]
		},
		{
			"mesh":10,
			"name":"010_L-4.svg_2mm",
			"rotation":[
				0.7071068286895752,
				0,
				0,
				0.7071068286895752
			]
		},
		{
			"mesh":11,
			"name":"011_L-3.svg_2mm",
			"rotation":[
				0.7071068286895752,
				0,
				0,
				0.7071068286895752
			]
		},
		{
			"mesh":12,
			"name":"012_L-2.svg_2mm",
			"rotation":[
				0.7071068286895752,
				0,
				0,
				0.7071068286895752
			]
		},
		{
			"mesh":13,
			"name":"013_L-1.svg_2mm",
			"rotation":[
				0.7071068286895752,
				0,
				0,
				0.7071068286895752
			]
		},
		{
			"mesh":14,
			"name":"014_L-7.svg_2mm",
			"rotation":[
				0.7071068286895752,
				0,
				0,
				0.7071068286895752
			]
		}
	],
	"materials":[
		{
			"doubleSided":true,
			"extensions":{
				"KHR_materials_specular":{
					"specularFactor":0
				},
				"KHR_materials_ior":{
					"ior":1.4500000476837158
				}
			},
			"name":"Jupiter",
			"pbrMetallicRoughness":{
				"baseColorFactor":[
					0.8309999704360962,
					0.8309999704360962,
					0.8309999704360962,
					1
				],
				"metallicFactor":0
			}
		},
		{
			"doubleSided":true,
			"name":"Material.001",
			"pbrMetallicRoughness":{
				"baseColorFactor":[
					0.01178053393959999,
					0.01178053393959999,
					0.01178053393959999,
					1
				],
				"metallicFactor":0,
				"roughnessFactor":0
			}
		}
	],
	"meshes":[
		{
			"name":"000_Plane",
			"primitives":[
				{
					"attributes":{
						"POSITION":0,
						"NORMAL":1,
						"TEXCOORD_0":2
					},
					"indices":3,
					"material":0
				}
			]
		},
		{
			"name":"001_L-14.svg_2mm",
			"primitives":[
				{
					"attributes":{
						"POSITION":4,
						"NORMAL":5,
						"TEXCOORD_0":6
					},
					"indices":7,
					"material":1
				}
			]
		},
		{
			"name":"002_L-13.svg_2mm",
			"primitives":[
				{
					"attributes":{
						"POSITION":8,
						"NORMAL":9,
						"TEXCOORD_0":10
					},
					"indices":11,
					"material":1
				}
			]
		},
		{
			"name":"003_L-12.svg_2mm",
			"primitives":[
				{
					"attributes":{
						"POSITION":12,
						"NORMAL":13,
						"TEXCOORD_0":14
					},
					"indices":15,
					"material":1
				}
			]
		},
		{
			"name":"004_L-11.svg_2mm",
			"primitives":[
				{
					"attributes":{
						"POSITION":16,
						"NORMAL":17,
						"TEXCOORD_0":18
					},
					"indices":19,
					"material":1
				}
			]
		},
		{
			"name":"005_L-10.svg_2mm",
			"primitives":[
				{
					"attributes":{
						"POSITION":20,
						"NORMAL":21,
						"TEXCOORD_0":22
					},
					"indices":23,
					"material":1
				}
			]
		},
		{
			"name":"006_L-9.svg_2mm",
			"primitives":[
				{
					"attributes":{
						"POSITION":24,
						"NORMAL":25,
						"TEXCOORD_0":26
					},
					"indices":27,
					"material":1
				}
			]
		},
		{
			"name":"007_L-8.svg_2mm",
			"primitives":[
				{
					"attributes":{
						"POSITION":28,
						"NORMAL":29,
						"TEXCOORD_0":30
					},
					"indices":31,
					"material":1
				}
			]
		},
		{
			"name":"008_L-6.svg_2mm",
			"primitives":[
				{
					"attributes":{
						"POSITION":32,
						"NORMAL":33,
						"TEXCOORD_0":34
					},
					"indices":35,
					"material":1
				}
			]
		},
		{
			"name":"009_L-5.svg_2mm",
			"primitives":[
				{
					"attributes":{
						"POSITION":36,
						"NORMAL":37,
						"TEXCOORD_0":38
					},
					"indices":39,
					"material":1
				}
			]
		},
		{
			"name":"010_L-4.svg_2mm",
			"primitives":[
				{
					"attributes":{
						"POSITION":40,
						"NORMAL":41,
						"TEXCOORD_0":42
					},
					"indices":43,
					"material":1
				}
			]
		},
		{
			"name":"011_L-3.svg_2mm",
			"primitives":[
				{
					"attributes":{
						"POSITION":44,
						"NORMAL":45,
						"TEXCOORD_0":46
					},
					"indices":47,
					"material":1
				}
			]
		},
		{
			"name":"012_L-2.svg_2mm",
			"primitives":[
				{
					"attributes":{
						"POSITION":48,
						"NORMAL":49,
						"TEXCOORD_0":50
					},
					"indices":51,
					"material":1
				}
			]
		},
		{
			"name":"013_L-1.svg_2mm",
			"primitives":[
				{
					"attributes":{
						"POSITION":52,
						"NORMAL":53,
						"TEXCOORD_0":54
					},
					"indices":55,
					"material":1
				}
			]
		},
		{
			"name":"014_L-7.svg_2mm",
			"primitives":[
				{
					"attributes":{
						"POSITION":56,
						"NORMAL":57,
						"TEXCOORD_0":58
					},
					"indices":59,
					"material":1
				}
			]
		}
	],
	"accessors":[
		{
			"bufferView":0,
			"componentType":5126,
			"count":868,
			"max":[
				33.5,
				33.5,
				0
			],
			"min":[
				-33.5,
				-33.5,
				0
			],
			"type":"VEC3"
		},
		{
			"bufferView":1,
			"componentType":5126,
			"count":868,
			"type":"VEC3"
		},
		{
			"bufferView":2,
			"componentType":5126,
			"count":868,
			"type":"VEC2"
		},
		{
			"bufferView":3,
			"componentType":5123,
			"count":4998,
			"type":"SCALAR"
		},
		{
			"bufferView":4,
			"componentType":5126,
			"count":516,
			"max":[
				-32.54899978637695,
				9.57699966430664,
				-20.5
			],
			"min":[
				-33.57899856567383,
				-15.663999557495117,
				-21.5
			],
			"type":"VEC3"
		},
		{
			"bufferView":5,
			"componentType":5126,
			"count":516,
			"type":"VEC3"
		},
		{
			"bufferView":6,
			"componentType":5126,
			"count":516,
			"type":"VEC2"
		},
		{
			"bufferView":7,
			"componentType":5123,
			"count":516,
			"type":"SCALAR"
		},
		{
			"bufferView":8,
			"componentType":5126,
			"count":6036,
			"max":[
				-18.663999557495117,
				26.409000396728516,
				-19
			],
			"min":[
				-33.393001556396484,
				-26.41200065612793,
				-20
			],
			"type":"VEC3"
		},
		{
			"bufferView":9,
			"componentType":5126,
			"count":6036,
			"type":"VEC3"
		},
		{
			"bufferView":10,
			"componentType":5126,
			"count":6036,
			"type":"VEC2"
		},
		{
			"bufferView":11,
			"componentType":5123,
			"count":6036,
			"type":"SCALAR"
		},
		{
			"bufferView":12,
			"componentType":5126,
			"count":6216,
			"max":[
				-16.878999710083008,
				29.327999114990234,
				-17.5
			],
			"min":[
				-33.393001556396484,
				-27.43600082397461,
				-18.5
			],
			"type":"VEC3"
		},
		{
			"bufferView":13,
			"componentType":5126,
			"count":6216,
			"type":"VEC3"
		},
		{
			"bufferView":14,
			"componentType":5126,
			"count":6216,
			"type":"VEC2"
		},
		{
			"bufferView":15,
			"componentType":5123,
			"count":6216,
			"type":"SCALAR"
		},
		{
			"bufferView":16,
			"componentType":5126,
			"count":5820,
			"max":[
				-15.473999977111816,
				33.029998779296875,
				-16
			],
			"min":[
				-33.393001556396484,
				-29.083999633789062,
				-17
			],
			"type":"VEC3"
		},
		{
			"bufferView":17,
			"componentType":5126,
			"count":5820,
			"type":"VEC3"
		},
		{
			"bufferView":18,
			"componentType":5126,
			"count":5820,
			"type":"VEC2"
		},
		{
			"bufferView":19,
			"componentType":5123,
			"count":5820,
			"type":"SCALAR"
		},
		{
			"bufferView":20,
			"componentType":5126,
			"count":6540,
			"max":[
				-9.899999618530273,
				33.05099868774414,
				-14.5
			],
			"min":[
				-33.58300018310547,
				-30.683000564575195,
				-15.5
			],
			"type":"VEC3"
		},
		{
			"bufferView":21,
			"componentType":5126,
			"count":6540,
			"type":"VEC3"
		},
		{
			"bufferView":22,
			"componentType":5126,
			"count":6540,
			"type":"VEC2"
		},
		{
			"bufferView":23,
			"componentType":5123,
			"count":6540,
			"type":"SCALAR"
		},
		{
			"bufferView":24,
			"componentType":5126,
			"count":6660,
			"max":[
				33.582000732421875,
				33.12699890136719,
				-13
			],
			"min":[
				-32.63100051879883,
				-33.1510009765625,
				-14
			],
			"type":"VEC3"
		},
		{
			"bufferView":25,
			"componentType":5126,
			"count":6660,
			"type":"VEC3"
		},
		{
			"bufferView":26,
			"componentType":5126,
			"count":6660,
			"type":"VEC2"
		},
		{
			"bufferView":27,
			"componentType":5123,
			"count":6660,
			"type":"SCALAR"
		},
		{
			"bufferView":28,
			"componentType":5126,
			"count":6252,
			"max":[
				33.54899978637695,
				33.1510009765625,
				-11.5
			],
			"min":[
				-32.63100051879883,
				-33.1510009765625,
				-12.5
			],
			"type":"VEC3"
		},
		{
			"bufferView":29,
			"componentType":5126,
			"count":6252,
			"type":"VEC3"
		},
		{
			"bufferView":30,
			"componentType":5126,
			"count":6252,
			"type":"VEC2"
		},
		{
			"bufferView":31,
			"componentType":5123,
			"count":6252,
			"type":"SCALAR"
		},
		{
			"bufferView":32,
			"componentType":5126,
			"count":6240,
			"max":[
				33.367000579833984,
				33.14799880981445,
				-8.5
			],
			"min":[
				-26.440000534057617,
				-33.141998291015625,
				-9.5
			],
			"type":"VEC3"
		},
		{
			"bufferView":33,
			"componentType":5126,
			"count":6240,
			"type":"VEC3"
		},
		{
			"bufferView":34,
			"componentType":5126,
			"count":6240,
			"type":"VEC2"
		},
		{
			"bufferView":35,
			"componentType":5123,
			"count":6240,
			"type":"SCALAR"
		},
		{
			"bufferView":36,
			"componentType":5126,
			"count":7428,
			"max":[
				33.34199905395508,
				33.13800048828125,
				-7
			],
			"min":[
				-25.297000885009766,
				-33.14699935913086,
				-8
			],
			"type":"VEC3"
		},
		{
			"bufferView":37,
			"componentType":5126,
			"count":7428,
			"type":"VEC3"
		},
		{
			"bufferView":38,
			"componentType":5126,
			"count":7428,
			"type":"VEC2"
		},
		{
			"bufferView":39,
			"componentType":5123,
			"count":7428,
			"type":"SCALAR"
		},
		{
			"bufferView":40,
			"componentType":5126,
			"count":9048,
			"max":[
				33.58300018310547,
				33.14500045776367,
				-5.5
			],
			"min":[
				-23.01099967956543,
				-33.14500045776367,
				-6.5
			],
			"type":"VEC3"
		},
		{
			"bufferView":41,
			"componentType":5126,
			"count":9048,
			"type":"VEC3"
		},
		{
			"bufferView":42,
			"componentType":5126,
			"count":9048,
			"type":"VEC2"
		},
		{
			"bufferView":43,
			"componentType":5123,
			"count":9048,
			"type":"SCALAR"
		},
		{
			"bufferView":44,
			"componentType":5126,
			"count":8652,
			"max":[
				33.25899887084961,
				33.051998138427734,
				-4
			],
			"min":[
				-22.441999435424805,
				-33.1510009765625,
				-5
			],
			"type":"VEC3"
		},
		{
			"bufferView":45,
			"componentType":5126,
			"count":8652,
			"type":"VEC3"
		},
		{
			"bufferView":46,
			"componentType":5126,
			"count":8652,
			"type":"VEC2"
		},
		{
			"bufferView":47,
			"componentType":5123,
			"count":8652,
			"type":"SCALAR"
		},
		{
			"bufferView":48,
			"componentType":5126,
			"count":8748,
			"max":[
				33.26300048828125,
				33.106998443603516,
				-2.5
			],
			"min":[
				-20.534000396728516,
				-33.14799880981445,
				-3.5
			],
			"type":"VEC3"
		},
		{
			"bufferView":49,
			"componentType":5126,
			"count":8748,
			"type":"VEC3"
		},
		{
			"bufferView":50,
			"componentType":5126,
			"count":8748,
			"type":"VEC2"
		},
		{
			"bufferView":51,
			"componentType":5123,
			"count":8748,
			"type":"SCALAR"
		},
		{
			"bufferView":52,
			"componentType":5126,
			"count":9420,
			"max":[
				33.16899871826172,
				33.09700012207031,
				-1
			],
			"min":[
				-19.391000747680664,
				-33.14899826049805,
				-2
			],
			"type":"VEC3"
		},
		{
			"bufferView":53,
			"componentType":5126,
			"count":9420,
			"type":"VEC3"
		},
		{
			"bufferView":54,
			"componentType":5126,
			"count":9420,
			"type":"VEC2"
		},
		{
			"bufferView":55,
			"componentType":5123,
			"count":9420,
			"type":"SCALAR"
		},
		{
			"bufferView":56,
			"componentType":5126,
			"count":5040,
			"max":[
				33.42399978637695,
				33.108001708984375,
				-10
			],
			"min":[
				-32.82099914550781,
				-33.1510009765625,
				-11
			],
			"type":"VEC3"
		},
		{
			"bufferView":57,
			"componentType":5126,
			"count":5040,
			"type":"VEC3"
		},
		{
			"bufferView":58,
			"componentType":5126,
			"count":5040,
			"type":"VEC2"
		},
		{
			"bufferView":59,
			"componentType":5123,
			"count":5040,
			"type":"SCALAR"
		}
	],
	"bufferViews":[
		{
			"buffer":0,
			"byteLength":10416,
			"byteOffset":0,
			"target":34962
		},
		{
			"buffer":0,
			"byteLength":10416,
			"byteOffset":10416,
			"target":34962
		},
		{
			"buffer":0,
			"byteLength":6944,
			"byteOffset":20832,
			"target":34962
		},
		{
			"buffer":0,
			"byteLength":9996,
			"byteOffset":27776,
			"target":34963
		},
		{
			"buffer":0,
			"byteLength":6192,
			"byteOffset":37772,
			"target":34962
		},
		{
			"buffer":0,
			"byteLength":6192,
			"byteOffset":43964,
			"target":34962
		},
		{
			"buffer":0,
			"byteLength":4128,
			"byteOffset":50156,
			"target":34962
		},
		{
			"buffer":0,
			"byteLength":1032,
			"byteOffset":54284,
			"target":34963
		},
		{
			"buffer":0,
			"byteLength":72432,
			"byteOffset":55316,
			"target":34962
		},
		{
			"buffer":0,
			"byteLength":72432,
			"byteOffset":127748,
			"target":34962
		},
		{
			"buffer":0,
			"byteLength":48288,
			"byteOffset":200180,
			"target":34962
		},
		{
			"buffer":0,
			"byteLength":12072,
			"byteOffset":248468,
			"target":34963
		},
		{
			"buffer":0,
			"byteLength":74592,
			"byteOffset":260540,
			"target":34962
		},
		{
			"buffer":0,
			"byteLength":74592,
			"byteOffset":335132,
			"target":34962
		},
		{
			"buffer":0,
			"byteLength":49728,
			"byteOffset":409724,
			"target":34962
		},
		{
			"buffer":0,
			"byteLength":12432,
			"byteOffset":459452,
			"target":34963
		},
		{
			"buffer":0,
			"byteLength":69840,
			"byteOffset":471884,
			"target":34962
		},
		{
			"buffer":0,
			"byteLength":69840,
			"byteOffset":541724,
			"target":34962
		},
		{
			"buffer":0,
			"byteLength":46560,
			"byteOffset":611564,
			"target":34962
		},
		{
			"buffer":0,
			"byteLength":11640,
			"byteOffset":658124,
			"target":34963
		},
		{
			"buffer":0,
			"byteLength":78480,
			"byteOffset":669764,
			"target":34962
		},
		{
			"buffer":0,
			"byteLength":78480,
			"byteOffset":748244,
			"target":34962
		},
		{
			"buffer":0,
			"byteLength":52320,
			"byteOffset":826724,
			"target":34962
		},
		{
			"buffer":0,
			"byteLength":13080,
			"byteOffset":879044,
			"target":34963
		},
		{
			"buffer":0,
			"byteLength":79920,
			"byteOffset":892124,
			"target":34962
		},
		{
			"buffer":0,
			"byteLength":79920,
			"byteOffset":972044,
			"target":34962
		},
		{
			"buffer":0,
			"byteLength":53280,
			"byteOffset":1051964,
			"target":34962
		},
		{
			"buffer":0,
			"byteLength":13320,
			"byteOffset":1105244,
			"target":34963
		},
		{
			"buffer":0,
			"byteLength":75024,
			"byteOffset":1118564,
			"target":34962
		},
		{
			"buffer":0,
			"byteLength":75024,
			"byteOffset":1193588,
			"target":34962
		},
		{
			"buffer":0,
			"byteLength":50016,
			"byteOffset":1268612,
			"target":34962
		},
		{
			"buffer":0,
			"byteLength":12504,
			"byteOffset":1318628,
			"target":34963
		},
		{
			"buffer":0,
			"byteLength":74880,
			"byteOffset":1331132,
			"target":34962
		},
		{
			"buffer":0,
			"byteLength":74880,
			"byteOffset":1406012,
			"target":34962
		},
		{
			"buffer":0,
			"byteLength":49920,
			"byteOffset":1480892,
			"target":34962
		},
		{
			"buffer":0,
			"byteLength":12480,
			"byteOffset":1530812,
			"target":34963
		},
		{
			"buffer":0,
			"byteLength":89136,
			"byteOffset":1543292,
			"target":34962
		},
		{
			"buffer":0,
			"byteLength":89136,
			"byteOffset":1632428,
			"target":34962
		},
		{
			"buffer":0,
			"byteLength":59424,
			"byteOffset":1721564,
			"target":34962
		},
		{
			"buffer":0,
			"byteLength":14856,
			"byteOffset":1780988,
			"target":34963
		},
		{
			"buffer":0,
			"byteLength":108576,
			"byteOffset":1795844,
			"target":34962
		},
		{
			"buffer":0,
			"byteLength":108576,
			"byteOffset":1904420,
			"target":34962
		},
		{
			"buffer":0,
			"byteLength":72384,
			"byteOffset":2012996,
			"target":34962
		},
		{
			"buffer":0,
			"byteLength":18096,
			"byteOffset":2085380,
			"target":34963
		},
		{
			"buffer":0,
			"byteLength":103824,
			"byteOffset":2103476,
			"target":34962
		},
		{
			"buffer":0,
			"byteLength":103824,
			"byteOffset":2207300,
			"target":34962
		},
		{
			"buffer":0,
			"byteLength":69216,
			"byteOffset":2311124,
			"target":34962
		},
		{
			"buffer":0,
			"byteLength":17304,
			"byteOffset":2380340,
			"target":34963
		},
		{
			"buffer":0,
			"byteLength":104976,
			"byteOffset":2397644,
			"target":34962
		},
		{
			"buffer":0,
			"byteLength":104976,
			"byteOffset":2502620,
			"target":34962
		},
		{
			"buffer":0,
			"byteLength":69984,
			"byteOffset":2607596,
			"target":34962
		},
		{
			"buffer":0,
			"byteLength":17496,
			"byteOffset":2677580,
			"target":34963
		},
		{
			"buffer":0,
			"byteLength":113040,
			"byteOffset":2695076,
			"target":34962
		},
		{
			"buffer":0,
			"byteLength":113040,
			"byteOffset":2808116,
			"target":34962
		},
		{
			"buffer":0,
			"byteLength":75360,
			"byteOffset":2921156,
			"target":34962
		},
		{
			"buffer":0,
			"byteLength":18840,
			"byteOffset":2996516,
			"target":34963
		},
		{
			"buffer":0,
			"byteLength":60480,
			"byteOffset":3015356,
			"target":34962
		},
		{
			"buffer":0,
			"byteLength":60480,
			"byteOffset":3075836,
			"target":34962
		},
		{
			"buffer":0,
			"byteLength":40320,
			"byteOffset":3136316,
			"target":34962
		},
		{
			"buffer":0,
			"byteLength":10080,
			"byteOffset":3176636,
			"target":34963
		}
	],
	"buffers":[
		{
			"byteLength":3186716,
			"uri":"hoogtekaart-namen.bin"
		}
	]
}
