<svg version="1.2" xmlns="http://www.w3.org/2000/svg" viewBox="0 0 1651 1344" width="1024" height="1024">
	<title>Map_of_Belgium-svg</title>
	<style>
		.s0 { fill: #e1e1e1;stroke: #646464;stroke-linecap: round;stroke-linejoin: round;stroke-width: .4 } 
		.s1 { fill: #ffffff;stroke: #646464;stroke-linejoin: round;stroke-width: 2 } 
		.s2 { fill: none;stroke: #646464;stroke-linejoin: round;stroke-width: 3.5 } 
	</style>
	<g id="layer1">
		<path id="rect2438" class="s0" d="m-624.8-597h2899.7v2361h-2899.7z"/>
	</g>
	<g id="layer3">
		<path id="path3879" class="s1" d="m391.8 491.4l-1.2 4.2 0.4 2.9-3 1.4-0.9 1.9-2.2-2.2-1.4 1.5h-1.8l-0.8 1.1 1.5 0.6 0.4 4-1.8-1.5-4.2 4.3-0.7-2.1-3.9-0.3-5 10.7-8.8 3.7h-3.5l-3.2 9.7h-1.1l-2-2.1-8.4-2.4-1.4-2.7-1.6-0.2-0.2-1.1 1.8-1.2v-4.8l-5-6.2-2.3-6.1-3-2.1-5.4 3.6-2.3-2-11.5 0.9-4.4-4.9-1.6 1.1-5.3-3.6-1.2-2.3-4-0.2-3.8 3.8-7.2 2.6-1.8-1.5-1.4-0.2-0.1 1.8-2.1 0.9-3-2-4.3-11.2-4.7-4 0.3-7.6h-1.5l-6.1 4.7h-3.7l-3-5.5-2.1 0.3-1.8 2.7v4.3l-6.9 4.5-1 2.1-2.6 1-5.8-5h-2.6l-1.8-2.5-2.9 3.1-3.4 0.3-2.3 4.6h-5.3l-2-3.2 5.7-3.3-8.3-2-0.3-6.3-3-3.3 3.6-1.7v-3.6l-4.6-1.7-12.9 2.7-9.6 6-4-0.4-0.3 2 3.3 1.3 5.6 7.7-1 2.6 1 2.3h-6.3l-6 4.3h-3.9l-1.7 2 1.7 2.3-2 2.4-6.6 0.6-1 3-2-3.6-2.3-0.4-4.4-3-1.3 3.7-2.6-3.7-4.7 1-2.6 2.7h-2l-1.7 4 4.3 5.3-2.9 0.3-0.7 4.3 4.6 6 3.4 1.3 3.6 6-2.9 3.5-5.2-5-0.4-3.9-2.6-1.1-7 2-2.4 2-2.5-0.1-1.6-2.3-4.6-3.7-3.8-0.1-3.5-7.7-0.7-4.7 0.8-0.8 0.7-3.5-4.1-2.5h-4.1l-1.3-5.2h-2.4l0.5-2.1 1.6-1-0.5-4.5-5.9-3.8-3.6-0.5-4.4-9.2-2.4-1.1 0.3-6.8 1.8-0.4v-1.5l-2.4-2h-2.5l-1.1-1.5-1.3 1.3h-4.3l-0.3-1.4h-1.5l-0.7 1.7h-6.3l0.5-2.6-3-3.9-2 3.1-3.2 0.6-1.5 2.1-8.1 0.5-2.9-5.9-0.8-9-1.6-2.2h-1.9l-0.5-6.1-2-1.8-2.2 1.9-2 0.1-1.5-1.3v-1.4h0.7l2-5 3.2-1.2 0.2-4.2-2.3-2-0.3-3.1 1.3-0.7 0.3-3.2-2.3-2.8-0.4-2.3 1.6-0.1 1.1-4.5-1.5-1.3-1.3-5.3 1.4-0.8 0.4-3.9-2.8-2.7-1.6 2.2h-1.7l-1.5-2.5 0.4-1.1 1 0.5 3.6-6.2 6.2-3 1.3-3.9-1.5-0.5v-0.6l2.3-1.3 2.7 0.6 2.5-3.2-4.9-7.7-1.6-7.4-3.8-4.9-1.7-3.9 1.8-0.6 0.1-1.9-1.9-2.5-2.7-0.1-9.8-7.5-2-6.8 2.7-0.5 0.3-1.6-3.8-10-2.3-23.4-6.5-14.2-4.5-6.2 8-4.4 3.1-2.7 3-1 12.1-5.8 5.6-2.7 1.8-0.2 1.7-2.2 6-3.3 4.8-4.6 5-0.4 6-2.8 9.2-4.9 5.4-4.4h3.3l1.4-2.8h2.2l9.6-6.3h2.8l2.5-2 1.1-1.8 1.9-0.6 11-5.2 4.6-0.9 7-7.2 2.2 0.2 4-3.1 4.3-2.9 0.3-1.3 1.9-1.3 2.4-0.2 2-3.1 7.3-6.1 1.7-0.5 11.1-5.6v-2.1l4.8-5.1 5.1-0.2 1.3-0.9 8.3-3.1 2-2.6h2l8.9-5.5 0.5-1.9 7.5-4.7h1.3l6.1-5.2 9.6-5.5 10.3-7.7 4.2-5 11.4-5.1 11.2-4.3 10.8-4 5.6-3.9h2.3l1.6-5.2-3.9-5.4 0.2-2.6 3-1.2 1.1 2.9h2.5l-1.6 2.2 0.8 1.4 4.6 1.9 2.8-2.4 0.9 1.2-5.7 2.8 0.2 2.6 4.7 0.1 1.6-3.8 4.2 0.5 2.8-4.3-2.1-2.5v-3.8l4.7-1.1-1.1 2.9 1.4 4.5h2l4.1 1.3 2.6-2.4 2.1 1.2 0.6-1.2h5.8l4.7-1.1 0.4-0.9 7.3-2.4h3.8l8.2-2.5 4.5-2.6 5.4-1.2 1.1 1.4 1.1 0.2 0.1 1.1 1 2 1.7 1-0.1 2.5-1.1 0.6 0.2 3.4 2.9 4.7 1.1 0.4 1 1.8-0.2 4.7-1.1 0.2-2 4.3-3.6 2.3-2 3.9-1.6 0.7 0.4 2 3 1.7 1.2 2.9 3.3 2.2-1.2 0.4-0.8 2-2.7-0.6-1.2 1.7 3.4 4.5 2.8 0.9 0.5 2.3 1.7 1.4-1.7 0.6-0.2 1.3-0.9-0.1-1.7 1.5 0.6 1.4 0.7 0.4 1.3 1.9 0.7 0.6 1.3 1.1 0.2 2.7 2.2 6.8 1.8 2.3 1.2 5.5-0.1 5.2-5.5 1.8-3.5 1.8-3.4 2v2.2l1.6 1.8 2.9 0.9 2.8 10-0.1 1.5-1.1 2.1-1.5 0.2-0.5 1.8-1.5-0.2-0.6-1.2-0.6 1.4-2.2 0.1-0.1 2-1.5-0.2-0.8 1 0.2 1.3 1.1 0.1 1.1 2.5 1.7-2.6h2.8l4 1.2 0.3 4.1 2.9 2.5 1.1 5.4 3.6 3.9 0.2 2.2 1.3-0.5 1.1 1.5-1.4 1-1.2-0.7v2.4l-1.8 0.6-0.1 1.6 1.3 0.6 0.9 1.8v1.1l-1-0.5-0.9 0.3-0.4 2.3-1.6 1.2-2.1 6-1.6 1.4-1.9 0.4-1.7 1.5 1.6 1.2-0.8 0.4-0.7 1.6h-1l-1 1.4 1.4 0.9-3.9 2.7-3.1 0.3-2.1 2.7-5.8 3.5-2.5 0.9-1.4 1.5 0.9 2.2 6.3 3.2 3.4 3.9 6 1.4 0.5 1.3 5.1 3.6 2.3 5.3c0 0 3.2 0.5 3.7 0.6 0.6 0 6.3 3.6 6.3 3.6l3.1 0.5-1.4 0.9 0.2 3.2 6.3 1.3 0.3 1.8 2.6 0.2 1.5 1 0.3 2.1-1.8 2.4-1.2 0.3-0.6 1.4-4-0.5-0.4-1.2-0.8 0.7-0.2 1.3-1.3 0.9 1.9 0.5 2 2.5 0.6 4.3 0.7 0.3 1.9 4 3.7 3.5 0.9 4.4 2.1 1.6-2.5 1.9-1.5 2.3 0.3 1.8 1.7 0.3-1.9 2.8-1.4-0.5-2.6 1.9-1.3 3.9-2.3 1.3v2.8l1.3 3.5 3.5 1.9 1.1-1 1.3 2-2.9 2.5-2.7 0.1-2 2.2-3.9 0.7-1.5 2.4 3.2 3.5h2.3l2.1 2.6 2.7-2.4h5.5l1.3 2.6 3.7 0.8-0.6 1.9h-3.6v-1.6h-3.7l-2.1 2.4 0.2 2.3 6.6 1.3v2.9l-2.1 2.4-3.7-0.3-2.1-3.4-4.4 0.3-1.4 4.4 4.3 4.2-3.7 6.1h-2.4v5.5l2.6 2.9h5.8l6.3-6.3 3.4 0.2 2.1 3.2 4 1 1 2.1-3.9 3.7v2.4l2.1 0.8v2.3l-1.6 1.3-0.5 4.2h-5.5v4l-1.3 1.5 5.7 4 0.3 5.8 1.6-2.1 2.9-2.1 3.1 0.5v2.4l2.6 2.1v3.6l3.2 1.6 1.3 4.2 3.1 0.3 2.7 2.1-3.7 2.9-4.5-0.3 3.2 3.7-0.8 1.8 4.7 5.8 3.7 2.6-0.3 4.5-4.2 3.6-5.5 0.6-5.8 4.7-1.5 6.3-7.6 5.5-2.1-1c0 0-0.6-1-0.6-1z"/>
		<path id="path4224" class="s1" d="m718.6 110l2.6 1.5 5.9 1.9 5.3 6.9 0.3 9.8-1.7 1.2-1.2 3.7 3.1 8.2 6.9 5.5 6.3 0.7 5.7 4.5 0.5 3.7-1.8 4.7-6.6 6.2-1.2 2.8-2.9 0.1-0.3 2.9-1.1 0.9 0.6 1.9 2.3 1.7 1.7 12.5 4.6 10.8-2.9 1.7 0.4 3 1.3 1.9 2.2-0.1 0.9-1.8 2.3 4.1-0.3 5.8-1.5 1.2 0.6 2.4h3l2.4 1.2v3.9l-1.7 1.9v2l1.3 1.6 0.5 18.5-2 5.8-5.8 5.4-16.1 1.3-6.7 5.4-8.1-0.6-1.4-1.3-6.3-3-3.9 0.2-4 5.8-5.5 6-4 0.9-2.5 5.3 0.9 4.1 5.2 2.4 1.3 3.6-1.9 10.9 1.4 3 1.2 0.1c0 0 0.3-0.3 1.4-2.1 1.1-1.8 2.9 1.1 2.9 1.1l-0.4 3.5-1.5 0.2-0.9 2.8-2.8 1.2-0.3 5.3 3.6-0.1 4 5.1 6.4-1.6 0.4-2.4 3.6-2.5 1.5-0.2 2.3 2.4-0.4 4.3-1.6 1.9 2.3 4.6-3.2 3.7h-2.8l-0.7 1.5 4.4 4.6-0.5 3.7-4.3 4.6-0.4 2.9h-1.4l-2.5 1.9-2.6-1-2 4.2-2.6 0.6-8-1.7-3.6-4.2-3.5 0.9-1.8 3.7 0.5 3.8-4 4.8-1.8 3.5 5 4 1.4 6 3.2 0.7-1.8 1.9 0.7 1.2-2.8 1.3-0.4 3.3 2.5 2.7 0.4 1.3-2.9 0.6-1.2 2.5-3.6 1.4v2.8l-1.7 0.6-7.7-2.7v-1.5l-8.3-2.7-1.1-2.5-1.4 0.6-2.1 3.8 0.9 6.2 2.8 2.5-0.4 2.6-6.2 5-1.7-0.5-2.2 1.3 3.2 6.3 2.7 0.6v5.6l-2 2.1 1.5 1.2-3.8 3h-1.6l-3.5 3.9-0.4 4.2-2.8 3.6 1.6 2.9-5.2 3.8-0.8 1.3-2.2 0.2-0.2 1.7 3.2 5.3 2.3-2.9 6.1 1.6 0.9 5.1 1.7 3.3-0.3 5-1.3 1-4.6 12.6-4.4 4.5-2.6-0.7-3.3 5-3.4-2.9-1.5 0.4-4 6.1h-2.4l-2.6-5.1-1.7 0.1-3.9 7.9-8.4 0.1-0.1-1.7 1.8-1.6v-2.3h-4l-1-2.7h-1.3l-1.2 1.6h-2l-4.2 4.4-0.6 3.2-2.6 5.1v6.4l2.5 2.3 0.3-2.2 1.9-0.1 2.1 1.4-2 0.8 1.4 0.8v2.9l2.4 0.8 0.4 3.5-2 1.2-1-0.5-1.9 2.9-1.6-2.1h-4.8l-1.4 1.7h-2.1l-1.4-2.1-2.9 2.5-2.3-2.5-2.6-0.3-1.2-2 1.6-0.6 0.1-2.3-3.4-2.8-1.4-4.9-2.8-0.2-1.1 2.4-4.8-0.1-2.7-2.2-1.1 1.8h-2.1l-2.7 1.4-2 2.7-9.5-2.6-0.5-2.5-13.5-1.1-1.2 2.2-2.3 0.2-2.3-8-5-4.8-1.4-4.3 1.8-1.4-0.1-3.4h-1l-3.5 3.2-1.7 0.2-2.5 3.3-6.5-0.1-1.7 1.9-2.9-2.1 1.4-1.4-1.7-2.3-0.6-0.3 1.5-1.7-0.7-2.6-4.5 5-5 0.7-0.9 1.5-2.7-0.3-0.5 3.9-4.2 2.4 2.4 1.4-0.2 2.1-2.3 2.3-3.7 0.2-1.1 5.4-5.7 5.3-0.4 10.1-6.1 0.2-5-3.8-1.2-3.1h-3.1l-1.1-1.2h-1.7l-1.9 2.9h-12.7l-0.4-2.4-8.2-0.2-0.1-1.1 1.4-1.6 0.1-5.5 1.5-0.6 0.3-0.8-1.4-0.9-1.5-3.8-2.4-0.9v-4l2.3-0.7-3.7-2.1-10 5.6h-4.4l-2 1.8-1.3-2h-4.6l-4.5-4.1-2.1 1.8-0.9-1.7h-0.9l-1.4-4.3 0.6 1 2.1 1 7.6-5.5 1.5-6.3 5.8-4.7 5.5-0.6 4.2-3.6 0.3-4.5-3.7-2.6-4.7-5.8 0.8-1.8-3.2-3.7 4.5 0.3 3.7-2.9-2.7-2.1-3.1-0.3-1.3-4.2-3.2-1.6v-3.6l-2.6-2.1v-2.4l-3.1-0.5-2.9 2.1-1.6 2.1-0.3-5.8-5.7-3.9 1.3-1.6v-4h5.5l0.5-4.2 1.6-1.3v-2.3l-2.1-0.8v-2.4l3.9-3.7-1-2.1-4-1-2.1-3.2-3.4-0.2-6.3 6.3h-5.8l-2.6-2.9v-5.5h2.4l3.7-6.1-4.3-4.2 1.4-4.4 4.4-0.3 2.1 3.4 3.7 0.3 2.1-2.4v-2.9l-6.6-1.3-0.2-2.3 2.1-2.4h3.7v1.6h3.6l0.6-1.9-3.7-0.8-1.3-2.6h-5.5l-2.7 2.4-2.1-2.6h-2.3l-3.2-3.5 1.5-2.4 3.9-0.7 2-2.2 2.7-0.1 2.9-2.5-1.3-2-1.1 1-3.5-1.9-1.3-3.5v-2.8l2.3-1.3 1.3-3.9 2.6-1.9 1.4 0.5 1.9-2.8-1.7-0.3-0.3-1.8 1.5-2.3 2.5-1.9-2.1-1.6-0.9-4.4-3.7-3.5-1.9-4-0.7-0.3-0.6-4.3-2-2.5-1.9-0.5 1.3-0.9 0.2-1.3 0.8-0.7 0.4 1.2 4 0.5 0.6-1.4 1.2-0.3 1.8-2.4-0.3-2.1-1.5-1-2.6-0.2-0.3-1.8-6.3-1.3-0.2-3.2 1.4-0.9-3.1-0.5c0 0-5.7-3.6-6.3-3.6-0.5-0.1-3.7-0.6-3.7-0.6l-2.3-5.3-5.1-3.6-0.5-1.3-6-1.4-3.4-3.9-6.3-3.2-0.9-2.2 1.4-1.5 2.5-0.9 5.8-3.5 2.1-2.7 3.1-0.3 3.9-2.7-1.4-0.9 1-1.4h1l0.7-1.6 0.8-0.4-1.6-1.2 1.7-1.5 1.9-0.4 1.6-1.4 2.1-6 1.6-1.2 0.4-2.3 0.9-0.3 1 0.5v-1.1l-0.9-1.8-1.3-0.6 0.1-1.6 1.8-0.6v-2.4l1.2 0.7 1.4-1-1.1-1.5-1.3 0.5-0.2-2.2-3.6-3.9-1.1-5.4-2.9-2.5-0.3-4.1-4-1.2h-2.8l-1.7 2.6-1.1-2.5-1.1-0.1-0.2-1.3 0.8-1 1.5 0.2 0.1-2 2.2-0.1 0.6-1.4 0.6 1.2 1.5 0.2 0.5-1.8 1.5-0.2 1.1-2.1 0.1-1.5-2.8-10-2.9-0.9-1.6-1.8v-2.2l3.4-2 3.5-1.8 5.5-1.8 0.1-5.2-1.2-5.5-1.8-2.3-2.2-6.8-0.2-2.7-1.3-1.1 0.6-1.2h1.5l1.1 0.9 2.6 5.1 4.1 2.2 0.2 2.3 2.1 1.5 1.9-2.9 4 3.4-0.1 3.9 1.3 2.5 7.3 1.9 6.1 0.2 28.3-3.1 0.2-1.2-4.2-23.6-1.1-0.6-0.1-0.7 1.5-0.3 1-1h2.8l1.9 1.3 0.6 1.7 2.6 0.6v-3.5l1.6-2.4h2.2l0.9 1h2.1l1.6-4 1.3-0.5 0.4 1.5 4.3 4 2.3 0.5 0.7 0.7 0.1-2.8 2-0.1 0.6-0.9-4.2-4 2.3-1.8h1l1.1-3.3 4.2 3.8 14.7 6.9 0.8 1.1 1.8 0.7 1.5-1.6 5.9-0.1 6.1 3.6 1.5 2.5 4.9 0.9 8.6 5 5.5-0.2 1-1.7 0.7 1.3 10.9 1.4 3.9 6.1 2.6 1.7 0.4-1.2h0.7l1.4-2.7 0.2 1.5 2.6 0.5 2.5 2.9 3.3 0.8v1l-2 3.5-0.4 10.3-0.6 0.4-0.6 3.1 1.2 1.5 0.4 6.8 3.7 3.2 1.3 0.1 0.6 0.9 1-3.5 0.7 0.9 5.2 2.4h3l2.5-2.4 2-0.7 0.3 1 5.5 0.5 2.2 0.8 1.8-0.7 5.1-4.4 5.7-2.4 2.6 1.8v1.9l-4.1 4.2-2.1 0.3-0.7 1 1 1.2 1.9 1.2 0.6 1.8 1.1 0.5 0.8-0.9 8.2-1.6 2.8-2.4 0.9-5 2.6-0.9 1.7-2.5 0.9 1.3 1.1 4.4 1.9 0.3 1.1-1.8 4.9-1.7 0.9-0.1 0.2 1 1.3 0.3 2.3-5.4 2.6-1.3 4.4 0.3 1.2-5 5.6-3.2 5.8-5.1 3.6 0.1 2.1 2.7 1.4-1.4 2.2-0.3 1.2-2.1 1.1 2.1v1.2l3.3 0.6 1.1-1.4 2.3 0.4 2.9-0.5 3.7-4.2 10.1-6 30.6-21.9 1.9-2.9 21.2-26.4c0 0 7.1-10.3 7.1-10.3z"/>
		<path id="path3107" fill-rule="evenodd" class="s1" d="m172.5 520.5l1.7-2.3 4.3-0.4v-1.6l-3-3v-4.3l2.3-0.4 5.3-6.2h2.7l1.3 4.3h4.6l1-4.7 7-3.6 8.3-9.3h1.9l5.7-3.3-8.3-2-0.3-6.3-3-3.3 3.6-1.7v-3.6l-4.6-1.7-12.9 2.7-9.6 6-4-0.4-0.3 2 3.3 1.3 5.6 7.7-1 2.6 1 2.3h-6.3l-6 4.3h-3.9l-1.7 2 1.7 2.3-2 2.4-6.6 0.6-1 3-2-3.6-2.3-0.4-4.4-3-1.3 3.7-2.6-3.7-4.7 1-2.6 2.7h-2l-1.7 4 4.3 5.3-2.9 0.3-0.7 4.3 4.6 6 3.4 1.3 3.6 6-3 3.6 1.7 2.6h5.6l2.7-1.3 4.6 8.3 4.6-0.3v-7h5.3l3-3.3zm686.5 122.7l-3.8 0.5-10.3 5.8h-5.3l-3.2 3.6-3.6 0.1-0.5 1.6-4.5-3.1v-6.2l-5.4-0.2-1.3 2.7-3.1-0.1-0.3-1-3.4 2.5-0.5 2h-2l-0.3-3 2.2-2.6-1.4-1.1-0.5-3.4 1-3.5 4.4-0.5v-2.1l-2.7-1-0.2-1.5-4.8-0.3-2.4 2.5-1.9-0.3v-1.4l-2.5-2h-6.9l-0.3 1.7-2-1.5-0.9-2.9-4.2-1.2-0.6 1.4-10.5 0.2v2.6l-2.8-0.1-0.5-1-5.9 0.1-0.5-1.6-1.5 1.3 1.6 1.5-1.1 2.5-0.5-0.6-5.6 2.8 1.7 0.7 0.2 1.5-3.4 4h-2l-0.4-1.8-3.5-2.5 1.2-1 2-0.2v-2.9l1.5-0.6-1.3-0.7-0.2-2.7 1.4-0.7v-4.2h-4.1l-1.7 1.4-2.3-0.2v-1.2l-2 1.4-2.9-0.7-2.7-7.4-5.2-4.5-0.2-2.6-3.2-3.2h-4.2l-1.3 1h-4.6v-1l-2.1-0.6 0.3-1.5 0.7-0.6 0.3-4.7-1.7-1 0.2-3.8 2.3-1-0.3-1.6-7.7-4.3h-8.1l-6.1-1.2v-1.5l1.2-0.7v-1.8l-2.3-1.7 2-2 0.5-3.2 1.5-1.2-1.2-4.4-7.5-5.5-0.4-1.9-2.8-0.2-4.1 3.6-1 4.2-7.9 6.7-0.3 3.2-1.9 2.9h-3.2l-0.8 0.6-4.2-1.1-0.8-2.1h-1.9l-0.3 1.5h-2.4l-3-3-1.9-9.1-1.5-1.7 1.8-0.3 1.4-2.8-0.3-6.2c0 0-2.4 0.1-2.5-0.3-0.1-0.4-0.9-1.7-0.9-1.7l2.5-2.4v-2.2l-1.6-0.7 2.1-7.2h1.2l-0.1-2.4-2.5-1.2-1.7-3.6 2-1.3 1.6 0.1 2.7-1.9 1.6 1 1.2-0.5-1.8-2.2-3.1 1.6-0.8-1-1.9-0.2-1.7 1.3-1.9-3.9-2.3-0.3-2.5 1.4-0.3-1.4-1.4 0.7-1.3 3.3-2.9 3.8-0.3 3-1 1.2-1-2.8v-1.9l-0.9-1.4-4.9 2.2-3.6 4.2h-3.2l-1.7-1.7-1.6 2.4-1.9-4.3-3.5 0.3-5.3 6.6-22.5-1.2-2.8-0.8v-2.8l-2.1 0.1-2.4 3-3.8-0.5v-2.6l1.6-0.4v-1.8l-4.6-4.1v-2.8l-5.1-0.2-1.4-1.1 0.1-2.9h1.5l1.7-7.9 0.9-0.4-1.8-1 1.2-1.3-1.2-1.9 1.6-0.6 0.1-2.3-3.4-2.7-1.4-5-2.8-0.2-1.1 2.4-4.8-0.1-2.7-2.2-1.1 1.9h-2.1l-2.7 1.3-2 2.8-9.5-2.7-0.5-2.5-13.5-1.1-1.2 2.2-2.3 0.2-2.3-7.9-5-4.9-1.4-4.3 1.8-1.4-0.1-3.3h-1l-3.5 3.2-1.7 0.1-2.5 3.3-6.5-0.1-1.7 1.9-2.9-2 1.4-1.4-1.7-2.4-0.7-0.3 1.6-1.6-0.7-2.7-4.5 5-5 0.7-0.9 1.5-2.7-0.2-0.5 3.9-4.2 2.3 2.4 1.4-0.2 2.1-2.3 2.4-3.7 0.1-1.1 5.4-5.7 5.3-0.4 10.1-6.1 0.2-5-3.8-1.2-3h-3.1l-1.1-1.3h-1.7l-1.9 2.9h-12.7l-0.4-2.3-8.2-0.3-0.1-1.1 1.4-1.5 0.1-5.6 1.5-0.6 0.3-0.8-1.4-0.8-1.5-3.9-2.4-0.8v-4.1l2.3-0.7-3.7-2.1-10 5.6h-4.4l-2 1.8-1.3-1.9h-4.6l-4.5-4.2-2.1 1.8-0.9-1.7h-0.9l-1.4-4.3-1.2 4.2 0.4 2.9-3 1.4-0.9 1.9-2.2-2.2-1.4 1.6h-1.8l-0.8 1.1 1.5 0.5 0.4 4.1-1.8-1.6-4.2 4.3-0.7-2.1-3.9-0.2-5 10.7-8.8 3.6h-3.5l-3.2 9.7h-1.1l-2-2.1-8.4-2.3-1.4-2.8-1.6-0.2-0.2-1.1 1.8-1.2v-4.7l-5-6.3-2.3-6.1-3-2.1-5.4 3.6-2.3-1.9-11.5 0.8-4.4-4.9-1.6 1.2-5.3-3.7-1.2-2.3-4-0.2-3.8 3.8-7.2 2.6-1.8-1.5-1.4-0.1-0.1 1.8-2.1 0.8-0.2 1.1 3.8 3.4-1.5 1.5 1.3 2.8 6.2 5.4-3 3.2-1.3 0.5-0.7 2.4 4 2.6 3.9 0.2 0.8 1.2-2.1 1.5-0.1 3.2 1.3-1.8h2.3l0.8 1.1 2.3 1 1-2.1h3.9l0.8 2.2 1.9-2.5 1.1 0.2 3.5 3.5v2.3l4.9 2.5-2 1 0.2 4.4-1.6 0.1-0.4 3.9 3.1 3.4 0.4 1.5 1.4 0.4v1.1l-1.8 0.3-8.7 5.4 0.4 7.5 1.8 2.7 1.6 5.7-2.1 0.5-0.3 2.5 2.4 0.8 4.1 6.5-0.9 2.2-1.6 0.3 4 3.2 4.6 9.5 1.7 12.9-2.4 1.2 1.3 1.6 1.4 0.2 1.7 3.9-2.3 1.1 0.2 5.3 2.6 0.5 0.4 1.6-3.2 0.9-0.1 2.5 1.2 0.7 0.4 1.3-1.7 0.3-0.3 2.6 2.4 1-0.4 3.6-2.3 0.9-0.2 0.8 3.7 1.4 2.4 6.6 5.5 4.2 6.9 2.1 3.6 2.8-0.2 2.6 2.6 1.7 0.4-2.2 1.1-0.1 0.9 1.8 9.4 2.3 4.1 5.1 0.7 2.9 1.3 0.9 0.1-1.6 5.7-3.5 4.2-0.1 4.4-2.9 2.6 0.2 5.5-2.6 0.6-1.9 1.4-0.2 0.7 1.4 3.8 0.4 1.6-1.7 2.1-7.4 7.2-7.9 4.3-0.1 0.7 1.6c0 0 6.9 0.3 7.3 0.3 0.3 0 6.3 3.3 6.3 3.3l0.7 6.9-8.7 8.4-0.4 8.2 2.2 2.1v-2.4l8.2-4.1 17.1-1.4 1.2-2h2.2l0.1 1 4.1 5.2c0 0 3.3 0.9 3.8 0.9 0.4 0 3.8-3.7 3.8-3.7l1.7-0.2 1.7-2v1.5l3.1 2.6 1.5 3.8 4.3 2.5 2.2 5.1 0.3 2.7 3.9 4.5 4.2 0.8 2.8 3.1-0.8 7.3 1.7 3.9 1.3 0.7 0.6 10.6 1.5 2.1 1.7 12-1.8 1-0.6 4.3 2 2.4-2.7 1.7-1.7 7.6-1.7 0.4-1.1 1.8 0.2 3.3 4.2 3.2 0.2 7.6-1.7 1.1-0.6 2.2 2.1 2.3 4.2 0.3v2.2l-1.9 1.8 1.9 2.3-0.1 2.8 2.9 0.2 0.6 2.2 2.7 1.6v0.8l-1.6 0.9-0.1 0.8 2.6 0.8 0.1 1.5 4.2 3.3 1.4 3.6 1.7 1.2 1-2.8h1.2l0.2-2.1-3.7-3.8 0.6-2.8 2.3 0.1 0.4 1.5 1.5 0.7 0.1 2.8 1.4 1.8 1.4 0.1 1.5-1.9-2.4-1.1 0.2-2.1 1.9-0.3 0.5-3.4c0 0-1.9-1.4-2-1.8 0-0.4 0-2.7 0-2.7l3-1.9 0.3-4.7-1.2-1.2 2.2-3.7 4.1-1.3-1.2-1.3 2.1-0.8 2.5 2.5 3.6-0.8 0.1-2.1 1.2-0.4 1 1.8 1.5-1.8c0 0 7.8 0 8.7 0.1 0.9 0.1 1.1 2.2 1.1 2.2l2.8-1.5 0.4-2.2 4 2.1 0.6 4-1.9 0.9 0.9 1.1 4.1-2.7 0.9-3.3 10-1.2 3.9 5-0.1 3.8 3.7 0.1 1.8 3.3 3.6-1.3 0.8-0.9 0.9 1.1-0.9 0.8 1.1 0.1 0.2 4.7-1.3 0.7 0.5 1.1h0.9l0.6-1h2.2l1 1.3 3.2-0.1 0.9-1.3h1.4l6.2-4.2h2.1l0.9-2.2 1.9-0.2 1.4-1.3 5.1-1.5 3.5-2.4 1.5-1.4 1.3 0.1-0.1 2.6-1 1.2 0.4 1.8 1.2 0.2 0.8-3.4 0.9-0.7 3.3 1.3 1.4 1.6h0.8l0.4-2.2 2.3-2.1h1.6l1.3 0.6 0.5-1.4 6.8-1.3 0.3-1-1.3-1 1.2-1.2h2.3l0.6-1.1 4.2 6.6-0.9 1.2 1.2 0.6 0.6 2.3c0 0 3.1 1.9 3.3 2.1 0.3 0.1 2.8 0 2.8 0l0.4 2.4 3 2.6 1.8 0.1 1.5 4.5 3.2 1.3 1.8 1.8-0.2 6.2 1.8 0.3 3.3-2.2h0.9l1 1.4 1-1.5 2.8 2.8 0.7 3.6 1.8 1.1 1.7 0.2v-1l1.8 0.3v2l1.7 0.7 1.9 6.2-1.8 6.3-1 0.3v1.3l1 0.7 0.3 2.5 1-1.8 3.6 0.1 0.4 2.6-1.3 0.5v2.9l2.1 0.7-0.2 2.3-0.7 0.1-0.3 1.8 1.4 1.3 1-1.8 2.8 0.2 1.1 1.2 5.7-0.2 0.2-1.7 1.8-0.8-0.2-4.4-2.3-1.3-0.1-1.9-3.6-0.2-1.5-0.9 0.1-2.9 1.3-0.8 0.3-2.5 0.7-1.3 2.3-0.2 0.2-1.2 1.3-0.9 1.2 0.6 0.3 1.7 1.2 0.8 1.7 0.2v4.9l1.9 1.4 4.8-0.1 1.1 1.5 1.2-1.4h2.8l2.5 1.4 2.8 6.9 1.8 2-0.3 4.3-3.4 4.4-2.8 0.9-1.2 2.2-4.1 0.5-0.4 1.4-1.5 0.6-3.4 4.5-0.8 4.1-2.3 2.9 0.1 1-0.7 0.7-1-0.7-2.3 2-3.5-0.1-1 1-0.2 3.6 1.8 2.8 1.3 0.3-0.1 5.9-1.1 0.7 0.2 4.1-2.1 3.8-0.8 0.4v4.6l1.9 0.9 0.4 2.2-1.5 5.6-3.3 2.4-1.3 2.3-1.6 0.5-0.1 6.2-2.7 0.9-0.1 2.3 2.3 2.7 4.3 1.1 0.9 1.8 3.8-1.3 0.1-4.3 5.7 0.2 1.6 1.8 6.9-0.6 1.3-1.5h2.1l1.4 1.5-0.8 1 0.5 2.4 1.9 0.9 0.1 8.7-3.1 2 0.6 3.2 1.7 0.9 2-1-1.5 2.3-2.1 1 3.6 2.6 2.5 0.6 1.1 5 3.2 2.2 0.5 3.9 3.6 3.9-0.9 2.5-2 0.4-0.4 2.5-1.5 0.3-5.5 4.7-2.3-0.9-3 1.5-0.2 3.3-3.6-0.1-1.2 2.2-2.8 1.4-3.1-0.5-0.7-1.2h-2.3l-2.8 1.6-4.4 11.9-4.7 4.4 0.2 6 3.5 2.1 2.8 5.2 2.2 0.6 1.1-2.8 2.4 2.4-1.4 6.4-2.2 0.9-3.2 6.1-2.2 1 3.2 2.5 4.8-0.2 1.3-1.6h3l1 2.7 2 1.6 1.6 0.4 4.3 2.7-1.4 2.2 1.5 1.8-2.3 1.4 1.2 2 2.7-1.7 8.8-1.2h1.7l2 2 4.5-2.9 8.5-2.6h5.6l1 1.4 1.8-1.4 2 1.2 7.7-3.1 2.6-1.6 3 4.1h7.9l0.1 2.6 2.7 0.8 2.1 4.7 12.7-0.4 0.9-1.1 4.2 3.8 1.9-1.4 10 2 2.1 1.8 4.4 1.4 0.5-1.9 2.5-2 1.4-4.5-2.3-7.7-9.1-13.4 0.4-3.4-2.5-2.2 0.5-7.5 1.3-1.2-5.1-18 0.5-2.3 1.6-1.7-1.2-3.6-3.1-1.8-2 2.6-1.7-3.2 1.8-3.4-0.4-2.2-2.3-1.8v-1.6l1.5-3.1v-6.3l-2.9-20.1 6.6-7.1 0.3-0.9-7.9-7.7 0.1-1.2 1.8-1-1.3-7.4-3-0.8 0.2-2.2-1.9-1.7-3.3-0.3-0.3-6.4-1.3-0.5 1-2.2 5.1-0.9 5.2-4.1 2.3-0.1 1.5-3 0.2-4.6-1.4-1-1.9-0.1 0.2-1.3 1.6-0.3-1.3-0.7-0.3-3 1.5-1-0.4-3.7-1.3-0.2 0.1-0.9 1-1.4 2.3-0.2-0.1-1.2-1.4-0.8 1.4-0.7-0.1-1.3-1.4-0.5 0.6-2h0.9v-1.1l-0.8-0.4 1.5-0.6 0.3-4-3-0.2-2.3-1.9 0.5-2.1-5.3-0.1-1.3-1.8-2.2-0.5v-0.6l-2.7 1.7-0.9 3.5-5.1 3.7-0.6 1.8-0.8-0.6-6-3.6-3.5-0.3-5.8-3.6 0.4-1.6h-3.1l-0.6-1.2-2.3-2.2v-1.7l-3.2-0.5 0.1-0.6 1-0.3 0.2-3.6 2.4-1.3 0.9-2.5 1.7-0.9h1.7l0.1-1.5 2.2-2.1 0.4 1.4 3.5 0.1v-0.7l-1-0.8 0.7-0.8 1.4-0.5 2.5-0.7 0.7-2.2 3.4-0.1 0.8 1.8 1.3-1.6h4.8l0.2 1.6 2.2 0.1 0.7-4.6 4.3-3.2-1.9-1.2v-1.2l1.6-1.5 2.7 0.1 0.4 1.6 4.1 0.3 3.4-3.7 3.4-6.2-1.3-1.4 0.2-2.7h0.8l0.6 1.1 5.4 1 1 1h2.2l0.8-1.7 2.1-0.1 0.2 1.2 2.5 0.3 1.5-1.1 1.1 0.4 0.2 0.7h2.9l0.6 1.5h1.5l0.1-1.9 3.2-1.3v-4.4l2-1.3v-4.2l1.7-1.9h2.2l1-1 1.5-0.1 0.6 1.6 1.1-1.5 5.4 0.1 1.6 1.2-0.2 3.6 2.2 0.3 2.7 1.4v3.2l3.1 0.8 0.4-1.8 14.5-3.4 1.1-1.8h1.4l0.7 1.4 9.1-0.4 1.1-3.3 0.1-8.3-2.1-1.6h-2.1l-0.3-1.6 0.9-0.8v-2l2.1-0.5-1.6-2.5-1.5-0.7 0.4-7.3 5.5-4.3 0.2-3.1-1.4-0.8v-1.4l1.7-1.1 2.5 0.3 0.7-4.1-1.1-1h-2.5l-3.9-2.7-0.4-2-0.7-0.6 0.1-1.1h3.6l2-3.2 1.1-0.3 1.4 1 0.1-3 1.7-3 0.3-6.3 1.1-1.9h2.1l0.4-1.4-1.2-0.6v-1.1l-1.3-0.7-2.1 3h-1.1l-1.5-1.6-1.4-0.1-2.4-2.4h-3.8v-2.2l2.1-1-1.9-1.4h-2.2l-1.9-2.1h2.3l0.5-1.7 1.4-0.5 0.2-1.7-1.3 0.2-1.1-2.7-1.5-0.1-0.6-0.9h2.1l0.5-1.2 3.5-0.4 0.5-5.3 3.9-6 0.1-4.6-3.1-3.8-1.9-5.6 1-0.8h1.2l0.8-1.4-1.1-1-1.8 2.1-1.5-0.7-1-1.8h-0.7l-1.1 1.5-1 0.4-3.9 4.9h-1.1v-2.1l-1.5-1.1 3-1.9-0.5-1-2-0.1-0.3-2.8-1.5-1.3 2.4-2.4 1.4-5.7 1.9-2.2 2-0.6 0.1-3.4 2.2-1.4 0.5-4.1c0 0-1-4.2-1-4.2z"/>
		<path id="path2428" class="s1" d="m1077.2 531.4l4.9 2.8h4.4l8.6 8.2h2.6l2.9-2.1 2.7 2.4 5.3-5.9 1.2-0.8-1.5-5.7-4.1-1.4 1.5-3.4h5.1l2.5 2.8 2.2 0.2 5-2.9 2.4-0.3 0.9 1.2 3.4-1.2 3.3 2.4 3.2 0.6 1.4-5.3 1.2-0.6 0.7 5.7 4.4 1.9 4.4-0.2 4.2-6.8 3.8-1.4 1.9 2 4.7 0.8 4.6 5.1 1.7-1.4-0.1-5.7 1.6-1.6 1.8 0.1 9.5-5.4 4.4-6.2 9.6-0.1 2 4.4 4.6-4.2 2.5-0.1-0.6 5.4 1.6 3 0.8-1.1h2l0.5 5.2 2.3 2.1 2.8 0.2 1.6 3 3.2-2.1h1.9l1.4 2.7 0.8-1.4 1.7-0.1 0.7-1.8 1.6-0.1 2.4 3.3 1.2-1.4 0.1-3.3 3.9-3.2 0.7 0.3 0.4-1.3-1.3-1.4-0.2-3.4 1.9-0.2 0.3 2.3 2.9 1.1 0.7 5.6 2.3 1.7 0.2-2.4 4.3-0.3 3.1-4h2.9l5.4-5 4-1.1-3.4-2.4 0.4-4.8 2.5-3.6 0.7 1.5 4.1-0.1 0.8 1.2h1.9l2.7-1.6 0.7-3.1 3.2-1.1 0.4 1.1 4.5-0.2 2.3-5.8 4.8-0.3 0.6 1.6 1.9 0.2 0.6-2.2 5.2-2.3c0 0 2.7-3.1 3.1-3.3 0.5-0.1 7.9-0.6 7.9-0.6l7.1-7.4 2-7.1 14 0.5 1.7-2.8-1.2-1.3-4-4-9.8-1.6-0.5-4.7-1.4-0.2-0.8-5.2-2.4-2.6-0.6-2.7-2.6-3.2 0.1-0.6 1.3-1.1-0.1-3 1.2-1.8-1.5-1.1 1.1-1 0.1-2.9 2.7-2.4 0.5-0.8-2.6-1.2 0.5-0.9 8.5-4.6 5.9-1.6 2.1-5.5 4-2.5 2-5.3-0.1-2.5-1-0.5 1.1-1.1 2.3-2 3.3-0.2 1.8 2.1 2.8 0.1 1.8-0.9 0.7-9.3 6.6-7.7 0.5-3.7 2.9-4.7 1.2-0.1 2.3-1v-3.9l-1.7-0.1-2.3-4.3-1.7 0.1-3.7 5.5-4.7-0.4-1.8-2.7v-4l5.5-4.7 0.3-1.9c0 0 1.3-2.2 2.3-2.5 0.9-0.4 4.8-2.4 4.8-2.4l0.7-3.8 5.8-6.3 1.1-4.4-1.2-1.1 0.2-3.2 4.1-6.5-0.5-3.2-2.6-2.1-3.3-0.1-0.9-1.9v-3.2l2.6-3 2.8-7.8 0.3-5.6h4.3l5.2 2.2 3.2-1.5-1.2-6.4-1.1-0.8 0.9-1.8 2.1-1.6 0.2-3-3.1-3-0.1-1.4-1-0.7 5.2-4.4h4l1.9 2.1h2.5l4-4.5-1.2-3.3-3.2-1.5c0 0-5.1-0.2-5.3-0.7-0.3-0.5-2-1.5-2-1.5v-3.8l2.2-3.9 2.4-0.2-0.3-1.4 2.8-3.9 5.2 0.4 3.5-1-0.9-4.8 2.8-3.1 3.4-0.6-0.8-1.4-2.8-0.7-4-3.9-1-2.7-2.9-4.2-1.5-0.3-0.3-2-3.9 2.9-0.9 2.9-3-2.2v-0.8l-1.8 0.7-1.5 2.9-5.6 1.5-0.2 1.5-2.4 1.7-3.2-2.9 0.2-1.5 3.1-2.4-0.8-2.1-1.2-0.8-0.8-0.8-1.1 1.9-0.8-1.8 0.9-2.5 2.4-0.7-0.8-1.1-1.4-0.9 1.7-3.3-4.9-3.2h-3.8l-2.7-3.3h-2.9l-4.9 2.6-6.9 0.1-3.7 3.2-2.4-2.3-3.7-0.1-0.6-0.7-2.5 0.1-0.8 0.8-1.3-1-1.3 1.8-3.2-3.1h-3.2l-1.1 1.2-2.2-1.1-1.4-3.1-1.2-1.3 1.6-0.7-0.7-2.6-11.4-4-16.2-7.8-10-3.1-2.6-2.8-2-12.7 1.4-1.2-0.4-8.2 0.8-2.2-1.4-3.3-8.5-6-8-9.2-1.3-3.3-10.3-3.5-2.9 0.7-2.3 4.8-6.5 5.3-6.1 0.3-3.2 0.9-0.6 3.1-3.4 1.4-5.6 8.4-2.2 0.3-17.2-6.1-9.2-1.7-2.8-0.2-0.7-1.1-1.9 1.6 1 0.7-0.2 2-5.1 5-6.6-0.8-0.5-1.9h-0.7l-2.2 2.3-5 0.1-0.4 1.6-1.3-1.3-12.5-2.4-0.2-1.4-7.9 3-2.8 1.5-5.9 7.5-1.4 0.5-1.9 5.6 0.3 17 1 1.8 2.1 0.8 1.8 3.7 1.3 1.1 2.7 0.1 3.7 5.5 6.6 7.3-0.2 25h-1.7l-5.7 5.5-3.4 3.1-2.4-0.2-3.9-4.4-6-0.3-0.2 5-3.2 5.6-6.7 3.8h-1.9l-0.9 1h-1.4l-0.8-1.5-8.3-0.3-1.2 1.6h-4l-0.6-1.4h-1.2l-1.1 1.1v3.6l-3.1 3.6-7.4 6.7-2.5 1.2-1.3 5.5-4.2 1.7-7.9 1.2-11.9 4.9-9 0.4-1.4-0.9-1.2 0.5-0.6 2.9 1.5 0.6-0.8 1.3-1.5 6.1-2.9 0.2-7 14.8-0.6 2.3 2.6 0.1 3.6-2.6h2.6l2.1-2.6h0.7l0.5 3.3 1.9 1.5 1.7 7.6 2.5 0.2 0.6-1.8 5.7-0.3 0.7-1.2 1.3 0.1 0.8 0.9 2-0.5 1.8 1.9 0.3 2.5 1.2 1.4 0.9-1h2.2l2.5-3h1.3l2.2-1.6h0.8v-3.2l-2.8-4.9 0.8-7.8 1.2-1.3 8.1 0.6 2.1 1.4 3.5-1.7 2.1 0.1 7.6 8.5 3.8 3.8 0.5 2.2 3.3 0.7-0.1 1.3-6.5 4.6h-2.8l-0.4 1.6-3.1-1.2v-1.7l-1.3-0.7 2.1-1.3-0.5-1.3-3.1 1.3-1.1 3.3 2 2.6-0.2 4.2 0.8 0.8 0.6 3.7 1 0.8-0.2 1h-2.4l-0.5-1.6-3.2 0.5-4.3 4.6-2 0.1-0.5 1.6-2 1-1.9 0.3-0.6 3.1-2.8 1.5 1 2.8 1 1.1 0.4 4.4-2.4 3.4-1.4 3.1h-3.6l-3.2 2-0.9 4.2c0 0-3.2 3.3-3.8 3.4-0.7 0.2-1.9-0.3-1.9-0.3l-0.4 1.1 1.5 3.4 2.5 9 3.6 2.8 2.5 0.6 0.8 1.5 4-3.9 1.1 0.6 0.5 2.4 3.1 2.5 1 2.7 0.8-0.1 5.4-4.8 8-0.9 3-2.3 1.1 0.2 1.1 4.6 10.5 2.3 1.9-1.5h2.2l5.5 3.2 0.9 2.6 1.2 0.3-0.5 1.4-0.7 0.8-0.4 7.2-3.2 2.1v4.8l-2.8 4.1-1.8-0.5-0.4-1-3.5-1.9-0.1-1.4-2.6 0.7 1 3.9 1 0.7v1.9h-0.8l-1.4 4.6-1 0.5 0.3 2.8-2.8 4.1-1.5-0.2-1.2 2.5 3.6 1.9-1 2.3-1.9 0.4-1.7 7.1 1 1 0.2 3.3-3.4 3.8 0.4 1.8 2.4 0.9 1.4 2 1.2 0.7 3.3-1.5 0.5 1.5-2.4 1.2-1.6 4-3.2 2.1 0.4 2.7-1.2 0.9h-4.9l-0.8-1.5-1.6 2.8-1.7 4.9-1.4 1 1.2 5.5 2.8 5.2-0.1 2.7h-1.1l-2.5 4.2-1.2 1-0.1 4-1.6 1 0.5 2.1 3.1 0.1 0.4 1.6 1.7 1.7 2.4 0.3-0.8 2.8-0.7 1-1.5 0.3-1.2 6.9c0 0-3.6 4.5-3.6 4.5zm250.3-29.7l0.1 1.9 2.6 2.9 7.6 0.6 0.9 1.3 6.7 1.1 0.6-2.9 4.9-2.5 3.5 1.5-1.4 1.7 0.3 1.1 3.7 2.5 5.6-4.1 2.7 0.2 13.7 10.9-0.5 3.7 4.3 3.9 0.4 3.7 3.2 1.9h6.8l4.4-2.2h9.2l5.4 4.5v-1.2l1.9-0.7 5.9-9.5 3.7-3.7v-5.9l-6-3.5-2.2-4.6 0.6-0.8-0.6-1.9 2.2-1.7-3.1-5.8c0 0-1.7 2.2-2.4 2.2h-3.8l-7.5 4.7-1 3.5-1.6 0.4-1.2-8h-1.5l-3.3 3.2-1.4 2.8-2-1.6h-2.1l-2.5 2.3-3.9-0.3-3.2-4.5-0.9-3-2-1.5-2.1 1.6h-1.4l-2.3-5.4-0.7-5.2-3.7-0.3-5.2 6.8-3 0.8-3.3 3.2-0.5 4.3-1.1 1.3h-4.5l-2.6-4.2-1.1 0.1-1.2 3.7-2.3-1.7-3 3.2-2.9 0.4-0.5 1.1-2.2-0.3-0.3-1.5z"/>
		<path id="path2606" class="s1" d="m1077.1 531.3l-0.7 1.3-0.4 3.7-3.6-0.1-2.7-2.3h-3.8l-1.7 1.2-0.3-1.9-3.7-3.8-3-0.4-3.9-4.8 0.1-2.5 0.8-1.2v-1.8l-2-1.1 1.6-0.4 0.3-2.4 0.8-0.2 0.1-1.4-4-2.5h-1.7l-3.2-3.8-2.6-0.2-1.1 3.3v8.1l-0.9 2.1-1.8-0.3-0.5-2.5-1.5 1.3v1.8l-4.8 0.3-0.3 2.6-1.3 0.4 2.8 1.2 0.2 2.3-1.6 0.6v1.2l6.2 2 0.5 3.7 1.9 1.5v3.7l-4.8 0.9-3.4 11.3 1.8 1.7v2l-1.5 1.1v1.5l2.1 2.5v1.9l-3.3 4.1-1.5 1.1-0.5 3.6-1.2 0.6 1.7 1.7v1.6l-2 0.1-0.5 1.6 1.8 0.7 1.3 1.2-0.4 1.2-2.7 1.1 0.8 0.1 0.1 2.7 1.1 2.6 0.9 0.6-2.8 4.2-0.9 0.5-0.3 0.5 2.2 0.7 4.9 3.1 2.9 2.5-0.1 1.4-0.9 0.5 0.1 3.6 2.1 1.3 0.6 2.2 5.7 2.9h2.3l1.2 1.2-1.2 0.8 1.5 1.9 1.9 0.4-0.3 1.6-1 0.4-0.5 2.3 1.7 4.5 5.7 4.5v3.1l-1.2 0.7 2.3 1.2-0.1 0.8-1.1 0.2 0.1 2.5 2.8 3.5v2.3l-1.2 1.4-1.6-0.1-3.9 1.9-0.3 1.5-1.2 0.6 0.2 1.1 25.4 1.6-0.6 1.2-1.4 0.5 0.2 1.5 2.2 0.2 0.4 2-1.5 0.8 1.4 0.4v2.2l-1.2 0.8 3.8 4.7 1.4-0.1 0.7-1.5 3.7 4.1 1.1-0.1 1.2-2.5h1.5l4.8-1.9 1.1-1.3 1.8 1.2-1.9 3.3-2.3-0.1-2.7 2 2.8 3.8-1.3 1.3v3.1l2.7 2.4 2.3 0.1 4.6-2.5 1.7 1.2-2.1 2.7-2.4 0.8 0.9 0.3 0.3 1.7 1.8 1.4v2.5l2.9 1.8 0.6 1.7 2.1 0.2 4.8-4.9 4.6-0.9 1.2-0.8 3.3 0.8 4.3 8.4v3.4l4.8 5.7-0.4 2.7 3.6 3.2 0.4-1.5 1.2-0.2 2.1 5-0.9 1-1.6 4.1 1.8 0.9 0.3 2.1-4.4 3.1-1.8 0.8-0.3 1.8 2 0.6 0.7 2.5 4.5 5.3 5.1 0.3 1.7 1.6 2.4-3.1 1 2.4h2l4 2.7v1.2l2.9-0.6 1.5 0.6-2.3 3.7 0.5 8.3 1.5 0.6 2.2 4.2 3.5 2.5 0.9-1.5 4.3-3.3 3.8-0.7 8.1-5.7 2.1-3.5 4-1.5 0.5 1.5 2.4 1.1 0.9 2.8 2.2 1.7 3.5-3.2 1.3-2.1 1.2 1.1 2.3 0.6 1.5 3.4 0.6 0.4 1.1-1.3 0.2-3.2 5-4.8h1.2l4-3.7h1.9l2.3-4.1-3.7-5.6h-1.2l-1.9 0.9h-3.2l-0.8-1.1 0.9-0.9-1.5-1.3 2-0.9-1.4-2.2 0.2-2.9 2.7-1.4h1.3l3.3-1.9h1.3l2.4 2 0.5 2 2.8 3.4 4.2 0.2 0.8 1.9 1.5 1.1 1.2 1.6-1.5 0.7-0.2 0.8h3l2 2.5 1.7-2.2 1.5-0.7 0.5-2.3 4.8-1.6 3.3-0.2 2.8-1.7 1-2.9 4.7 0.2 0.8 4.5-1.6 0.8-0.4 1.6 4.9 2.3 0.2 5.2h3.7l2-1.1 1.5 2.7-3.7 1.7 4.2 4.1 8 1.2 8.4-6.5 7.5 0.7 3 4.7 6.9 6.2 8.7 4.4-3.5 0.8 5.6 3.1 0.6 1.4 8.1 0.3 1.5-1.3 2.9-0.1 0.1 1.3-1.6 1.4 1.9 1-0.5 1.6-1.2 0.6-0.3 1.1 2 0.3 0.6-0.8 3.9-0.6 0.2 1.3 2.1 0.1 0.6-1.1 1.3-0.1 1.2 1.8 3.3-3.5 1.7-0.1 0.7 1.4 6.2 0.2 0.9 3.8-4.6 0.2-1.9 3 0.6 0.2-0.1 2.3-1.5 0.3-0.2 0.9 3.5 4-1.8 1.2-0.9 3.3-2.8-0.1 0.5 4.7 2.2 2.1 1.1 5.4 5.9 4.4 7.7 0.3 1.9 1.6-1.1 3.9h-1l-3.5 3.5-0.7 6.5-2.1 4-4.3 3.7 0.1 1.9 0.8 0.1 1.4 1.6 9.8 0.4 1.2-1.5 0.5-1.8 4.4-1.5 2.8-0.2 4.7 3.3 1 0.5 0.7-0.9 7.9-0.2 2.1 5.5 0.8 0.1 0.1-2.3 1.3-0.6-1.1-1.4 1.1-1.9 0.8 1.2 1.9 0.2 0.2-1.2 4.9-1.3 2.4 1.5-0.3 1.7 2.8 0.9 0.7-1.7 3.2-0.1 3.5-3.1 4.2-0.1 2.5-5.2h1.7v-3.1l-5.2-1.5h-2.3l-2 1.2h-4.3l-0.3-4.2 2.5-1.2 0.7-2.6 2.7-1.2-3.5-3.1 5.7-3.3-0.1-5.5 2.6-2.9-2.6-1.9-1.1-3.3-4.2-0.8-0.3-6.1 2.5-1.9 1.6-4.9 1.5-0.3 2.3 2.6 6.3 2.3 7.1 0.3 4 3.1 3.3 0.1 0.7 1.3 4-0.2 3.1-3.6 2.7-0.1 0.6 1.3 4.6 1.5 2.4 4.5 1.7 0.3 0.2-1.7 6-0.1v2.3l2.3 3.7 6.8 2.5 4.7 2.6 0.4 3.6 2.4 3.6 0.1 3.3-1.7 0.9-1.2 11.3 0.4 8 2.5 6.3v2.3l-1.2 5-2.3 2.2-0.3 7.4 3 8.7v2.5l-2 1.3 0.1 2.2 4 0.8 1.2-1.7 3.9 0.1 0.8 2.2-0.4 3.1-1.8 0.5-3.6 3.7 0.9 1.4-0.1 1.9 1.5 0.4-0.3 3.9 2.8 4.7-0.6 5.9 4.7 4h1.9l6 2.4 2.2 2.1 3.9-4.5 1.7 1.3 1.7-5.1-1.9-1.6 1-3.1 4.9 0.8 1.6 1.1 1.9-0.4 1.2-1.9 1.2 0.1 1.3 3 4.4 1.1 0.4 4.7-1.3 0.2v1.7l3.7 3.1v0.9h-1.4l-3.3 4.7-0.4 3.8 3.1-0.2 2.8 0.9 0.9 2.7 2.5 1.4 0.5-2.1 6.7-3.2 1.6-8.8-2.6-0.5-2.8 3-0.6-2.5-3.4-0.4-0.4-1.5 5-0.3 1.7-3.8-1.6-3.4-2.2-0.6 0.5-2.3 4.1-0.6-1.5-1.7-0.2-2.3 3.5-0.3 1.9 3.8 1.1 0.1v-4.5l3.2-2 0.2 1.3 8 0.2 1.4-3.1-2-0.5 1.6-1.4-0.8-2.3-1.2-1.1 1.2-9.3-2.2-0.9-1-5.9-7-2.4 0.2-3.8 4.7 0.1 1-3.5-1.7-1.4 4.4-3.3 4.9 0.4 5.2-6.1 0.3-4.3 3.3-2.6 0.7 2.3 1.3-1.2v-2.7l5.6 0.5 1.2-2.3 1.1 2 0.3-1.1 3.4-0.4 5.8-2.8 1.2 1.4 7.6-3v-1.5l5.2-3.5-0.2-1.8-2.5-2.2v-1.9l1.3-2.1-0.7-0.9-0.8-2.8 4.2-3 2-3.5-1.8-1.5 2.1-2.6 2.6 0.8 0.4-4.1-1.5-1.4 2-2.2 3.6 0.5 0.7 1.2 3.3-2.8h3.4l0.2 3.8 0.9-0.6 1.5 1.5 0.8-1 3.7 5 4.9 3.3-0.4-1.8-2.1-1.1 1.1-2.9 3.7-0.3 0.3 2 5.9-6.4 10.1-2-0.4-8.3-1.3-1.2-0.4-3.1-5.1-4.4-1.1-0.5-0.3-0.9-4.5-1.7-1.1-1.9-2.3-0.3 1-1.2-1.5-4.7-7.2-6.5-3.5-1.6 1-0.6 0.2-2 5.8-5.2 0.2-3 2.6-0.8 1.5-4.2 0.3-7.1-1.1-0.8 0.2-2.4 2.2-2.2-0.6-2.7 3.3-2.4-0.7-10.9-1.9-4.5-2.4 0.1-0.8 1.7-1.5-1.7-5.5-1.1-3.9-3.3 0.2-1.6 1.4-0.8-0.8-4-2-0.1 0.1-1.8 1.1-0.7 0.1-4.4 2.3-2.1 2.4-0.7 0.5-1.3-1.6-1-1.1 1-1.1-0.8-3.7 0.4-1.9-2.2-5.9-1.9-4.1-3.6-3.4 2.7-4.4-1.2-2.7-0.2-0.8-2.2-4.4-0.6-3.2 3-3.5-0.7-0.2-1.9-1.2-0.2-8.8 3.9-1.3 2.2-6.9-13.7-2.1-2.2 0.1-1.9-6.5-0.1-0.9-2.1-1-0.9 3.2-2.5 0.3-1.4 1.9-0.6 0.1-1.4-2.3-0.1-2.2-3.5-5.2-0.1-0.2-9-1.1-0.6 0.2-1.3 1.3-0.6 4.4-4 3.3-0.7 3.3-2.4 1.8-4.7 3.4-0.9 3.3-3.6 1.5-4.3 1.5-0.2 2.5 3.2 5.4-6.9 0.2-2.8-1.7-0.7 2-1.3 0.4-1 2.4-0.4 0.6-2.2 0.9-0.1 2.5-1.9v-2.7l1.7-1.3 0.8-2.5-2.2-3.3-6.1 0.3-1.4 1.5-7.8-0.7-1.9-2.2-2.4-0.1-0.9-2.2-1.6 1.3-4.6-0.3-0.5-1.4-1.2 1.7-0.7-1.2-3.1 0.1-1.1 3.1-2.8 2.7-2.2-2v-1.1l2.9-0.7-1.1-3.4-1.8-0.2-2.3-2-1.3-3.5 4.8-0.3 1.2-1.4 0.1-4.4-4.3-1.4-3.9-4.2-0.9-6.7-4-1.7-4.3-4.8 0.3-5-7.9-9.6-1.8-9.4-4.3-2.4-5.4-0.2-1.5 1-1.1-1.3-1.4 1.7-7.3-0.1-8.9-2.5-2.8-2.2 0.1 4.1-2.7 2.8-1.5-2.2 0.5-4.8-1.7-0.8 1.7-1.3 0.1-1.9 2.2-1.6-0.4-5.9-6-2.3-4.4-4.4-6.9 1.5-0.8 2.1-1.2-2.2-0.9 1.4-3.6 0.4-1.5-1.6-2.5-0.4-3.9-4-5.5-0.8-6.9 4.5-1.9-0.6-0.7-1.2-5.2 4.9-1.5-0.2-2.5-3.3-2.4 0.3 0.1 1.9-1.5 1-4.5-3.1-0.8 0.8 2.2 4.6 6 3.5v5.9l-3.7 3.7-5.9 9.5-1.9 0.7v1.2l-5.4-4.5h-9.2l-4.4 2.2h-6.8l-3.2-1.9-0.4-3.7-4.3-3.9 0.5-3.7-13.7-10.9-2.7-0.2-5.6 4.1-3.7-2.5-0.3-1.1 1.4-1.7-3.5-1.5-4.9 2.5-0.6 2.9-6.7-1.1-0.9-1.3-7.6-0.6-2.6-2.9-0.2-4.1 1.6-0.8 3.8-5.5v-3.3l2.7-2.5v-1.9l-2.4-2-0.1-2-2.6-3.4 3.3-3.9 0.4-3.1-2.6-3.6-3 0.1 1.3 1.4-1.7 2.8-14-0.5-2 7.1-7.1 7.4c0 0-7.4 0.5-7.9 0.6-0.4 0.2-3.1 3.3-3.1 3.3l-5.2 2.3-0.6 2.2-1.9-0.2-0.6-1.5-4.8 0.2-2.3 5.8-4.5 0.2-0.4-1.1-3.2 1.1-0.7 3.1-2.7 1.6h-1.9l-0.8-1.2-4.1 0.1-0.7-1.5-2.5 3.6-0.4 4.8 3.4 2.4-4 1.1-5.4 5.1h-2.9l-3.1 3.9-4.3 0.3-0.2 2.4-2.3-1.7-0.7-5.6-2.9-1.1-0.3-2.3-1.9 0.2 0.2 3.4 1.3 1.4-0.4 1.3-0.7-0.3-3.9 3.2-0.1 3.3-1.2 1.4-2.4-3.3-1.6 0.1-0.7 1.8-1.7 0.1-0.8 1.4-1.4-2.7h-1.9l-3.2 2.1-1.6-3-2.8-0.2-2.3-2.1-0.5-5.2h-2l-0.8 1.2-1.6-3.1 0.6-5.4-2.5 0.1-4.6 4.2-2-4.4-9.6 0.1-4.4 6.2-9.5 5.4-1.8-0.1-1.6 1.6 0.1 5.7-1.7 1.4-4.6-5.1-4.7-0.8-1.9-2-3.8 1.4-4.2 6.8-4.4 0.2-4.4-1.9-0.7-5.7-1.2 0.6-1.4 5.3-3.2-0.6-3.3-2.4-3.4 1.2-0.9-1.2-2.4 0.3-5 2.9-2.2-0.2-2.5-2.8h-5.1l-1.5 3.4 4.1 1.4 1.5 5.7-1.2 0.8-5.3 5.9-2.7-2.4-2.9 2.1h-2.6l-8.6-8.2h-4.4c0 0-5-2.9-5-2.9z"/>
		<path id="path3218" class="s1" d="m1027.9 578.3l-2.7 0.1-3.3-4.7-2.6-0.5-2 2-2.2-2.5h-1.3l-1.2 4.2-2 0.5-0.3 4-1.7 0.2-3.7 5.5-7.6 1-3.4-2.3-1.8 0.8 1.3 1.2v2.3h-6l-11.5 2.9-9.9 5.9h-7l-11.3 4.4-1.9 1.5 4.1 4.4-2.4 2.6-1.2-1v-3.2l-3.5-3.7-1.5 1.2h-4.4l-5.3 3.9-2.1 3-1.1-0.2 0.3-1.8-2-2.4v-1.5l1.5-0.3 0.7-2.2-2.6-1.7-0.6-3.2-1.5-1.3-1.1 1.7-1.6-1.2-1.4-0.2-1.2 1.4-2.8 0.1-2.9 3.2 1.2 0.9v4.2l-2 0.6h-2.2l-1.9-2-5-1.7-3.7-2.3-0.5-1.7-1.9-0.5-4.3 3.4-2.2 4.8 1.7 1.4 0.5 9.1 1.7 2.3 4.2 2.5v1.2l-1.6 1.2-0.5 2.2h-3.3l-5.2 2.7-2.2-3-2 1.3-2.1-2h-1l-0.6 1.7h-1.2l-1.7 1.8h-1.3l1-3.2-1.7-1.8-5.7-0.4-7.4 4.7h-3.7l-0.9 2.7 1.3 10.8-3.8 0.3-10.3 5.9h-5.3l-3.2 3.5-3.6 0.2-0.5 1.5-4.5-3v-6.2l-5.4-0.2-1.3 2.7-3.1-0.2-0.3-1-3.4 2.5-0.5 2.1h-2l-0.3-3.1 2.2-2.5-1.4-1.2-0.5-3.3 1-3.6 4.4-0.5v-2l-2.7-1-0.2-1.5-4.8-0.3-2.4 2.5-1.9-0.4v-1.3l-2.5-2h-6.9l-0.3 1.7-2-1.5-0.9-2.9-4.2-1.2-0.6 1.4-10.5 0.1v2.7l-2.8-0.1-0.5-1.1-5.9 0.2-0.5-1.7-1.5 1.4 1.6 1.5-1.1 2.5-0.5-0.7-5.6 2.9 1.7 0.7 0.2 1.5-3.4 4h-2l-0.4-1.8-3.5-2.6 1.2-1 2-0.1v-2.9l1.5-0.7-1.3-0.6-0.2-2.7 1.4-0.7v-4.2h-4.1l-1.7 1.3-2.3-0.1v-1.2l-2 1.3-2.9-0.6-2.7-7.4-5.2-4.6-0.2-2.5-3.2-3.2h-4.2l-1.3 1h-4.6v-1l-2.1-0.7 0.3-1.5 0.7-0.5 0.3-4.7-1.7-1 0.2-3.9 2.3-1-0.3-1.5-7.7-4.4h-8.1l-6.1-1.1v-1.6l1.2-0.6v-1.9l-2.3-1.7 2-2 0.5-3.2 1.5-1.1-1.2-4.4-7.5-5.6-0.4-1.8-2.8-0.2-4.1 3.5-1 4.2-7.9 6.8-0.3 3.2-1.9 2.8h-3.2l-0.8 0.7-4.2-1.2-0.8-2h-1.9l-0.3 1.5h-2.4l-3-3-1.9-9.1-1.5-1.7 1.8-0.3 1.4-2.8-0.3-6.2c0 0-2.4 0.1-2.5-0.3-0.1-0.4-0.9-1.8-0.9-1.8l2.5-2.3v-2.2l-1.6-0.7 2.1-7.3h1.2l-0.1-2.3-2.5-1.2-1.7-3.6 2-1.3 1.6 0.1 2.7-1.9 1.6 0.9 1.2-0.4-1.8-2.3-3.1 1.7-0.8-1 4.2-5.2 0.7 1.9 2.8 0.8 0.8-1.9 6.1-2.4 2.2-3.6 0.1-2.3 2.8-1.3 2 2.4 1-2.2 2 0.3 2.8 3.1 3.9 2.7 3.2 7.4 11.1-0.2 3.9 4.2 6.8 2.8 1.9 4.7 4 0.2 4.1-5.5 8.4-0.3 3.1 1.3 0.8 2 1.8 0.3 2.5-3.4 3.5-0.2 1.9-2.7-2.4-1.5 0.2-1.7 4-8.5h1.6l2.5 2.7 2.9 1.4 0.8-1.4-1.7-1.1 0.3-4h-1.4l-1.9 0.8 0.3-3.1h1.6l2.7-4.4h1.5l1.8 5.5 4.7 7.4 7.2-1.9 0.2-4.9 1.8-2.8 7.5-2.4 7-0.9 5.5-0.1 4-3.1 1.7-0.3 9.9-7.8 0.4-1.4 2.2-0.2 1.8 2.3 1.1 0.4 0.9-1.5 0.7 1 1 0.3 1.8-1.1 0.6 1.4 1.8-0.9 1.7-3.2 0.9 1.1h1.7l0.5 2-0.8 0.2-0.3 1.2-3.5 3.2v0.7l2.5 3.1 1.3-2.9h0.6l-0.5 2.9 0.8 1.7 2.3 0.8-0.2 1.2 3.4 2.5 5.5 0.5 1.7-1.7-0.9-2.4-1.7-1.3v-1.8l2-0.1 0.8 1.8 1.7-2.2 6.5-4.5 2-0.2 0.8 1.8h1.6l0.5-1.6 2.5-0.4 0.4 1.1 0.7 0.1 1.6-3.4 1.8-0.8 0.3-1.1-1.3-1.3 4.3-3 2.1 0.5 0.1-2 1.3-0.2-0.1 2.3 1.1 1.3v8.8l2.3 2.2 1.9 0.1 1.2-1.1h9.5l1.1-2.3 0.6-0.2 0.6 1.4 2.1-1.3-1.4-2.6 3-0.6 0.3-1.5 1.2-0.3 0.7-3.2-4-0.3-0.1-3.7-3.7-4 0.7-0.6-0.1-3.3 2-2 1.6-3.7 0.2-4.1-2.6-2.5 1-1.7h1.9l0.4 1.1 4 1.8 2.7 0.6 0.7 1.4h1.3l1.4-2.7 1-0.1 0.2 0.9h3.4l2.8 1.5 0.7 1.8 1.9 0.3 0.5-1.1 2.2-0.4 1.9-2 1.9-0.3-0.1 2.3 1.1 1.1 1.3-0.8 0.6-2.5 1.6-0.3 1.2-2-0.7-2.2 1.6-1.2 0.5 1 2.6 0.1 3.6-2.4 0.5-1.8 1.1-0.5v1.2l4.4 0.1 0.2 1.4 1.9 0.5 0.8-0.9 2.1 1.7 3.1 2h3.8l5 3.2 0.6 3.4 2.8 1.5 1.8 6.9 4.6 0.9 1.7-1.5 1 1.4c0 0 0.5-0.2 0.9-0.3 0.4-0.2 2.2 0.1 2.2 0.1l0.5 1.8-1.8 0.3-2 2.3 1.4 2.1 0.5 1.8 1.8 0.3 1.4-1.4 3.2-2 0.2 0.7h2.2l0.8 1.1 2.4 0.1 0.9-1.2 5.7 0.5 0.5 1.2 1.6 1.5 6.9-6.9-0.6 2.1 1.9 1 1.4-1.3-0.1 4.3-0.8 0.6-0.3 1.5 2.9 1.7 0.3 2.4-2.2 0.9-0.3 1.4 3.5 0.1 3.6 2.9 0.3 1.4c0 0 1.5 0.4 1.9 0.3 0.4 0 1.9-3.6 1.9-3.6l0.9-0.4 0.7 1.5 1.2-1.3 4.1-0.7 2.2-1.5 0.4-2.2 6-4.8 0.5-3.5 1.5-0.2 0.8 1.6 2.2-2.2 3.8-0.2 1.4 2.3h4.7v1.3l4.9 5.7 1.4 3.1-1.1 3.5v8.1l-0.9 2.1-1.8-0.3-0.5-2.5-1.5 1.3v1.8l-4.8 0.3-0.3 2.6-1.3 0.4 2.8 1.2 0.2 2.3-1.6 0.6v1.2l6.2 2 0.5 3.7 1.9 1.5v3.7l-4.8 0.9-3.4 11.3 1.8 1.7v2l-1.5 1.1v1.5l2.1 2.5v1.9l-3.3 4.1-1.5 1.1-0.5 3.6-1.2 0.6 1.7 1.7v1.6l-2 0.1c0 0-0.8 2.6-0.8 2.6z"/>
		<path id="path2424" fill-rule="evenodd" class="s1" d="m1028.2 320l-0.6 2.3 2.6 0.1 3.6-2.6h2.6l2.1-2.6h0.7l0.5 3.3 1.9 1.5 1.7 7.6 2.5 0.2 0.6-1.8 5.7-0.3 0.7-1.2 1.3 0.1 0.8 0.9 2-0.5 1.8 1.9 0.3 2.5 1.2 1.4 0.9-1h2.2l2.5-3h1.3l2.2-1.6h0.8v-3.2l-2.8-4.9 0.8-7.8 1.2-1.3 8.1 0.6 2.1 1.4 3.5-1.7 2.1 0.1 7.6 8.5 3.8 3.8 0.5 2.2 3.3 0.7-0.1 1.3-6.5 4.6h-2.8l-0.4 1.6-3.1-1.2v-1.7l-1.3-0.7 2.1-1.3-0.5-1.3-3.1 1.3-1.1 3.3 2 2.6-0.2 4.2 0.8 0.8 0.6 3.7 1 0.8-0.2 1h-2.4l-0.5-1.6-3.2 0.5-4.3 4.6-2 0.1-0.5 1.6-2 1-1.9 0.3-0.6 3.1-2.8 1.5 1 2.8 1 1.1 0.4 4.4-2.4 3.4-1.4 3.1h-3.6l-3.2 2-0.9 4.2c0 0-3.2 3.3-3.8 3.4-0.7 0.2-1.9-0.3-1.9-0.3l-0.4 1.1 1.5 3.4 2.5 9 3.6 2.8 2.5 0.6 0.8 1.5 4-3.9 1.1 0.6 0.5 2.4 3.1 2.5 1 2.7 0.8-0.1 5.4-4.8 8-0.9 3-2.3 1.1 0.2 1.1 4.6 10.5 2.3 1.9-1.5h2.2l5.5 3.2 0.9 2.6 1.2 0.3-0.5 1.4-0.7 0.8-0.4 7.2-3.2 2.1v4.8l-2.8 4.1-1.8-0.5-0.4-1-3.5-1.9-0.1-1.4-2.6 0.7 1 3.9 1 0.7v1.9h-0.8l-1.4 4.6-1 0.5 0.3 2.8-2.8 4.1-1.5-0.2-1.2 2.5 3.6 1.9-1 2.3-1.9 0.4-1.7 7.1 1 1 0.2 3.3-3.4 3.8 0.4 1.8 2.4 0.9 1.4 2 1.2 0.7 3.3-1.5 0.5 1.5-2.4 1.2-1.6 4-3.2 2.1 0.4 2.7-1.2 0.9h-4.9l-0.8-1.5-1.6 2.8-1.7 4.9-1.4 1 1.2 5.5 2.8 5.2-0.1 2.7h-1.1l-2.5 4.2-1.2 1-0.1 4-1.6 1 0.5 2.1 3.1 0.1 0.4 1.6 1.7 1.7 2.4 0.3-0.8 2.8-0.7 1-1.5 0.3-1.2 6.9-4.4 5.7-0.4 3.7-3.6-0.1-2.7-2.3h-3.8l-1.7 1.2-0.3-1.9-3.7-3.8-3-0.4-3.9-4.8 0.1-2.5 0.8-1.2v-1.8l-2-1.1 1.6-0.4 0.3-2.4 0.8-0.2 0.1-1.4-4-2.5h-1.7l-3.2-3.8-2.7-0.1-1.3-3.4-4.9-5.7v-1.3h-4.7l-1.4-2.3-3.8 0.2-2.2 2.2-0.8-1.6-1.5 0.2-0.5 3.5-6 4.8-0.4 2.2-2.2 1.5-4.1 0.7-1.2 1.3-0.7-1.5-0.9 0.4c0 0-1.5 3.6-1.9 3.6-0.4 0.1-1.9-0.3-1.9-0.3l-0.3-1.4-3.6-2.9-3.5-0.1 0.3-1.4 2.2-0.9-0.3-2.4-2.9-1.7 0.3-1.5 0.8-0.6 0.1-4.3-1.4 1.3-1.9-1 0.6-2.1-6.9 6.9-1.6-1.5-0.5-1.2-5.7-0.5-0.9 1.2-2.4-0.1-0.8-1.1h-2.2l-0.2-0.7-3.2 2-1.4 1.4-1.8-0.3-0.5-1.8-1.4-2.1 2-2.3 1.8-0.3-0.5-1.8c0 0-1.8-0.3-2.2-0.1-0.4 0.1-0.9 0.3-0.9 0.3l-1-1.4-1.7 1.5-4.6-0.9-1.8-6.9-2.8-1.5-0.6-3.4-5-3.2h-3.8l-3.1-2-2.1-1.7-0.8 0.9-1.9-0.5-0.2-1.4-4.4-0.1v-1.2l-1.1 0.5-0.5 1.8-3.6 2.4-2.6-0.1-0.5-1-1.6 1.2 0.7 2.2-1.2 2-1.6 0.3-0.6 2.5-1.3 0.8-1.1-1.1 0.1-2.3-1.9 0.3-1.9 2-2.2 0.4-0.5 1.1-1.9-0.3-0.7-1.8-2.8-1.5h-3.4l-0.2-0.9-1 0.1-1.4 2.7h-1.3l-0.7-1.4-2.7-0.6-4-1.8-0.4-1.1h-1.9l-1 1.7 2.6 2.5-0.2 4.1-1.6 3.7-2 2 0.1 3.3-0.7 0.6 3.7 4 0.1 3.7 4 0.3-0.7 3.2-1.2 0.3-0.3 1.5-3 0.6 1.4 2.6-2.1 1.3-0.6-1.4-0.6 0.2-1.1 2.3h-9.5l-1.2 1.1-1.9-0.1-2.3-2.2v-8.8l-1.1-1.3 0.1-2.3-1.3 0.2-0.1 2-2.1-0.5-4.3 3 1.3 1.3-0.3 1.1-1.8 0.8-1.6 3.4-0.7-0.1-0.4-1.1-2.5 0.4-0.5 1.6h-1.6l-0.8-1.8-2 0.2-6.5 4.5-1.7 2.2-0.8-1.8-2 0.1v1.8l1.7 1.3 0.9 2.4-1.7 1.7-5.5-0.5-3.4-2.5 0.2-1.2-2.3-0.8-0.8-1.7 0.5-2.9h-0.6l-1.3 2.9-2.5-3.1v-0.7l3.5-3.2 0.3-1.2 0.8-0.2-0.5-2h-1.7l-0.9-1.1-1.7 3.2-1.8 0.9-0.6-1.4-1.8 1.1-1-0.3-0.7-1-0.9 1.5-1.1-0.4-1.8-2.3-2.2 0.2-0.4 1.4-9.9 7.8-1.7 0.3-4 3.1-5.5 0.1-7 0.9-7.5 2.4-1.8 2.8-0.2 4.9-7.2 1.9-4.7-7.4-1.8-5.5h-1.5l-2.7 4.4h-1.6l-0.3 3.1 1.9-0.8h1.4l-0.3 4 1.7 1.1-0.8 1.4-2.9-1.4-2.5-2.7h-1.6l-4 8.5-0.2 1.7 2.4 1.5-1.9 2.7-3.5 0.2-2.5 3.4-1.8-0.3-0.8-2-3.1-1.3-8.4 0.3-4.1 5.5-4-0.2-1.9-4.7-6.8-2.8-3.9-4.2-11.1 0.2-3.2-7.4-3.9-2.7-2.8-3.1-2-0.3-1 2.2-2-2.4-2.8 1.3-0.1 2.3-2.2 3.6-6.1 2.4-0.8 1.9-2.8-0.8-0.7-1.9-4.2 5.2-1.9-0.2-1.7 1.3-1.9-4-2.3-0.3-2.5 1.4-0.3-1.4-1.4 0.8-1.3 3.3-2.9 3.8-0.3 2.9-1 1.3-1-2.8v-1.9l-0.9-1.4-4.9 2.2-3.6 4.2h-3.2l-1.7-1.7-1.6 2.3-1.9-4.2-3.5 0.3-5.3 6.6-22.5-1.3-2.8-0.7v-2.9l-2.1 0.2-2.4 3-3.8-0.5v-2.7l1.6-0.3v-1.9l-4.6-4v-2.8l-5.1-0.2-1.4-1.1 0.1-3h1.5l1.7-7.8 0.9-0.5-1.8-0.9 1.2-1.1 2.6 0.2 2.3 2.5 2.9-2.5 1.4 2.1h2.1l1.4-1.7h4.8l1.6 2.1 1.9-2.9 1 0.5 2-1.2-0.4-3.5-2.4-0.8v-2.9l-1.4-0.8 2-0.8-2.1-1.4-1.9 0.1-0.3 2.2-2.5-2.3v-6.4l2.6-5 0.6-3.3 4.2-4.4h2l1.2-1.6h1.3l1 2.7h4v2.3l-1.8 1.6 0.1 1.7 8.4-0.1 3.9-7.9 1.7-0.1 2.6 5.1h2.4l4-6.1 1.5-0.4 3.4 2.9 3.3-5 2.6 0.7 4.4-4.5 4.6-12.6 1.3-1 0.3-5-1.7-3.3-0.9-5.1-6.1-1.6-2.3 2.9-3.2-5.3 0.2-1.7 2.2-0.2 0.8-1.3 5.2-3.8-1.6-2.9 2.8-3.6 0.4-4.2 3.5-3.9h1.6l3.8-3-1.5-1.2 2-2.1v-5.6l-2.7-0.6-3.2-6.3 2.2-1.3 1.7 0.5 6.2-5 0.4-2.6-2.8-2.5-0.9-6.2 2.1-3.8 1.4-0.6 1.1 2.5 8.3 2.7v1.5l7.6 2.7 1.8-0.6v-2.8l3.6-1.4 1.2-2.5 2.9-0.6-0.4-1.3-2.5-2.7 0.4-3.3 2.8-1.3-0.7-1.2 1.8-1.9-3.2-0.7-1.4-6-5-4 1.8-3.5 4-4.8-0.5-3.8 1.8-3.7 3.5-0.9 3.6 4.2 8 1.7 2.6-0.6 2-4.2 2.6 1 2.5-1.9h1.4l0.4-2.9 4.3-4.6 0.5-3.7-4.4-4.6 0.7-1.5h2.8l3.2-3.7-2.3-4.6 1.6-1.9 0.3-4.2 3.3 1.5 0.5 1.1 1.8-1 3.2-0.1 3.4-4.3h5.4l0.8 2.3 1.4-1.5 1.8 0.1 7.5 3.4 5 6 11 0.2 0.3 2.5-1.8 1.2-0.1 1.6 2.4 0.1 2.3 1.2 2.5 0.1 1.1-4.7 4-2.4 0.4-2.5 0.8 1.2 2-0.2 0.2 1.1-2.8 2.7-0.6 2.6-1.1 1-0.1 4.1 1.5-1 1.2 0.8 4.5 0.5 1.3 1.6v2.7l1.6 6.2 1.1-1.1 7.4-1.1 1.2 2.2 1.4 0.1 1.5-2 11.8-4.7 0.7 1.2 2.3 2.2v2l2.9 2.5 4.4 0.9 1.1 1.4 1-2.5 2.4-0.3 0.6-2.8-1.8-1.7 0.3-4.2 1.2-0.8h1.3l0.5 1.1c0 0 3 1.5 3.5 1.9 0.6 0.3 6.9 6.1 6.9 6.1h1.6l1.3 1.8h2.4l0.3-2.9 1-1.1h2.3l2.6-2.4h4.8l1.8 1.2 1.8-1.2 0.2 2.1-0.6 0.3v1.4l2.2 1.6 0.3-1.1-0.4-1.1 0.9-0.9 3.8 2.9-1 1.9 2.3 0.5 1.2-2.2 5.4-0.2v-1.3l-1.7-0.8 0.6-0.7 2.4-0.8 0.8-6.9 1.9-1.1 3.7-0.3 1.6 1.3 2.3 0.2 2.4-4.6 6.4-2.3c0 0 2.7 0 3.2 0.1 0.6 0.1 0.9 1.7 0.9 1.7l8.7-3.4 2.8 0.2 1.2 3.6 7.2 0.9c0 0 0 4.2 0 4.6 0 0.4-5 5-5 5l0.3 1.6h2.8l2.3-3.6 1.4-5.8 5.2-2.9 2.8-0.8 1.1-3.8 2.7-1.5 4.8 2.8 3.7-0.8 5.1-7 5.3-2.1 0.8-1.9 4.6 7.9 2.8 0.6 0.8 4.4 1.2 0.7 0.1 6.2 3.9-0.1 1.6-0.9 4.1-0.1 1.2-1.1 1.2 1.7 4.9-3.3 3.6-0.8 1.1-2.6 3.7-1.3 2.8 0.1 0.9 1.8 2.3-0.1 2.1-1.9 6-1.2 0.4-3.4 3.1-3.7 3.4-0.3 1.4-0.8 0.7 1.6h1.7l1.7-1.9 1.2 1.6 0.9-1.5 6.4-0.1 3.9-5.6 1.7 0.3-0.1 3.3 1.3 2.5 4.4-0.2c0 0 0.9 2 0.9 2zm-249.5 177l5.5-0.6 12.4-7.6h3.6l10.4-6.6 7.8-2.5 0.6-1.5-4.8-2.5-2-3.5-3.2-0.5-1.9-1.8 1.8-2.5-3.2 0.4-0.2-1.5 2.8-1.9 0.2-3.3 3.7 0.2 4.1-1.3 0.7-1.8-0.9-0.6-2.6-3.2v-9l-2-2.2-0.7-2.6-5.7-1.4-0.1-1.5-2.5-3.3-1.4 1.7-1.3-1.3-1.6-0.4-1-1.9-1.6-0.2-1.1-4.4 3.9-5 1.6 0.4 0.3-1.8-1.5-1.5-2.4-6.3 2.4-1.6-3.1-1.3-0.3-1.2 2.6-1.7-4.7-1.9-3.4-3.3 0.7-2.1-3.9-1.1-2.7 2.3-4.1 0.2-2.1 5.7-1.6 0.4-0.5 2.5-6.8-3.6-14 0.1-4 5-3.6 0.2-1.4 2.5-3.9 0.4-2.5 2.9 2.5 0.6 0.3 4-5.5 6.1-2.3 3.5 0.9 2.1 3.4 2.3-0.2 1.2-1.8 0.4-0.5 1.7 2.7 1.9-0.4 1.3-1.9 0.2 0.7 3.9-1.4 3.6-0.6-2.1-3.2-0.2-2.3 2.1h-3.5l-2.7 2.7 1.6 1.2-0.3 1.5-1.6 2.3-2 0.2-1.4 1.9v2.9l1.4-1.7 2 0.6h1.9l0.7 2.8 3.6 1.6h3.2l1 2.3 3 1.5 1.5-1.5 3.3-0.4 2.5-2.9h1.4v1.7l-1.4 2.2-0.2 3.4 2.7 2.3h3.5l1.3 2.7 0.2 5.4 3.5 6.7 3.7 1.3 6.1-1.1 3 2.1h5.1l4.8 2.1z"/>
		<path id="path2741" class="s1" d="m859 643l-1.3-10.5 0.9-2.7h3.7l7.4-4.7 5.7 0.4 1.7 1.8-1 3.2h1.3l1.7-1.8h1.2l0.6-1.7h1l2.1 2 2-1.3 2.2 3 5.2-2.7h3.3l0.5-2.2 1.6-1.2v-1.2l-4.2-2.5-1.7-2.3-0.5-9.1-1.7-1.4 2.2-4.8 4.3-3.4 1.9 0.5 0.5 1.7 3.7 2.3 5 1.7 1.9 2h2.2l2-0.6v-4.2l-1.2-0.9 2.9-3.2 2.8-0.1 1.2-1.4 1.4 0.2 1.6 1.2 1.1-1.7 1.5 1.3 0.6 3.2 2.6 1.7-0.7 2.2-1.5 0.3v1.5l2 2.4-0.3 1.8 1.1 0.2 2.1-3 5.3-3.9h4.4l1.5-1.2 3.5 3.7v3.2l1.2 1 2.4-2.6-4.1-4.4 1.9-1.5 11.3-4.4h7l9.9-5.9 11.5-2.9h6v-2.3l-1.3-1.2 1.8-0.8 3.4 2.3 7.6-1 3.7-5.5 1.7-0.2 0.3-4 2-0.5 1.2-4.2h1.3l2.2 2.5 2-2 2.6 0.5 3.3 4.7 2.7-0.1 0.3-1 1.8 0.7 1.3 1.2-0.4 1.2-2.7 1.1 0.8 0.1 0.1 2.7 1.1 2.6 0.9 0.6-2.8 4.2-0.9 0.5-0.3 0.5 2.2 0.7 4.9 3.1 2.9 2.5-0.1 1.4-0.9 0.5 0.1 3.6 2.1 1.3 0.6 2.2 5.7 2.9h2.3l1.2 1.2-1.2 0.8 1.5 1.9 1.9 0.4-0.3 1.6-1 0.4-0.5 2.3 1.7 4.5 5.7 4.5v3.1l-1.2 0.7 2.3 1.2-0.1 0.8-1.1 0.2 0.1 2.5 2.8 3.5v2.3l-1.2 1.4-1.6-0.1-3.9 1.9-0.3 1.5-1.2 0.6 0.2 1.1 25.4 1.6-0.6 1.2-1.4 0.5 0.2 1.5 2.2 0.2 0.4 2-1.5 0.8 1.4 0.4v2.2l-1.2 0.8 3.8 4.7 1.4-0.1 0.7-1.5 3.7 4.1 1.1-0.1 1.2-2.5h1.5l4.8-1.9 1.1-1.3 1.8 1.2-1.9 3.3-2.3-0.1-2.7 2 2.8 3.8-1.3 1.3v3.1l2.7 2.4 2.3 0.1 4.6-2.5 1.7 1.2-2.1 2.7-2.4 0.8 0.9 0.3 0.3 1.7 1.8 1.4v2.5l2.9 1.8 0.6 1.7 2.1 0.2 4.8-4.9 4.6-0.9 1.2-0.8 3.3 0.8 4.3 8.4v3.4l4.8 5.7-0.4 2.7 3.6 3.2 0.4-1.5 1.2-0.2 2.1 5-0.9 1-1.6 4.1 1.8 0.9 0.3 2.1-4.4 3.1-1.8 0.8-0.3 1.8 2 0.6 0.7 2.5 4.5 5.3 5.1 0.3 1.7 1.6 2.4-3.1 1 2.4h2l4 2.7v1.2l2.9-0.6 1.5 0.6-2.3 3.7 0.5 8.3 1.5 0.6 2.2 4.2 3.5 2.5 0.9-1.5 4.3-3.3 3.8-0.7 8.1-5.7 2.1-3.5 4-1.5 0.5 1.5 2.4 1.1 0.9 2.8 2.2 1.7 3.5-3.2 1.3-2.1 1.2 1.1 2.3 0.6 1.5 3.4 3.7 2.4 0.2 3.6-1.1 0.5 2.1 0.9-1.9 1.9-0.2 2-1.9 0.6-2.3 4.3-2.1 0.5-1.6 1.3 1.8 1.5 0.7 3 5.1 2.3-0.1 1.9-3.5 2-2.2 3.1-2 0.5-1.3 2.7-10.5 2.8-3.8 3.6v3.9l0.8 0.6 1.8 2.6 0.3-1.5 3.3-2 0.9-3.4 2.2-1.5h3.3l2.6 1.9 1.3 0.2 1.1-1.2 1.6 0.4 2.1 4.7-2.1 1.2 2.7 3.3-1.5 1.8 0.9 1.8 0.2 2.7 1.2 0.7 0.3 2.1-3.3 1.4-4.1 5.7-4.3-0.5-6.6 4.1c0 0 1.2 1 0 1.8-1.2 0.7-5.1 3.7-5.1 3.7l-4.5 6.2-1.8 0.6-6.9 5.7-2.1 0.4-3 2.1-4.2-1.5-1.1-3.9-1.8-0.3-2.4 4.2-9.1 1.7-0.9 1 2.4 1.7 0.6 1.8 1.9 0.9-2.4 1-0.3 2.2-2.7 0.2-6.7 2.5-2.1-3.3-1.1 1.2-2.7 0.2-3.3 1.9-0.7 2-1.1 0.3-0.3 1.2 4.1 0.7 0.7 1.4h2.7l1.5-1.5h1.4v1.2l3.4 5.8 2.1 0.5 0.5 0.9-2.6 2.7-2.1 0.1-0.4 2.3h1.8l1.6 1.6 1.2-1.3 1.7 0.1 0.4 1.5-1 2-2.1 0.6-0.9 1.5 4.8 3.1 2.7 5.4 6.3 8.9 3.7 2.5 0.3 4.5-4 2.6-0.9 3.6-0.9 0.1-0.8-2.2-2.2-0.2-3.3 3.5-4.5 1.3-0.6 2.1 3.1 3.5 1.8-1.7 1.5 3.8 2.3 1.5 1.9 0.3 0.9 3.4-2.4 4.4-1.9-1.4-0.8 1.1-6.7 0.1-1.8-1.3-1.4 1-2.1 0.3-1.8 4.8-9.1 2.3-0.6-1.2-3.6 1.9-3.2-2.7h-2.5l-2 1.7-3.1 0.1c0 0-1.3-1.3-2.2-1.5-0.9-0.1-2.1 0-2.1 0l0.4 2.7-6.3 1.7-3.1-0.9-1.4-2.6-2.1 1.1-3.1-1.2-6.8 1.9-1.9 1.5-9 0.2-2 1-1.9-6.1-2.6-1.7v-4.2l3-3.3-0.7-2.1-0.3-2.5-2.9 4.9-1.6 10.2-1.8 1.5 1.5 1.4v2.2l-2.3 2.3 1.7 1.3-1.2 0.9v1.7l3.9 1.5-1.5 3.4-0.6-1.2-3-0.4-0.6 0.7 2.4 1.5 0.1 1.4-1 0.9 1.5 1.6-2.7 3.2-2 0.7-0.9 2 1.5 1.2-3.1 3.1-2.9 1.4-2.2 4.6-3.3 0.8-2.4 3.3-3.3-2.7v-2.1l-2.7-0.2-2.1 4.4 0.4 3.7-3.6 3.2-1.9-1.5-2.4 0.1-1.5 1.8 5.4 2.1 2.5 4.8 3 1.1 0.8 2.7-2.4 1.5-0.2 1.3 5.6 4.4 2.4 0.3 0.4 3.6-2.1 1.8-0.3 2.4 3.8 5.5 7.3 1.3 5.4-1.7 0.6-1.7 2.3-2.2 2.9 1.5 3.1 1v1.3l-1.8 0.9 1.2 0.8v2.6l10.5 6.9 3.9 0.3 0.7 1.6-1.7 12.2 2.4 6.6 5.6 5.4-0.9 0.9-8.8 0.6-3.3 4.1-4.8-0.2-4 4.8 0.6 2.7-3.5 3.5-4.7-0.2-1.1 2.1-1.6 1.2 4.4 3.5 3.8-0.3 1.1 1.3-1.8 1.8-2.5 0.5-4.4 4.2-3 1.6c0 0-5.4-0.4-6.1-0.2-0.7 0.2 0.6 1.1 0.6 1.1l1.5 0.5-0.7 4.2-2.9 1.2-2.4 3.7-1.9-1.4-0.3 0.9-3.1 0.9-0.9 1.5-3.2 0.7-0.3 4-3.2 2.1 1.5 1.5-0.3 9.9 2.4 0.9-1.1 2.3h-2.9l-0.5 2.6c0 0-3.2 4.1-3.6 4.3-0.4 0.2-0.2 4.7-0.2 4.7l-0.7 2.8-3.3 0.3-1.6-2.5-5.1 3.1 0.5 3.1-0.9 1.3-1.6-2.3c0 0-2.5 2.7-2.9 2.9-0.4 0.2-0.3 1.5-0.3 1.5h-3.5l-0.2-1.4h-1.3l-4.5 3.1-3.9-0.9-0.8-1.9h-4.2l-4.9-3.4-2.5 0.7 0.1 2.5-4.5 0.1-0.9-1.6-1.6-1.2 1.4-0.9 2.6-5.2 0.7-5.1 1.9-3.7h2.1l0.4-2.3-2.7-1.4-0.5-5.7-2.1-1.2 0.9-1.4 1.6-0.4v-2.2l-2.1-2.1-2.4-0.2-1.7 0.8 1-4.5-2-1.2-0.5-8.7-1.9-1.9 0.6-1.2 1-0.5 1.9 2.7 4-1.4v-1.5l-1.3-1 0.9-4.2 3.1-1.4 0.4-2.1-1.1-0.5 2.1-4 2.1-4.4h2.2l1.6-1.6-1.7-2.4-3.1-0.3 1.4-1.5 2.5-0.4 1-2 0.3-2.3h-2l-1.6-2.8-0.1-1.3 1.7-0.7 0.3-1.1-6.3-4.7-2.6-0.2-2.9-2.5-3.5-10.5-2.4-0.1-0.5-1.4h-2.2l-1.3 1.6-6.9-3.5h-3.6l-4.8-2.1-0.6-2-1.5 2.5-0.6-2 0.1-8.2 2.5-1.8-0.4-2.1-2-1.1 1-1.7 4.2-0.5 6.4-7 0.3-1.4-0.7-0.9-0.6-3.4 2.7-4.9 0.1-1.2-2.9-2.2 1.5-0.6-0.4-3.2 1.7-0.9-2-1.6 3.9-2.3 2.1-4.1 2.7-0.1 2.1-2.3-1.3-0.7-0.1-2.6 1.1-0.8-2.8-1.8-0.4 1.3-2.8-1.8-1.3-2.5 1.8-1.3-0.2-1.6-1.6-1.7-2.4-0.2-1.3-1.5 2.5-3.9 5.8 0.2 2.7-5.1-0.2-2.1-0.8-0.2-0.1-1.8 3.3-2.7-3.9-3.9-0.2-0.9 5.1-3.1v-2.6l1.6-0.2 3 1.4 0.3 3.4-0.9 1.1 5.5 3.3 0.5-2.7 0.8-0.3-0.3-1.6-3-0.8v-1.9l1.8-3.5 0.3-4-2.4-3.1 0.5-3.3 3.4-4.5 0.6-3.3 1.6-0.7 0.1 2.2 1.9-0.1 0.5-2 2.5-0.6 0.3-1.9 1.4-0.6-0.6-1.3h-5.1l-1-1.2 0.8-0.6-1.6-0.9 0.5-4.5-3.1-1.7-0.6-1-1.8 1.4-9 0.5-0.9-1.5-1.8 1.7-3.8-1.1-1-2.5-2.4-1.8v-3.8l-3.1 1.7-4.8 8.3-2.1 0.6-10.2 6.3-1.8-0.5-3.5 2.9-0.7 4.1-3.7 5.9-1.7-1v1.5l2.7 2.6-1.4 3.6-2.8 0.3c0 0-3.1 2.6-3.5 2.6-0.4 0-4.1 0.8-4.1 0.8l-4.9 3.3-1.4 2.7-3.6 0.3-2.5 2.9-0.1 3-1.8 0.9-2.7 5.8 0.4 3.3-1.5 1.7-1.9 0.6v1.2l2.4 1.1 0.5 3.8 2.7 1 1.7-1.4v1.2l1.4 1.9-2.6 8.8-1.4 7.2-2.7 1 0.1 0.7 1.2 0.7-0.2 6.7 1.7 2.1-3.1 3.6 1.5 1.1 0.9 4.5 2.5 0.5-0.9 1.2h-7.1l-1.3-1.7-1.4 0.4-1.1 1.3-13.1 4.5-0.6 2.2-2.2-1.7-2.1 0.3-1.1 1.4-5.2-0.3-0.9 0.9-1.4-1.2-3.9 0.4-8.9 3.9 0.4 2.2-4.1 3.7-4.1 1.5-4.3-0.1-0.8-1.3-3.4 2.9-1.4 5.3-2.5 1.6 0.1 2.8-2.6 1-1-2.1-2.1 2.4-0.6 1.5-4.4 0.2-0.7-1.8-1.4 0.1-3.1 2.9-1.7-1.6h-2.1l-11.1 5.2-1.3 1.4-2.7-0.8-1.1-1.7-2.2-0.6 0.3-2 2.5-2 1.4-4.5-2.3-7.7-9.1-13.4 0.4-3.4-2.5-2.2 0.5-7.5 1.3-1.2-5.1-18.1 0.5-2.2 1.6-1.7-1.2-3.6-3.1-1.8-2 2.6-1.7-3.2 1.8-3.5-0.4-2.1-2.3-1.8v-1.6l1.5-3.1v-6.3l-2.9-20.1 6.6-7.1 0.3-0.9-7.9-7.8 0.1-1.2 1.8-0.9-1.3-7.4-3-0.8 0.2-2.3-1.9-1.7-3.3-0.2-0.3-6.4-1.3-0.5 1-2.2 5.1-1 5.2-4 2.3-0.1 1.5-3 0.2-4.6-1.4-1-1.9-0.2 0.2-1.2 1.6-0.3-1.3-0.7-0.3-3.1 1.5-0.9-0.4-3.7-1.3-0.2 0.1-0.9 1-1.4 2.3-0.2-0.1-1.3-1.4-0.8 1.4-0.6-0.1-1.3-1.4-0.6 0.6-1.9h0.9v-1.1l-0.8-0.5 1.5-0.5 0.3-4-3-0.2-2.3-1.9 0.5-2.2-5.3-0.1-1.3-1.7-2.2-0.5v-0.6l-2.7 1.7-0.9 3.5-5.1 3.7-0.6 1.8-0.8-0.6-6-3.6-3.5-0.3-5.8-3.6 0.4-1.6h-3.1l-0.6-1.2-2.3-2.2v-1.7l-3.2-0.6 0.1-0.5 1-0.3 0.2-3.6 2.4-1.3 0.9-2.6 1.7-0.8h1.7l0.1-1.5 2.2-2.1 0.4 1.4 3.5 0.1v-0.7l-1-0.8 0.7-0.8 1.4-0.5 2.5-0.7 0.7-2.2 3.4-0.2 0.8 1.9 1.3-1.6h4.8l0.2 1.6 2.2 0.1 0.7-4.6 4.3-3.2-1.9-1.3v-1.1l1.6-1.5 2.7 0.1 0.4 1.6 4.1 0.2 3.4-3.6 3.4-6.3-1.3-1.4 0.2-2.6h0.8l0.6 1.1 5.4 1 1 1h2.2l0.8-1.7 2.1-0.2 0.2 1.3 2.5 0.3 1.5-1.1 1.1 0.4 0.2 0.7h2.9l0.6 1.5h1.5l0.1-1.9 3.2-1.3v-4.5l2-1.2v-4.2l1.7-1.9h2.2l1-1 1.5-0.2 0.6 1.7 1.1-1.5 5.4 0.1 1.6 1.1-0.2 3.7 2.2 0.2 2.7 1.4v3.2l3.1 0.9 0.4-1.8 14.5-3.4 1.1-1.8h1.4l0.7 1.4 9.1-0.4 1.1-3.4 0.1-8.2-2.1-1.7h-2.1l-0.3-1.5 0.9-0.8v-2l2.1-0.5-1.6-2.6-1.5-0.7 0.4-7.2 5.5-4.3 0.2-3.1-1.4-0.8v-1.4l1.7-1.1 2.5 0.2 0.7-4-1.1-1h-2.5l-3.9-2.8-0.4-1.9-0.7-0.6 0.1-1.1h3.6l2-3.2 1.1-0.3 1.4 1 0.1-3.1 1.7-2.9 0.3-6.3 1.1-1.9h2.1l0.4-1.4-1.2-0.6v-1.1l-1.3-0.7-2.1 2.9h-1.1l-1.5-1.5-1.4-0.1-2.4-2.4h-3.8v-2.2l2.1-1-1.9-1.4h-2.2l-1.9-2.1h2.3l0.5-1.7 1.4-0.5 0.2-1.7-1.3 0.1-1.1-2.6-1.5-0.2-0.6-0.8h2.1l0.5-1.2 3.5-0.5 0.5-5.3 3.9-6 0.1-4.6-3.1-3.7-1.9-5.6 1-0.8h1.2l0.8-1.4-1.1-1-1.8 2.1-1.5-0.7-1-1.8h-0.7l-1.1 1.5-1 0.4-3.9 4.9h-1.1v-2.1l-1.5-1.1 3-2-0.5-0.9-2-0.2-0.3-2.8-1.5-1.2 2.4-2.4 1.4-5.7 1.9-2.2 2-0.6 0.1-3.5 2.2-1.4 0.5-4c0 0-1-4.4-1-4.4z"/>
		<path id="path3023" class="s1" d="m1024.1 1124.7c0 0-0.3-4.6 0.1-4.8 0.4-0.2 3.6-4.3 3.6-4.3l0.5-2.6h2.9l1.1-2.3-2.4-0.9 0.3-9.9-1.5-1.5 3.2-2.1 0.3-4 3.2-0.7 0.9-1.5 3.1-0.9 0.3-0.9 1.9 1.4 2.4-3.7 2.9-1.2 0.7-4.2-1.5-0.5c0 0-1.3-0.9-0.6-1.1 0.7-0.2 6.1 0.2 6.1 0.2l3-1.6 4.4-4.2 2.5-0.5 1.8-1.8-1.1-1.3-3.8 0.3-4.4-3.5 1.6-1.2 1.1-2.1 4.7 0.2 3.5-3.5-0.6-2.7 4-4.8 4.8 0.2 3.3-4.1 8.8-0.6 0.9-0.9-5.6-5.4-2.4-6.6 1.7-12.2-0.7-1.6-3.9-0.3-10.5-6.9v-2.6l-1.2-0.8 1.8-0.9v-1.3l-3.1-1-2.9-1.5-2.3 2.2-0.6 1.7-5.4 1.7-7.3-1.3-3.8-5.5 0.3-2.4 2.1-1.8-0.4-3.6-2.4-0.3-5.6-4.4 0.2-1.3 2.4-1.5-0.8-2.7-3-1.1-2.5-4.8-5.4-2.1 1.5-1.8 2.4-0.1 1.9 1.5 3.6-3.2-0.4-3.7 2.1-4.4 2.7 0.2v2.1l3.3 2.7 2.4-3.3 3.3-0.8 2.2-4.6 2.9-1.4 3.1-3.1-1.5-1.2 0.9-2 2-0.7 2.7-3.2-1.5-1.6 1-0.9-0.1-1.4-2.4-1.5 0.6-0.7 3 0.4 0.6 1.2 1.5-3.4-3.9-1.5v-1.7l1.2-0.9-1.7-1.3 2.3-2.3v-2.2l-1.5-1.4 1.8-1.5 1.6-10.2 2.9-4.9 0.3 2.5 0.7 2.1-3 3.3v4.2l2.6 1.7 1.9 6.1 2-1 9-0.2 1.9-1.5 6.8-1.9 3.1 1.2 2.1-1.1 1.4 2.6 3.1 0.9 6.3-1.7-0.4-2.7c0 0 1.2-0.1 2.1 0 0.9 0.2 2.2 1.5 2.2 1.5l3.1-0.1 2-1.7h2.5l3.2 2.7 3.6-1.9 0.6 1.2 9.1-2.3 1.8-4.8 2.1-0.3 1.4-1 1.8 1.3 6.7-0.1 0.8-1.1 1.9 1.4 2.4-4.4-0.9-3.4-1.9-0.3-2.3-1.5-1.5-3.8-1.8 1.7-3.1-3.5 0.6-2.1 4.5-1.3 3.3-3.5 2.2 0.2 0.8 2.2 0.9-0.1 0.9-3.6 4-2.6-0.3-4.5-3.7-2.5-6.3-8.9-2.7-5.4-4.8-3.1 0.9-1.5 2.1-0.6 1-2-0.4-1.5-1.7-0.1-1.2 1.3-1.6-1.6h-1.8l0.4-2.3 2.1-0.1 2.6-2.7-0.5-0.9-2.1-0.5-3.4-5.8v-1.2h-1.4l-1.5 1.5h-2.7l-0.7-1.4-4.1-0.7 0.3-1.2 1.1-0.3 0.7-2 3.3-1.9 2.7-0.2 1.1-1.2 2.1 3.3 6.7-2.5 2.7-0.2 0.3-2.2 2.4-1-1.9-0.9-0.6-1.8-2.4-1.7 0.9-1 9.1-1.7 2.4-4.2 1.8 0.3 1.1 3.9 4.2 1.5 3-2.1 2.1-0.4 6.9-5.7 1.8-0.6 4.5-6.2c0 0 3.9-3 5.1-3.7 1.2-0.8 0-1.8 0-1.8l6.6-4.1 4.3 0.5 4.1-5.7 3.3-1.4-0.3-2.1-1.2-0.7-0.2-2.7-0.9-1.8 1.5-1.8-2.7-3.3 2.1-1.2-2.1-4.7-1.6-0.4-1.1 1.2-1.3-0.2-2.6-1.9h-3.3l-2.2 1.5-0.9 3.4-3.3 2-0.3 1.5-1.8-2.6-0.8-0.6v-3.9l3.8-3.6 10.5-2.8 1.3-2.7 2-0.5 2.2-3.1 3.5-2 0.1-1.9-5.1-2.3-0.7-3-1.8-1.5 1.6-1.3 2.1-0.5 2.3-4.3 1.9-0.6 0.2-2 1.9-1.9-2.1-0.9 1.1-0.5-0.2-3.6-3.1-2 1.1-1.3 0.2-3.2 5-4.8h1.2l4-3.7h1.9l2.3-4.1-3.7-5.6h-1.2l-1.9 0.9h-3.2l-0.8-1.1 0.9-0.9-1.5-1.3 2-0.9-1.4-2.2 0.2-2.9 2.7-1.4h1.3l3.3-1.9h1.3l2.4 2 0.5 2 2.8 3.4 4.2 0.2 0.8 1.9 1.5 1.1 1.2 1.6-1.5 0.7-0.2 0.8h3l2 2.5 1.7-2.2 1.5-0.7 0.5-2.3 4.8-1.6 3.3-0.2 2.8-1.7 1-2.9 4.7 0.2 0.8 4.5-1.6 0.8-0.4 1.6 4.8 2.3 0.3 5.2h3.7l2-1.1 1.5 2.7-3.7 1.7 4.2 4.1 8 1.2 8.4-6.5 7.5 0.7 3 4.7 6.9 6.2 8.7 4.4-3.5 0.8 5.6 3.1 0.6 1.4 8.1 0.3 1.5-1.3 2.9-0.1 0.1 1.3-1.6 1.4 1.9 1-0.5 1.6-1.2 0.6-0.3 1.1 2 0.3 0.6-0.8 3.9-0.6 0.2 1.3 2.1 0.1 0.6-1.1 1.3-0.1 1.2 1.8 3.3-3.5 1.7-0.1 0.7 1.4 6.2 0.2 0.9 3.8-4.6 0.2-1.9 3 0.6 0.2-0.1 2.3-1.5 0.3-0.2 0.9 3.5 4-1.8 1.2-0.9 3.3-2.8-0.1 0.5 4.7 2.2 2.1 1.1 5.4 5.9 4.4 7.7 0.3 1.9 1.6-1.1 3.9h-1l-3.5 3.5-0.7 6.5-2.1 4-4.3 3.7 0.1 1.9 0.8 0.1 1.4 1.6 9.8 0.4 1.2-1.5 0.5-1.8 4.4-1.5 2.8-0.2 4.7 3.3 1 0.5 0.7-0.9 7.9-0.2 2.1 5.5 0.8 0.1 0.1-2.3 1.3-0.6-1.1-1.4 1.1-1.9 0.8 1.2 1.9 0.2 0.2-1.2 4.9-1.3 2.4 1.5-0.3 1.7 2.8 0.9 0.7-1.7 3.2-0.1 3.5-3.1 4.2-0.1 2.5-5.2h1.7v-3.1l-5.2-1.5h-2.3l-2 1.2h-4.3l-0.3-4.2 2.5-1.2 0.7-2.6 2.7-1.2-3.5-3.1 5.7-3.3-0.1-5.5 2.6-2.9-2.6-1.9-1.1-3.3-4.2-0.8-0.3-6.1 2.5-1.9 1.6-4.9 1.5-0.3 2.3 2.6 6.3 2.3 7.1 0.3 4 3.1 3.3 0.1 0.7 1.3 4-0.2 3.1-3.6 2.7-0.1 0.6 1.3 4.6 1.5 2.4 4.5 1.7 0.3 0.2-1.7 6-0.1v2.3l2.3 3.7 6.8 2.5 4.7 2.6 0.4 3.6 2.4 3.6 0.1 3.3-1.7 0.9-1.2 11.3 0.4 8 2.5 6.3v2.3l-1.2 5-2.3 2.2-0.3 7.4 3 8.7v2.5l-2 1.3 0.1 2.2 4 0.8 1.2-1.7 3.9 0.1 0.8 2.2-0.4 3.1-1.8 0.5-3.6 3.7 0.9 1.4-0.1 1.9 1.5 0.4-0.2 3.7-5.2 1.9-4.6 2.7-11.1 0.1-4.6 1.8-0.8 8.6 0.9 0.9v1.9l-2.9 1.3 1.1 1.3 0.5 6.5-1.8 1.8v1.4l1.1 0.6 0.4 2.8-14.5 2.7-3.9 2.9-9.5 6.4-0.4 9.5-3.9 5.1-0.2 2 1.6 1.3 0.1 3.3-2.1 2.6-5.3 0.5-5.9 6.6-0.4 2.7-1.3 0.7 2.7 4.1 1.6-1.2 2 4.1-0.1 3.7-1.8 0.4-1 2.8-1.7 0.5-0.4 2.9 2.3 0.7-0.6 2.5-2.7 0.3-0.8 1.9-3.3 3.7-4 0.5-4.3 3.9-2.4 0.1-0.2 1.4 3.9 2.8 0.5 3.1 5.2 6-1.8 1.9v1.7l2.1 1.1-1.7 3.3-9.8 4.5-1 5.4-1.4 1.4h-4l-1.9-2.3-1.6 1.8-5.4 0.6-0.3 4-2.3 3.5-0.3 5.3 1.3 1 0.4 2-2.5 4.6-3.1 1.7 0.5 6.5-0.9 0.5-0.1 0.9 1.9 0.5-5.2 2.2-3.6 5.1-3.1 2.1v3.7l15.3 5.8 3.4 4.4 2.1 0.6-0.1 1.4-2.2 0.7-0.6 1.8 2.2 0.2-4.1 3.7-0.7-4.1-1.7 2.2-2.3 0.1-1.1-1.5-1.8-0.1-1.6 1.6 2.7 2.7-1.7 1.5 0.3 1.8 2.9 2.2 0.1 0.6-3.7 0.2-3.2 1.4 4.9 1.3 1 3.4-2.6 1.5-1.2-1.9-1.4 1.8-0.2 1.8 1.7 0.8v1l-4.1-0.1-1.5 1.4 0.6 2.1 2.2 1.7 1.8 4.9-2.5 1.4 0.7 3.2 1.9 0.6 2.2 14.3 2.1 1.5 0.9-1.8 10.9 0.7-0.3-3 1.2-0.1 2.3 3.1-0.3 3.9 2.1 2.1v3.1l1.5 1.4 1.8 0.2 2.2 7.6 2 0.2 0.5 5.6 3 3.9 3.3 0.1 1.3 1.8-1.1 1.8-0.1 2-1.4 0.3-0.4 8.3-0.9 0.2-0.1 2.1 5.8 0.2 0.2 0.9 3.3 0.2 1.4-0.9 3.2-0.9 1.3-2 2.4-0.1 2.5 3.9 1.9 0.8 0.1 3.5 2.1 0.3 2.4 3.1v1.3l-1.4 0.4-1 1.9v1.8l-2.2 0.6-3.7 7.6v1.1l-1.4 1.3-1 4 2.5 2.3 11.6 5.6 1.2-1.4 1.3 1.9 2 1.7 0.5-1.9h2.1l1 2.9-3.6 0.4-1.4 2.1 1.4 0.9 0.9 2-1.3 0.5-0.6 4.3 1.3 0.7 1.5 4.4-3.3 3.7-1.4-1.8h-3.1l-2.8 2.1-0.1 2 1.6 0.4 0.3 1-3.9 2.5-0.7 3.5-1 7.1-5.5 4.2-4.8 1.3-0.5 5.1 1 2.4 5.5 0.4 1.6-2.3 2.3 2v2.5l-3.1 0.3v1.3l3.2 2.3 0.1 2.4-1.8 0.3-3 4.6-2.7 0.1-5.4 4 1.3 0.4 0.6 2.4c0 0-4.8 3.3-5.6 3.3-0.7 0-3.4-0.4-3.4-0.4l-3.4 2h-3.4l-0.4-0.8-4.7-0.7-4.4-2-1.9-3.2h-2.7l-0.7-2-4.7-0.4-2.3 1.5 0.7 1.2-3 1.1 0.7 1.7 1 0.6v2.4l-1 0.4-0.4 1.9 1.6 0.8-2.5 2.7-3.3 0.1-1.6 1.8-3-4.1-3.3-0.1-2 3.1-0.9-0.2-1.1 1.4-2-2.1-1.2 1.8-1.2-2-0.8 1.8-1.7-0.6-1.1-1.9-3-2.3h-3l-3-2.7-3.9 0.4-1.4-2.6-1.3-0.1-1.4 1.1-5.4 0.4-1.4 4-2.8 0.1-2.7 4.7-3.4 1.6-2.8 5.6 3.2 2.7-0.2 2.7-3 4.6-1.2 4-4.1-2.9 2.2-0.9-3.3-1.1v-4.1l-4.6-2.8-9-2.6-2.1 1.4-0.7-0.1-3.2-2.8-3.9 3.7-0.9 5.5-8.3 4.4-17.1 1.4-1.2 1.5-0.8 4.2-2.3 1.4-3.5-2.7-0.2-3.7 1.6-1-6.6-3.9-0.8-1.9-1.7-0.2-0.1-0.8 3.9-2.1 1.2-2.1 3 0.1 0.2-3.7-1.7-1.8 2.1-1.6-0.2-2-9.3-6.6-1.3-2.9 2.8 0.1 0.3-3.1 2-1.3c0-0.9-0.1-3.9-0.1-3.9l-2.7-1.4-4.1-0.2-2.9-10.9-1.8-2.6 2.3-1.7-2.2-1.5-0.7-2.7-2.8-0.2-4.1-7.4-4.1-0.8-2.6-3.8-8-3.7-4.8-0.2-4.4-2.5-0.4-2.3h-2.2l-1.6 1.2-0.8 5.9-3.8 3.1-5.3-0.4-2.5 2.9-2 0.2-0.2-4.1-1.7-2.2-0.6-4.3-1.4-1.6 1.8-1.5 1.8-3.8 6-7.1 0.2-1 2.8-0.1 0.2-3.5-7.6-6.1-4.3-6-3.9-0.8-6.1-6.1-0.5-3.2-5.1-3.8-1.5 1.1h-3.1l-3.8 4.9-2.5 1.8-0.6-2.7-3.1-1.2h-5.3l-0.9 1.7-4.2-2.8-2.2-3.1-1.6 2.7-3.5-0.6h-6.5l-2.6 1.1h-2.8l-0.9-14.3-4.9-2.7-1.4 5.4-1.6 0.5-1.7-1.9-5.5-0.3-2.4-3.2 0.1-2 1.4-0.3-1-4.4-1.7-3.1v-4.1l-7.8-9.7-0.7-3.2-4.7-4.1-1.6 2.4-8.4-0.3-1.5-3.5-5.6-1.8-4-1.2-15.1-7.5 0.1-3.4-3.1-3.7-1.6-1.1 1.5-1-0.5-2.2-8.8-0.4c0 0-3.1-1.6-3.1-1.6z"/>
		<path id="path2973" class="s1" d="m778.8 497l5.5-0.6 12.4-7.6h3.6l10.5-6.6 7.8-2.5 0.5-1.5-4.8-2.5-1.9-3.4-3.2-0.6-2-1.8 1.8-2.4-3.2 0.3-0.2-1.5 2.9-1.9 0.1-3.3 3.8 0.2 4-1.3 0.7-1.8-0.8-0.5-2.7-3.3v-9l-2-2.1-0.7-2.7-5.6-1.4-0.2-1.5-2.5-3.3-1.4 1.8-1.3-1.4-1.6-0.4-1-1.9-1.6-0.2-1.1-4.4 3.9-5 1.6 0.4 0.4-1.7-1.6-1.6-2.3-6.3 2.3-1.6-3-1.3-0.4-1.1 2.7-1.8-4.8-1.9-3.4-3.3 0.7-2.1-3.9-1.1-2.6 2.3-4.1 0.2-2.2 5.7-1.6 0.4-0.5 2.5-6.7-3.6-14 0.2-4.1 4.9-3.6 0.2-1.4 2.5-3.9 0.4-2.5 2.9 2.5 0.6 0.4 4-5.5 6.2-2.3 3.4 0.8 2.1 3.4 2.3-0.2 1.2-1.7 0.4-0.6 1.7 2.7 1.9-0.4 1.4-1.9 0.1 0.7 3.9-1.4 3.6-0.6-2.1-3.1-0.2-2.4 2.1h-3.5l-2.7 2.7 1.6 1.2-0.3 1.5-1.6 2.3-2 0.2-1.4 1.9v2.9l1.4-1.7 2 0.6h1.9l0.7 2.8 3.6 1.6h3.2l1 2.3 3.1 1.5 1.4-1.5 3.4-0.4 2.4-2.9h1.5v1.8l-1.5 2.1-0.1 3.4 2.6 2.3h3.6l1.2 2.7 0.2 5.4 3.5 6.7 3.8 1.4 6-1.2 3 2.1h5.2l4.7 2.1z"/>
		<path id="path2975" fill-rule="evenodd" class="s1" d="m718.2 317.3l-2.4-2.3-1.5 0.2-3.6 2.5-0.5 2.4-6.3 1.6-4-5.1-3.6 0.1 0.3-5.3 2.8-1.2 0.9-2.8 1.5-0.2 0.4-3.5c0 0-1.8-2.9-2.9-1.1-1.1 1.8-1.4 2.1-1.4 2.1l-1.2-0.1-1.4-3 1.9-10.9-1.3-3.6-5.2-2.4-0.9-4.1 2.5-5.3 4-0.9 5.5-6 4-5.8 3.9-0.2 6.3 3 1.4 1.3 8.1 0.6 6.7-5.4 16-1.3 5.9-5.4 2-5.8-0.5-18.5-1.3-1.6v-2l1.7-1.9v-3.9l-2.4-1.2h-3.1l-0.5-2.4 1.5-1.2 0.3-5.8-2.3-4.1-0.9 1.8-2.2 0.1-1.3-1.9-0.4-3 2.9-1.7-4.6-10.8-1.7-12.5-2.3-1.7-0.6-1.9 1.1-0.9 0.3-2.9 2.9-0.1 1.2-2.8 6.6-6.2 1.8-4.7-0.5-3.7-5.7-4.5-6.3-0.7-6.9-5.5-3.1-8.2 1.2-3.7 1.7-1.2-0.3-9.8-5.3-6.9-5.9-1.9-5.3-3.2-4.4-5.8-0.6-5.5 47.8-1.9 2.4 12.2 11.1 0.4 2.7 1.7 8 0.4 10.7-7.1 3.5 0.4 1.1-1.7-2.5-2.4 2-1.8 0.1-2.6-2.4-0.7-13.3-18.5-2.8-6.8-1.5-1.2-0.3-1.3 4-2.5 1.5-3.9 1.7-0.7 0.9-2.4-2.6-0.8-0.4-2 1.6-1.3-2.3-2-3.9-0.1-1.6-1.6 2.4-1.2 2.1-2.2 2.9 0.2 1.3-1.7 10.5-6 8.6-3.6h6.2l3.2-2.5 2-2.6 24.8-2.7 0.6-1.4 1 0.1 2.9 4.4 2 0.6 0.3 2-1.1 1.1-4.2 7.5-0.4 3.4-2.5 3.7 1.2 1.1 0.8 15.5 0.8 1.1 1.4-1.9 11.1-3.4 2.2-1.7 3.6 0.1 22.5 4.1 1.3 1.8 3.7 0.9 2.1-2.5 1.3-0.6 1.1 1.5 1.1-0.9 3.1-0.2 1.3-9-2-1.8v-1.3l8.2-5 2.5 0.2 2.3-2.2 0.2-2.7 4-4.8 4.6-1.3-0.8-1.2 0.6-1.6 2-0.3 3.1-6.9 3.6-2.4 4-2.4 0.8-3.9 5.1-4.2 4.3-1.3 3.3 0.5 2 3.6 3.1 0.4 1.1-1.3 1.9-0.6 0.2 1.2 1.5 1.5 5 1.8 0.3 2.9 2.2 4.7 2.8 0.4 1.1 1.4 0.7-1.6h2l1.1 1-0.2 5.2-1.5 4.4 0.3 3 2.6 1.4 0.1 1.4-2 0.7-0.8-1-1.7 1.5-1.1 3.7-2.5 1.6-0.3 3.5 1.1 1.8 0.5 7.8 1.3 3.1 3.6 0.7 1.2 1.9-1.5 0.9-3.7-2.7-6.7-2.7h-2.2l-2.9-2h-5.5l-0.3-2.2-3.7-0.3-3.9 2.4 1 0.8v7.2l3.2 3.6h2.2l1.1 1.5 19.7-4 2.6 0.5 0.9 1.1 2.3 0.1 0.9-1.6 1 1.1 2.9 0.4 0.8 2.1 2.4 0.4v-2l3.4-2 1.3 0.6 6.3-0.1 1.4 1.4 3.9 1.7 2.3 4.5 3.3 1.7 0.2 0.7 1.5 0.2 0.3 1.1-2.6 0.3-0.9 0.9 1.7 2.1 1-2.1 2.3 0.1 4.6-5-2.8-1.5-1.1-1.5 2.1-1.7 0.6 1.8 1.9 1.1 3.8-2.1 0.1-3 7.1-8.3 15.9-11.4-0.3-5.4 2.1-1.2 0.6-4.2-1.6-1.4-0.1-5.5 4.8-3.4 1.4-4 6-4 2.1 1.3 0.2 1.9-1 0.9-0.5 1.8 3.8 4.4 13.1 0.4 1.7 2 6.1 16.3 2.3 2.4-0.1 3.5 0.7 1.1-0.4 2.6-5.9 8.7-0.3 3.6-3.1 2.5-0.2 2-2.4 5.1-1.5 0.5-0.4 1.3 9 8.5 0.4 2.2 4.1 4.8h2.8l0.1 2.1 4.6 5.8 0.1 1.7 4.7 4.9 1.3 21.4 12.2 2.7 2.2-2.9 9.6-3.9h5.8l7.5 5.7 6.6 3.5 0.7 4.7-6.9 19.9 0.2 1.4 3.5 1.9 1 2.2-5.8 7.5-1.4 0.5-1.9 5.6 0.3 17 1 1.8 2.1 0.8 1.8 3.7 1.3 1.1 2.7 0.1 3.7 5.5 6.6 7.3-0.2 25h-1.7l-5.7 5.5-3.4 3.1-2.4-0.2-3.9-4.4-6-0.3-0.2 5-3.2 5.6-6.7 3.8h-1.9l-0.9 1h-1.4l-0.8-1.5-8.3-0.3-1.2 1.6h-4l-0.6-1.4h-1.2l-1.1 1.1v3.6l-3.1 3.6-7.4 6.7-2.5 1.2-1.3 5.5-4.2 1.7-7.9 1.2-11.9 4.9-9 0.4-1.4-0.9-1.2 0.5-0.6 2.9 1.5 0.6-0.8 1.3-1.5 6.1-2.9 0.2-7 14.8-0.8-2-4.4 0.2-1.3-2.5 0.1-3.3-1.7-0.3-3.9 5.6-6.4 0.1-0.9 1.5-1.2-1.6-1.6 1.9h-1.8l-0.6-1.6-1.5 0.8-3.4 0.3-3.1 3.8-0.4 3.3-6 1.2-2.1 1.9-2.3 0.1-0.9-1.8-2.8-0.1-3.7 1.3-1.1 2.6-3.6 0.8-4.8 3.3-1.3-1.7-1.2 1.1-4.1 0.1-1.6 0.9-3.9 0.1-0.1-6.2-1.2-0.7-0.8-4.4-2.8-0.5-4.6-8-0.8 1.9-5.2 2.1-5.2 7-3.7 0.8-4.8-2.8-2.7 1.5-1.1 3.8-2.8 0.8-5.2 2.9-1.4 5.8-2.3 3.6h-2.8l-0.2-1.6c0 0 4.9-4.6 4.9-5 0-0.4 0-4.6 0-4.6l-7.1-0.9-1.2-3.6-2.9-0.2-8.6 3.4c0 0-0.4-1.6-1-1.7-0.5-0.1-3.2-0.1-3.2-0.1l-6.3 2.3-2.5 4.6-2.2-0.2-1.7-1.3-3.7 0.3-1.9 1.1-0.8 6.9-2.4 0.8-0.6 0.7 1.7 0.8v1.3l-5.3 0.2-1.2 2.3-2.3-0.5 0.9-2-3.8-2.9-0.9 0.9 0.4 1.1-0.3 1.1-2.1-1.6v-1.4l0.5-0.3-0.2-2.1-1.8 1.2-1.8-1.2h-4.7l-2.7 2.4h-2.3l-0.9 1.1-0.4 3-2.4-0.1-1.3-1.8h-1.6c0 0-6.3-5.8-6.9-6.1-0.5-0.4-3.5-1.9-3.5-1.9l-0.5-1.1h-1.3l-1.2 0.8-0.3 4.3 1.8 1.6-0.6 2.8-2.4 0.3-0.9 2.5-1.2-1.4-4.3-0.9-3-2.5v-2l-2.3-2.2-0.7-1.2-11.8 4.7-1.5 2h-1.4l-1.2-2.3-7.4 1.1-1.1 1.2-1.5-6.2-0.1-2.8-1.3-1.5-4.4-0.6-1.2-0.8-1.5 1v-4.1l1.1-1 0.6-2.6 2.8-2.7-0.2-1-2 0.1-0.8-1.2-0.3 2.5-4.1 2.4-1.1 4.7-2.5-0.1-2.3-1.2-2.4-0.1 0.1-1.5 1.8-1.3-0.3-2.4-11-0.3-5-5.9-7.5-3.5-1.8-0.1-1.3 1.5-0.9-2.3h-5.4l-3.4 4.3-3.1 0.1-1.9 1-0.5-1c0 0-3.2-1.8-3.2-1.8zm292.2-258.5l-1.5 2.2-1-1-3.2-0.6-1.7-1.4-3-0.4-0.2-0.9 2.2-0.8-1-2.6 1.5-1.5-1.3-1.9v-1.2l3.7 1.1 0.4 1.2-1.9 1.2 2.2 1.5 0.9-2 1.2-2.6-0.9-2 1.1-0.8 2.3 0.4 2.8-1.1 0.7-2.5 2.7 2.7-2.7 4.5-2.1-1.3-2.6 3-0.5 2.3h1.4l0.8 1.2-1.5 1.1c0 0 1.2 2.2 1.2 2.2z"/>
	</g>
	<g id="layer4">
		<path id="path4434" fill-rule="evenodd" class="s2" d="m352.8 98.7l1.1 1.4 1.1 0.2 0.1 1.1 1 2 1.7 1-0.1 2.5-1.1 0.6 0.2 3.4 2.9 4.7 1.1 0.4 1 1.8-0.2 4.7-1.1 0.2-2 4.3-3.6 2.3-2 3.9-1.6 0.7 0.4 2 3 1.7 1.2 2.9 3.3 2.2-1.2 0.4-0.8 2-2.7-0.6-1.2 1.7 3.4 4.5 2.8 0.9 0.5 2.3 1.7 1.4-1.7 0.6-0.2 1.3-0.9-0.1-1.7 1.5 0.6 1.4 0.7 0.4 1.3 1.9 0.7 0.6 0.6-1.2h1.5l1.1 0.9 2.6 5.1 4.1 2.2 0.2 2.3 2.1 1.5 1.9-2.9 4 3.4-0.1 3.9 1.3 2.5 7.3 1.9 6.1 0.2 28.3-3.1 0.2-1.2-4.2-23.6-1.1-0.6-0.1-0.7 1.5-0.3 1-1h2.8l1.9 1.3 0.6 1.7 2.6 0.6v-3.5l1.6-2.4h2.2l0.9 1h2.1l1.6-4 1.3-0.5 0.4 1.5 4.3 4 2.3 0.5 0.7 0.7 0.1-2.8 2-0.1 0.6-0.9-4.2-4 2.3-1.8h1l1.1-3.3 4.2 3.8 14.7 6.9 0.8 1.1 1.8 0.7 1.5-1.6 5.9-0.1 6.1 3.6 1.5 2.5 4.9 0.9 8.6 5 5.5-0.2 1-1.7 0.7 1.3 10.9 1.4 3.9 6.1 2.6 1.7 0.4-1.2h0.7l1.4-2.7 0.2 1.5 2.6 0.5 2.5 2.9 3.3 0.8v1l-2 3.5-0.4 10.3-0.6 0.4-0.6 3.1 1.2 1.5 0.4 6.8 3.7 3.2 1.3 0.1 0.6 0.9 1-3.5 0.7 0.9 5.2 2.4h3l2.5-2.4 2-0.7 0.3 1 5.5 0.5 2.2 0.8 1.8-0.7 5.1-4.4 5.7-2.4 2.6 1.8v1.9l-4.1 4.2-2.1 0.3-0.7 1 1 1.2 1.9 1.2 0.6 1.8 1.1 0.5 0.8-0.9 8.2-1.6 2.8-2.4 0.9-5 2.6-0.9 1.7-2.5 0.9 1.3 1.1 4.4 1.9 0.3 1.1-1.8 4.9-1.7 0.9-0.1 0.2 1 1.3 0.3 2.3-5.4 2.6-1.3 4.4 0.3 1.2-5 5.6-3.2 5.8-5.1 3.6 0.1 2.1 2.7 1.4-1.4 2.2-0.3 1.2-2.1 1.1 2.1v1.2l3.3 0.6 1.1-1.4 2.3 0.4 2.9-0.5 3.7-4.2 10.1-6 30.6-21.9 1.9-2.9 21.2-26.4 7.1-10.3-2.7-1.7-4.4-5.8-0.6-5.5 47.8-1.9 2.4 12.2 11.1 0.4 2.7 1.7 8 0.4 10.7-7.1 3.5 0.4 1.1-1.7-2.5-2.4 2-1.8 0.1-2.6-2.4-0.7-13.3-18.5-2.8-6.8-1.5-1.2-0.3-1.3 4-2.5 1.5-3.9 1.7-0.7 0.9-2.4-2.6-0.8-0.4-2 1.6-1.3-2.3-2-3.9-0.1-1.6-1.6 2.4-1.2 2.1-2.2 2.9 0.2 1.3-1.7 10.5-6 8.6-3.6h6.2l3.2-2.5 2-2.6 24.8-2.7 0.6-1.4 1 0.1 2.9 4.4 2 0.6 0.3 2-1.1 1.1-4.2 7.5-0.4 3.4-2.5 3.7 1.2 1.1 0.8 15.5 0.8 1.1 1.4-1.9 11.1-3.4 2.2-1.7 3.6 0.1 22.5 4.1 1.3 1.8 3.7 0.9 2.1-2.5 1.3-0.6 1.1 1.5 1.1-0.9 3.1-0.2 1.3-9-2-1.8v-1.3l8.2-5 2.5 0.2 2.3-2.2 0.2-2.7 4-4.8 4.6-1.3-0.8-1.2 0.6-1.6 2-0.3 3.1-6.9 3.6-2.4 4-2.4 0.8-3.9 5.1-4.2 4.3-1.3 3.3 0.5 2 3.6 3.1 0.4 1.1-1.3 1.9-0.6 0.2 1.2 1.5 1.5 5 1.8 0.3 2.9 2.2 4.7 2.8 0.4 1.1 1.4 0.7-1.6h2l1.1 1-0.2 5.2-1.5 4.4 0.3 3 2.6 1.4 0.1 1.4-2 0.7-0.8-1-1.7 1.5-1.1 3.7-2.5 1.6-0.3 3.5 1.1 1.8 0.5 7.8 1.3 3.1 3.6 0.7 1.2 1.9-1.5 0.9-3.7-2.7-6.7-2.7h-2.2l-2.9-2h-5.5l-0.3-2.2-3.7-0.3-3.9 2.4 1 0.8v7.2l3.2 3.6h2.2l1.1 1.5 19.7-4 2.6 0.5 0.9 1.1 2.3 0.1 0.9-1.6 1 1.1 2.9 0.4 0.8 2.1 2.4 0.4v-2l3.4-2 1.3 0.6 6.3-0.1 1.4 1.4 3.9 1.7 2.3 4.5 3.3 1.7 0.2 0.7 1.5 0.2 0.3 1.1-2.6 0.3-0.9 0.9 1.7 2.1 1-2.1 2.3 0.1 4.6-5-2.8-1.5-1.1-1.5 2.1-1.7 0.6 1.8 1.9 1.1 3.8-2.1 0.1-3 7.1-8.3 15.9-11.4-0.3-5.4 2.1-1.2 0.6-4.2-1.6-1.4-0.1-5.5 4.8-3.4 1.4-4 6-4 2.1 1.3 0.2 1.9-1 0.9-0.5 1.8 3.8 4.4 13.1 0.4 1.7 2 6.1 16.3 2.3 2.4-0.1 3.5 0.7 1.1-0.4 2.6-5.9 8.7-0.3 3.6-3.1 2.5-0.2 2-2.4 5.1-1.5 0.5-0.4 1.3 9 8.5 0.4 2.2 4.1 4.8h2.8l0.1 2.1 4.6 5.8 0.1 1.7 4.7 4.9 1.3 21.4 12.2 2.7 2.2-2.9 9.6-3.9h5.8l7.5 5.7 6.6 3.5 0.7 4.7-6.9 19.9 0.2 1.4 3.5 1.9 1 2.2 2.9-1.5 7.9-3 0.2 1.4 12.5 2.4 1.3 1.3 0.4-1.6 5-0.2 2.2-2.2h0.7l0.5 1.9 6.6 0.8 5.1-5 0.2-2-1-0.7 1.9-1.6 0.7 1.1 2.8 0.2 9.2 1.7 17.2 6.1 2.2-0.3 5.6-8.4 3.4-1.5 0.6-3 3.2-0.9 6.1-0.3 6.5-5.3 2.3-4.8 2.9-0.7 10.3 3.5 1.3 3.3 8 9.2 8.5 6 1.4 3.3-0.8 2.2 0.4 8.2-1.4 1.2 2 12.7 2.6 2.8 10 3.1 16.2 7.8 11.4 4 0.7 2.6-1.6 0.7 1.2 1.3 1.4 3.1 2.2 1.1 1.1-1.2h3.2l3.2 3.1 1.3-1.8 1.3 1 0.8-0.8 2.5-0.1 0.6 0.7 3.7 0.1 2.4 2.3 3.7-3.2 6.9-0.1 4.9-2.6h2.9l2.7 3.3h3.8l4.9 3.2-1.7 3.3 1.4 0.9 0.8 1.1-2.4 0.7-0.9 2.5 0.8 1.8 1.1-1.9 0.8 0.8 1.2 0.8 0.8 2.1-3.1 2.4-0.2 1.5 3.2 2.9 2.4-1.7 0.2-1.5 5.6-1.5 1.5-2.9 1.8-0.7v0.8l3 2.2 0.9-2.9 3.9-2.9 0.3 2 1.5 0.3 2.9 4.2 1 2.7 4 3.9 2.8 0.7 0.8 1.4-3.4 0.6-2.8 3.1 0.9 4.8-3.5 1-5.2-0.4-2.7 3.9 0.2 1.4-2.4 0.2-2.2 3.9v3.8c0 0 1.7 1 2 1.5 0.2 0.5 5.3 0.7 5.3 0.7l3.2 1.5 1.2 3.3-4 4.5h-2.5l-1.9-2.1h-4l-5.2 4.4 1 0.7 0.1 1.4 3.1 3-0.2 3-2.1 1.6-0.9 1.8 1.1 0.8 1.2 6.4-3.2 1.5-5.2-2.2h-4.3l-0.3 5.6-2.8 7.8-2.6 3v3.2l0.9 1.9 3.3 0.1 2.6 2.1 0.5 3.2-4.1 6.5-0.2 3.2 1.2 1.1-1.1 4.4-5.8 6.3-0.7 3.8c0 0-3.9 2-4.8 2.4-1 0.3-2.3 2.5-2.3 2.5l-0.3 1.9-5.5 4.7v4l1.8 2.7 4.7 0.4 3.7-5.5 1.7-0.1 2.3 4.3 1.7 0.1v3.9l-2.3 1-1.2 0.1-2.9 4.7-0.5 3.7-6.6 7.7-0.7 9.3-1.8 0.9-2.8-0.1-1.8-2.1-3.3 0.2-2.3 2-1.1 1.1 1 0.5 0.1 2.5-2 5.3-4 2.5-2.1 5.5-5.9 1.6-8.5 4.6-0.5 0.9 2.6 1.2-0.5 0.8-2.7 2.4-0.1 2.9-1.1 1 1.5 1.1-1.2 1.8 0.1 3-1.3 1.1-0.1 0.6 2.6 3.2 0.6 2.7 2.4 2.6 0.8 5.2 1.4 0.2 0.5 4.7 9.8 1.6 3.9 4 3-0.2 2.6 3.6-0.4 3-3.3 4 2.6 3.4 0.1 2 2.4 1.9v2l-2.7 2.5v3.3l-3.8 5.5-1.6 0.7 0.1 2.3 2.9 0.5 0.3 1.5 2.2 0.3 0.5-1.1 2.9-0.4 3-3.2 2.3 1.7 1.2-3.7 1.1-0.1 2.6 4.2h4.5l1.1-1.3 0.5-4.3 3.3-3.2 3-0.8 5.2-6.8 3.7 0.3 0.7 5.2 2.3 5.4h1.4l2.1-1.6 2 1.5 0.9 3 3.2 4.5 3.9 0.3 2.5-2.3h2.1l2 1.6 1.4-2.8 3.3-3.2h1.5l1.2 8 1.6-0.4 1-3.5 7.5-4.7c0 0 3 0 3.8 0 0.7 0 2.4-2.2 2.4-2.2l3.1 5.8-2.2 1.7 0.7 1.9 4.6 3.1 1.5-1-0.1-1.9 2.4-0.3 2.5 3.3 1.5 0.2 5.2-4.9 0.7 1.2 1.9 0.6 6.9-4.5 5.5 0.8 3.9 4 2.5 0.4 1.5 1.5 3.6-0.3 0.9-1.4 1.2 2.2 0.8-2.1 6.9-1.5 4.4 4.4 6 2.3 0.4 5.9-2.2 1.6-0.1 1.9-1.7 1.3 1.7 0.8-0.5 4.8 1.5 2.2 2.7-2.8-0.1-4.1 2.8 2.2 8.9 2.5 7.3 0.1 1.4-1.7 1.1 1.3 1.5-1 5.4 0.2 4.3 2.4 1.8 9.4 7.9 9.6-0.3 5 4.3 4.8 4 1.7 0.9 6.7 3.9 4.2 4.3 1.4-0.1 4.4-1.2 1.4-4.8 0.3 1.3 3.5 2.3 2 1.8 0.2 1.1 3.4-2.9 0.6v1.2l2.2 2 2.8-2.7 1.1-3.1 3.1-0.1 0.7 1.2 1.2-1.7 0.5 1.4 4.6 0.3 1.6-1.3 0.9 2.2 2.4 0.1 1.9 2.2 7.8 0.7 1.4-1.5 6.1-0.3 2.2 3.3-0.8 2.5-1.7 1.3v2.7l-2.5 1.9-0.9 0.1-0.6 2.2-2.4 0.4-0.4 1-2 1.3 1.7 0.7-0.2 2.8-5.4 6.9-2.5-3.2-1.5 0.2-1.5 4.3-3.3 3.6-3.4 0.9-1.8 4.7-3.3 2.4-3.3 0.7-4.4 4-1.3 0.6-0.2 1.3 1.1 0.6 0.2 9 5.2 0.1 2.2 3.5 2.3 0.1-0.1 1.4-1.9 0.6-0.3 1.4-3.2 2.5 1 0.9 0.9 2.1 6.5 0.1-0.1 1.9 2.1 2.2 6.9 13.7 1.3-2.2 8.8-3.9 1.2 0.2 0.2 1.9 3.5 0.7 3.2-3 4.4 0.6 0.8 2.2 2.7 0.2 4.4 1.2 3.4-2.7 4.1 3.6 5.9 1.9 1.9 2.2 3.7-0.4 1.1 0.8 1.1-1 1.6 1-0.5 1.3-2.4 0.7-2.3 2.1-0.1 4.4-1.1 0.7-0.1 1.8 2 0.1 0.8 4-1.4 0.8-0.2 1.6 3.9 3.3 5.5 1.1 1.5 1.7 0.8-1.7 2.4-0.1 1.9 4.5 0.7 10.9-3.3 2.4 0.6 2.7-2.2 2.2-0.2 2.4 1.1 0.8-0.3 7.1-1.5 4.2-2.6 0.8-0.2 3-5.8 5.2-0.2 2-1 0.6 3.5 1.6 7.2 6.5 1.5 4.7-1 1.2 2.3 0.3 1.1 1.9 4.5 1.7 0.3 0.9 1.1 0.5 5.1 4.4 0.4 3.1 1.3 1.2 0.4 8.3-10.1 2-5.9 6.4-0.3-2-3.7 0.3-1.1 2.9 2.1 1.1 0.4 1.8-4.9-3.3-3.7-5-0.8 1-1.5-1.5-0.9 0.6-0.2-3.8h-3.4l-3.3 2.8-0.7-1.2-3.6-0.5-2 2.2 1.5 1.4-0.4 4.1-2.6-0.8-2.1 2.6 1.8 1.5-2 3.5-4.2 3 0.8 2.8 0.7 0.9-1.3 2.1v1.9l2.5 2.2 0.2 1.8-5.2 3.5v1.5l-7.6 3-1.2-1.4-5.8 2.8-3.4 0.4-0.3 1.1-1.1-2-1.2 2.3-5.6-0.5v2.7l-1.3 1.2-0.7-2.3-3.3 2.6-0.3 4.3-5.2 6.1-4.9-0.4-4.4 3.3 1.7 1.4-1 3.5-4.7-0.1-0.2 3.8 7 2.4 1 5.9 2.2 0.9-1.2 9.3 1.2 1.1 0.8 2.3-1.6 1.4 2 0.5-1.4 3.1-8-0.2-0.2-1.3-3.2 2v4.5l-1.1-0.1-1.9-3.8-3.5 0.3 0.2 2.3 1.5 1.7-4.1 0.6-0.5 2.3 2.2 0.6 1.6 3.4-1.7 3.8-5 0.3 0.4 1.5 3.4 0.4 0.6 2.5 2.8-3 2.6 0.5-1.6 8.8-6.7 3.2-0.5 2-2.5-1.3-0.9-2.7-2.8-0.9-3.1 0.2 0.4-3.8 3.3-4.7h1.4v-0.9l-3.7-3.1v-1.7l1.3-0.2-0.4-4.7-4.4-1.1-1.3-3-1.2-0.1-1.2 1.9-1.9 0.4-1.6-1.1-4.9-0.8-1 3.1 1.9 1.6-1.7 5.1-1.7-1.3-3.9 4.5-2.2-2.1-6-2.4h-1.9l-4.7-4 0.6-5.9-2.7-4.8-5.2 1.8-4.6 2.7-11.1 0.1-4.6 1.8-0.8 8.6 0.9 0.9v1.9l-2.9 1.3 1.1 1.3 0.5 6.5-1.8 1.8v1.4l1.1 0.6 0.4 2.8-14.5 2.7-3.9 2.9-9.5 6.4-0.4 9.5-3.9 5.1-0.2 2 1.6 1.3 0.1 3.3-2.1 2.6-5.3 0.5-5.9 6.6-0.4 2.7-1.3 0.7 2.7 4.1 1.6-1.2 2 4.1-0.1 3.7-1.8 0.4-1 2.8-1.7 0.5-0.4 2.9 2.3 0.7-0.6 2.5-2.7 0.3-0.8 1.9-3.3 3.7-4 0.5-4.3 3.9-2.4 0.1-0.2 1.4 3.9 2.8 0.5 3.1 5.2 6-1.8 1.9v1.6l2.1 1.2-1.7 3.3-9.8 4.5-1 5.4-1.4 1.4h-4l-1.9-2.3-1.6 1.8-5.4 0.6-0.3 4-2.3 3.5-0.3 5.3 1.3 1 0.4 2-2.5 4.6-3.1 1.7 0.5 6.5-0.9 0.5-0.1 0.9 1.9 0.5-5.2 2.2-3.6 5.1-3.1 2.1v3.7l15.3 5.8 3.4 4.4 2.1 0.6-0.1 1.4-2.2 0.7-0.6 1.8 2.2 0.2-4.1 3.7-0.7-4.1-1.7 2.2-2.3 0.1-1.1-1.5-1.8-0.1-1.6 1.6 2.7 2.7-1.7 1.5 0.3 1.8 2.9 2.2 0.1 0.6-3.7 0.2-3.2 1.4 4.9 1.3 1 3.4-2.6 1.5-1.2-1.9-1.4 1.8-0.2 1.8 1.7 0.8v1l-4.1-0.1-1.5 1.4 0.6 2.1 2.2 1.7 1.8 4.8-2.5 1.5 0.7 3.1 1.9 0.7 2.2 14.3 2.1 1.5 0.9-1.8 10.9 0.7-0.3-3 1.2-0.1 2.3 3.1-0.3 3.9 2.1 2.1v3.1l1.5 1.4 1.8 0.2 2.2 7.6 2 0.2 0.5 5.6 3 3.9 3.3 0.1 1.3 1.8-1.1 1.8-0.1 2-1.4 0.3-0.4 8.3-0.9 0.2-0.1 2.1 5.8 0.2 0.2 0.9 3.3 0.1 1.4-0.8 3.2-0.9 1.3-2 2.4-0.1 2.5 3.8 1.9 0.9 0.1 3.5 2.1 0.2 2.4 3.2v1.3l-1.4 0.4-1 1.9v1.8l-2.2 0.6-3.7 7.6v1.1l-1.4 1.3-1 4 2.5 2.3 11.6 5.6 1.2-1.4 1.3 1.9 2 1.7 0.5-1.9h2.1l1 2.9-3.6 0.4-1.4 2.1 1.4 0.9 0.9 2-1.3 0.5-0.6 4.3 1.3 0.6 1.5 4.5-3.3 3.7-1.4-1.8h-3.1l-2.8 2.1-0.1 2 1.6 0.4 0.3 1-3.9 2.5-0.7 3.5-1 7.1-5.5 4.2-4.8 1.3-0.5 5.1 1 2.4 5.5 0.4 1.6-2.3 2.3 2v2.5l-3.1 0.3v1.3l3.2 2.3 0.1 2.4-1.8 0.3-3 4.6-2.7 0.1-5.4 4 1.3 0.4 0.6 2.4c0 0-4.8 3.3-5.6 3.3-0.7 0-3.4-0.4-3.4-0.4l-3.4 1.9h-3.4l-0.4-0.7-4.7-0.7-4.4-2-1.9-3.2h-2.7l-0.7-2-4.7-0.4-2.3 1.5 0.7 1.2-3 1.1 0.7 1.7 1 0.6v2.4l-1 0.4-0.4 1.9 1.6 0.8-2.5 2.7-3.3 0.1-1.6 1.8-3-4.1-3.3-0.1-2 3.1-0.9-0.2-1.1 1.4-2-2.1-1.2 1.7-1.2-1.9-0.8 1.8-1.7-0.6-1.1-1.9-3-2.3h-3l-3-2.7-3.9 0.4-1.4-2.6-1.3-0.1-1.4 1.1-5.4 0.4-1.4 4-2.8 0.1-2.7 4.7-3.4 1.6-2.8 5.6 3.2 2.7-0.2 2.7-3 4.6-1.2 4-4.1-2.9 2.2-0.9-3.3-1.1v-4.1l-4.6-2.8-9-2.6-2.1 1.4-0.7-0.1-3.2-2.8-3.9 3.7-0.9 5.5-8.3 4.4-17.1 1.4-1.2 1.5-0.8 4.2-2.3 1.4-3.5-2.7-0.2-3.7 1.6-1-6.6-3.9-0.8-1.9-1.7-0.2-0.1-0.8 3.9-2.1 1.2-2.1 3 0.1 0.2-3.7-1.7-1.8 2.1-1.7-0.2-1.9-9.3-6.6-1.3-3 2.8 0.2 0.3-3.1 2-1.3c0-0.9-0.1-3.9-0.1-3.9l-2.7-1.4-4.1-0.2-2.9-10.9-1.8-2.6 2.3-1.7-2.2-1.5-0.7-2.7-2.8-0.2-4.1-7.4-4.1-0.8-2.6-3.8-8-3.8-4.8-0.1-4.4-2.5-0.4-2.3h-2.2l-1.6 1.2-0.8 5.9-3.8 3.1-5.3-0.4-2.5 2.9-2 0.2-0.2-4.1-1.7-2.2-0.6-4.3-1.4-1.6 1.8-1.5 1.8-3.8 6-7.1 0.2-1 2.8-0.1 0.2-3.5-7.6-6.1-4.3-6-3.9-0.8-6.1-6.1-0.5-3.2-5.1-3.8-1.5 1.1h-3.1l-3.8 4.9-2.5 1.8-0.6-2.7-3.1-1.2h-5.3l-0.9 1.7-4.2-2.8-2.2-3.1-1.6 2.7-3.5-0.6h-6.5l-2.6 1.1h-2.8l-0.9-14.3-4.9-2.7-1.4 5.4-1.6 0.5-1.7-1.9-5.5-0.3-2.4-3.2 0.1-2 1.4-0.3-1-4.4-1.7-3.1v-4.1l-7.8-9.7-0.7-3.2-4.7-4.1-1.6 2.4-8.4-0.3-1.5-3.5-5.6-1.8-4-1.2-15.1-7.5 0.1-3.4-3.1-3.7-1.6-1.1 1.5-1-0.5-2.2-8.8-0.4-3.1-1.7-0.8 2.8-3.3 0.3-1.6-2.5-5.1 3.1 0.5 3.1-0.9 1.3-1.6-2.3c0 0-2.5 2.7-2.9 2.9-0.4 0.2-0.3 1.5-0.3 1.5h-3.5l-0.2-1.4h-1.3l-4.5 3.1-3.9-0.9-0.8-1.9h-4.2l-4.9-3.4-2.5 0.7 0.1 2.5-4.5 0.1-0.9-1.6-1.6-1.2 1.4-0.9 2.6-5.2 0.7-5.1 1.9-3.7h2.1l0.4-2.3-2.7-1.4-0.5-5.7-2.1-1.2 0.9-1.4 1.6-0.4v-2.2l-2.1-2.1-2.4-0.2-1.7 0.8 1-4.5-2-1.2-0.5-8.7-1.9-1.9 0.6-1.2 1-0.5 1.9 2.7 4-1.4v-1.5l-1.3-1 0.9-4.2 3.1-1.4 0.4-2.1-1.1-0.5 2.1-4 2.1-4.4h2.2l1.6-1.6-1.7-2.4-3.1-0.3 1.4-1.5 2.5-0.4 1-2 0.3-2.3h-2l-1.6-2.8-0.1-1.3 1.7-0.7 0.3-1.1-6.3-4.7-2.6-0.2-2.9-2.5-3.5-10.5-2.4-0.1-0.5-1.4h-2.2l-1.3 1.6-6.9-3.5h-3.6l-4.8-2.1-0.6-2-1.5 2.5-0.6-2 0.1-8.2 2.5-1.8-0.4-2.1-2-1.1 1-1.7 4.2-0.5 6.4-7 0.3-1.4-0.7-0.9-0.6-3.4 2.7-4.9 0.1-1.2-2.9-2.2 1.5-0.6-0.4-3.2 1.7-0.9-2-1.6 3.9-2.3 2.1-4.1 2.7-0.1 2.1-2.3-1.3-0.7-0.1-2.6 1.1-0.8-2.8-1.8-0.4 1.3-2.8-1.8-1.3-2.5 1.8-1.3-0.2-1.6-1.6-1.7-2.4-0.2-1.3-1.5 2.5-3.9 5.8 0.2 2.7-5.1-0.2-2.1-0.8-0.2-0.1-1.8 3.3-2.7-3.9-3.9-0.2-0.9 5.1-3.1v-2.6l1.6-0.2 3 1.4 0.3 3.4-0.9 1.1 5.5 3.3 0.5-2.7 0.8-0.3-0.3-1.6-3-0.8v-1.9l1.8-3.5 0.3-4-2.4-3.1 0.5-3.3 3.4-4.5 0.6-3.3 1.6-0.7 0.1 2.2 1.9-0.1 0.5-2 2.5-0.6 0.3-1.9 1.4-0.7-0.6-1.2h-5.1l-1-1.2 0.8-0.6-1.6-0.9 0.5-4.5-3.1-1.7-0.6-1-1.8 1.4-9 0.5-0.9-1.5-1.8 1.7-3.8-1.1-1-2.5-2.4-1.8v-3.8l-3.1 1.7-4.8 8.3-2.1 0.6-10.2 6.3-1.8-0.5-3.5 2.9-0.7 4.1-3.7 5.9-1.7-1v1.5l2.7 2.6-1.4 3.6-2.8 0.3c0 0-3.1 2.6-3.5 2.6-0.4 0-4.1 0.8-4.1 0.8l-4.9 3.3-1.4 2.7-3.6 0.3-2.5 2.9-0.1 3-1.8 0.9-2.7 5.8 0.4 3.3-1.5 1.7-1.9 0.6v1.2l2.4 1.1 0.5 3.8 2.7 1 1.7-1.4v1.2l1.4 1.9-2.6 8.8-1.4 7.2-2.7 1 0.1 0.7 1.2 0.7-0.2 6.7 1.7 2.1-3.1 3.6 1.5 1.1 0.9 4.5 2.5 0.5-0.9 1.2h-7.1l-1.3-1.7-1.4 0.4-1.1 1.3-13.1 4.5-0.6 2.2-2.2-1.7-2.1 0.3-1.1 1.4-5.2-0.3-0.9 0.9-1.4-1.2-3.9 0.4-8.9 3.9 0.4 2.2-4.1 3.7-4.1 1.5-4.3-0.1-0.8-1.3-3.4 2.9-1.4 5.3-2.5 1.6 0.1 2.8-2.6 1-1-2.1-2.1 2.4-0.6 1.5-4.4 0.2-0.7-1.8-1.4 0.1-3.1 2.9-1.7-1.6h-2.1l-11.1 5.2-1.3 1.4-2.7-0.8-1.1-1.7-2.3-0.6-4.5-1.6-2.1-1.7-10-2-1.9 1.3-4.2-3.7-0.9 1.1-12.7 0.4-2.1-4.7-2.7-0.8-0.1-2.6h-7.9l-3-4.2-2.6 1.6-7.7 3.2-2-1.2-1.8 1.4-1-1.4h-5.6l-8.5 2.6-4.5 2.9-2-2h-1.7l-8.8 1.2-2.7 1.7-1.2-2 2.3-1.5-1.5-1.7 1.4-2.2-4.3-2.7-1.6-0.4-2-1.7-1-2.6h-3l-1.3 1.5-4.8 0.3-3.2-2.5 2.2-1 3.2-6.1 2.2-0.9 1.4-6.5-2.4-2.3-1.1 2.8-2.2-0.6-2.8-5.2-3.5-2.1-0.2-6 4.7-4.4 4.4-11.9 2.8-1.7h2.3l0.7 1.3 3.1 0.5 2.8-1.4 1.2-2.3 3.6 0.1 0.2-3.2 3-1.5 2.3 0.9 5.5-4.7 1.5-0.4 0.4-2.4 2-0.5 0.9-2.4-3.6-3.9-0.5-3.9-3.2-2.2-1.1-5-2.5-0.6-3.6-2.7 2.1-1 1.5-2.2-2 1-1.7-0.9-0.6-3.2 3.1-2-0.1-8.7-1.9-0.9-0.5-2.4 0.8-1-1.4-1.5h-2.1l-1.3 1.5-6.9 0.6-1.6-1.9-5.7-0.1-0.1 4.2-3.8 1.4-0.9-1.8-4.3-1.1-2.3-2.7 0.1-2.3 2.7-0.9 0.1-6.2 1.6-0.5 1.3-2.4 3.3-2.3 1.5-5.6-0.4-2.2-1.9-0.9v-4.6l0.8-0.4 2.1-3.9-0.2-4 1.1-0.7 0.1-5.9-1.3-0.3-1.8-2.9 0.2-3.5 1-1 3.5 0.1 2.3-2 1 0.7 0.7-0.7-0.1-1.1 2.3-2.8 0.8-4.2 3.4-4.4 1.5-0.6 0.4-1.5 4.1-0.4 1.2-2.2 2.8-1 3.4-4.4 0.3-4.2-1.8-2-2.8-7-2.5-1.3h-2.8l-1.2 1.4-1.1-1.5-4.8 0.1-1.9-1.4v-4.9l-1.7-0.2-1.2-0.8-0.3-1.7-1.2-0.6-1.3 0.9-0.2 1.2-2.3 0.2-0.7 1.3-0.3 2.5-1.3 0.8-0.1 2.9 1.5 0.9 3.6 0.2 0.1 1.8 2.3 1.3 0.2 4.4-1.8 0.8-0.2 1.8-5.7 0.2-1.1-1.2-2.8-0.3-1 1.9-1.4-1.3 0.3-1.8 0.7-0.1 0.2-2.3-2.1-0.8v-2.8l1.3-0.5-0.4-2.6-3.6-0.1-1 1.8-0.3-2.5-1-0.8v-1.3l1-0.3 1.8-6.2-1.9-6.2-1.7-0.7v-2l-1.8-0.4v1l-1.7-0.2-1.8-1.1-0.7-3.6-2.8-2.7-1 1.5-1-1.4h-0.9l-3.3 2.2-1.8-0.4 0.2-6.2-1.8-1.7-3.2-1.4-1.5-4.4-1.8-0.1-3-2.6-0.4-2.4c0 0-2.5 0.1-2.8 0-0.2-0.2-3.3-2.2-3.3-2.2l-0.6-2.2-1.2-0.6 0.9-1.2-4.2-6.7-0.6 1.2h-2.3l-1.2 1.2 1.3 1-0.3 1-6.8 1.2-0.5 1.5-1.3-0.6h-1.6l-2.3 2.1-0.4 2.1h-0.8l-1.4-1.5-3.3-1.4-0.9 0.8-0.8 3.3-1.2-0.2-0.4-1.7 1-1.2 0.1-2.6-1.3-0.1-1.5 1.4-3.5 2.4-5.1 1.4-1.4 1.4-1.9 0.2-0.9 2.1-2.1 0.1-6.2 4.2h-1.4l-0.9 1.3-3.2 0.1-1-1.3h-2.2l-0.6 1h-0.9l-0.5-1.1 1.3-0.8-0.2-4.7h-1.1l0.9-0.8-0.9-1.1-0.8 0.9-3.6 1.2-1.8-3.2-3.7-0.1 0.1-3.8-3.9-5.1-10 1.3-0.9 3.3-4.1 2.7-0.9-1.1 1.9-0.9-0.6-4-4-2.2-0.4 2.3-2.8 1.4c0 0-0.2-2-1.1-2.1-0.9-0.1-8.7-0.1-8.7-0.1l-1.5 1.8-1-1.8-1.2 0.3-0.1 2.2-3.6 0.7-2.5-2.4-2.1 0.8 1.2 1.3-4.1 1.2-2.2 3.7 1.2 1.3-0.3 4.7-3 1.9c0 0 0 2.3 0 2.7 0.1 0.4 2 1.7 2 1.7l-0.5 3.4-1.9 0.4-0.2 2.1 2.4 1-1.5 1.9-1.4-0.1-1.4-1.8-0.1-2.7-1.5-0.7-0.4-1.5-2.3-0.1-0.6 2.7 3.7 3.8-0.2 2.2h-1.2l-1 2.8-1.7-1.3-1.4-3.5-4.2-3.3-0.1-1.5-2.6-0.8 0.1-0.8 1.6-0.9v-0.8l-2.7-1.7-0.6-2.2-2.9-0.1 0.1-2.8-1.9-2.4 1.9-1.7v-2.2l-4.2-0.3-2.1-2.3 0.6-2.2 1.7-1.1-0.2-7.6-4.2-3.2-0.2-3.3 1.1-1.8 1.7-0.5 1.7-7.5 2.7-1.7-2-2.4 0.6-4.4 1.8-0.9-1.7-12.1-1.5-2-0.6-10.6-1.3-0.7-1.7-3.9 0.8-7.4-2.8-3.1-4.2-0.8-3.9-4.5-0.3-2.6-2.2-5.1-4.3-2.5-1.5-3.8-3.1-2.7v-1.4l-1.7 2-1.7 0.1c0 0-3.4 3.8-3.8 3.8-0.5 0-3.8-0.9-3.8-0.9l-4.1-5.2-0.1-1h-2.2l-1.2 2-17.1 1.3-8.2 4.2v2.3l-2.2-2 0.4-8.3 8.7-8.3-0.7-6.9c0 0-6-3.4-6.3-3.4-0.4 0-7.3-0.2-7.3-0.2l-0.7-1.7-4.3 0.2-7.2 7.8-2.1 7.5-1.6 1.6-3.8-0.4-0.7-1.3-1.4 0.2-0.6 1.9-5.5 2.6-2.6-0.3-4.4 3-4.2 0.1-5.7 3.5-0.1 1.6-1.3-0.9-0.7-2.9-4.1-5.2-9.4-2.3-0.9-1.7-1.1 0.1-0.4 2.2-2.6-1.7 0.2-2.7-3.6-2.7-6.9-2.1-5.5-4.2-2.4-6.6-3.7-1.4 0.2-0.8 2.3-0.9 0.4-3.7-2.4-0.9 0.3-2.6 1.7-0.3-0.4-1.3-1.2-0.7 0.1-2.6 3.2-0.8-0.4-1.6-2.6-0.5-0.2-5.3 2.3-1.2-1.7-3.9-1.4-0.1-1.3-1.6 2.4-1.3-1.7-12.9-4.6-9.5-4-3.1 1.6-0.3 0.9-2.3-4.1-6.4-2.4-0.8 0.3-2.5 2.1-0.6-1.6-5.6-1.8-2.7-0.4-7.6 8.7-5.4 1.8-0.3v-1l-1.4-0.5-0.4-1.4-3.1-3.4 0.4-4h1.6l-0.2-4.5 2-0.9-4.9-2.6v-2.3l-3.5-3.4-1.1-0.2-1.9 2.5-0.8-2.2h-3.9l-1 2.1-2.3-1-0.8-1.2h-2.3l-1.3 1.9 0.1-3.2 2.1-1.5-0.8-1.3-3.9-0.1-4-2.6 0.7-2.4 1.3-0.6 3-3.1-6.2-5.5-1.3-2.7 1.5-1.6-3.8-3.3 0.2-1.1-3-2-4.3-11.2-4.7-4 0.3-7.6h-1.5l-6.1 4.7h-3.7l-3-5.5-2.1 0.3-1.8 2.7v4.3l-6.9 4.5-1 2.1-2.6 1-5.8-5h-2.6l-1.8-2.5-2.9 3.1-3.4 0.3-2.3 4.6h-5.3l-2-3.2h-1.9l-8.3 9.3-7 3.6-1 4.7h-4.6l-1.3-4.3h-2.7l-5.3 6.2-2.3 0.4v4.3l3 3v1.6l-4.3 0.4-1.7 2.3v11.9l-3 3.3h-5.3v7l-4.6 0.3-4.6-8.3-2.7 1.3h-5.6l-1.7-2.6-5.1-5.1-0.4-3.9-2.6-1.1-7 2-2.4 2-2.5-0.1-1.6-2.3-4.6-3.7-3.8-0.1-3.5-7.7-0.7-4.7 0.8-0.8 0.7-3.5-4.1-2.5h-4.1l-1.3-5.2h-2.4l0.5-2.1 1.6-1-0.5-4.5-5.9-3.8-3.6-0.5-4.4-9.2-2.4-1.1 0.3-6.8 1.8-0.4v-1.5l-2.4-2h-2.5l-1.1-1.5-1.3 1.3h-4.3l-0.3-1.4h-1.5l-0.7 1.7h-6.3l0.5-2.6-3-3.9-2 3.1-3.2 0.6-1.5 2.1-8.1 0.5-2.9-5.9-0.8-9-1.6-2.2h-1.9l-0.5-6.1-2-1.8-2.2 1.9-2 0.1-1.5-1.3v-1.4h0.7l2-5 3.2-1.2 0.2-4.2-2.3-2-0.3-3.1 1.3-0.7 0.3-3.2-2.3-2.8-0.4-2.3 1.6-0.1 1.1-4.5-1.5-1.3-1.3-5.3 1.4-0.8 0.4-3.9-2.8-2.7-1.6 2.2h-1.7l-1.5-2.5 0.4-1.1 1 0.5 3.6-6.2 6.2-3 1.3-3.9-1.5-0.5v-0.6l2.3-1.3 2.7 0.6 2.5-3.2-4.9-7.7-1.6-7.4-3.8-4.9-1.7-3.9 1.8-0.6 0.1-1.9-1.9-2.5-2.7-0.1-9.8-7.5-2-6.8 2.7-0.5 0.3-1.6-3.8-10-2.3-23.4-6.5-14.2-4.5-6.2m1001.3-217.9l-1.5 2.2-1-1-3.2-0.6-1.7-1.4-3-0.4-0.2-0.9 2.2-0.8-1-2.6 1.5-1.5-1.3-1.9v-1.2l3.7 1.1 0.4 1.2-1.9 1.2 2.2 1.5 0.9-2 1.2-2.6-0.9-2 1.1-0.8 2.3 0.4 2.8-1.1 0.7-2.5 2.7 2.7-2.7 4.5-2.1-1.3-2.6 3-0.5 2.3h1.4l0.8 1.2-1.5 1.1c0 0 1.2 2.2 1.2 2.2z"/>
	</g>
</svg>