{
    "asset": {
        "version": "2.0",
        "generator": "Open Asset Import Library (assimp v5.2.cf7d3637)"
    },
    "extensionsUsed": [
        "KHR_materials_volume",
        "FB_ngon_encoding"
    ],
    "accessors": [
        {
            "bufferView": 0,
            "byteOffset": 0,
            "componentType": 5126,
            "count": 135912,
            "type": "VEC3",
            "max": [
                0.5999999642372131,
                0.40295180678367617,
                0.5306891202926636
            ],
            "min": [
                -0.5999999642372131,
                -0.40295180678367617,
                -0.5306891202926636
            ]
        },
        {
            "bufferView": 1,
            "byteOffset": 0,
            "componentType": 5126,
            "count": 135912,
            "type": "VEC3",
            "max": [
                0.999897837638855,
                0.999984085559845,
                0.9999991655349731
            ],
            "min": [
                -0.9999610781669617,
                -0.999977171421051,
                -0.9999264478683472
            ]
        },
        {
            "bufferView": 2,
            "byteOffset": 0,
            "componentType": 5126,
            "count": 135912,
            "type": "VEC2",
            "max": [
                0.99951171875,
                0.99951171875
            ],
            "min": [
                0.0004050731658935547,
                0.0004048347473144531
            ]
        },
        {
            "bufferView": 3,
            "byteOffset": 0,
            "componentType": 5125,
            "count": 135912,
            "type": "SCALAR",
            "max": [
                135911
            ],
            "min": [
                0
            ]
        }
    ],
    "buffers": [
        {
            "byteLength": 4892832,
            "uri": "malachite.bin"
        }
    ],
    "bufferViews": [
        {
            "buffer": 0,
            "byteOffset": 0,
            "byteLength": 1630944,
            "target": 34962
        },
        {
            "buffer": 0,
            "byteOffset": 1630944,
            "byteLength": 1630944,
            "target": 34962
        },
        {
            "buffer": 0,
            "byteOffset": 3261888,
            "byteLength": 1087296,
            "target": 34962
        },
        {
            "buffer": 0,
            "byteOffset": 4349184,
            "byteLength": 543648,
            "target": 34963
        }
    ],
    "images": [
        {
            "uri": "data:image/jpeg;base64,"
        }
    ],
    "materials": [
        {
            "name": "material",
            "pbrMetallicRoughness": {
                "baseColorTexture": {
                    "index": 0
                },
                "metallicFactor": 0.0,
                "roughnessFactor": 0.800000011920929
            },
            "doubleSided": true
        },
        {
            "name": "material"
        }
    ],
    "meshes": [
        {
            "name": "meshes[0]",
            "primitives": [
                {
                    "mode": 4,
                    "material": 0,
                    "indices": 3,
                    "attributes": {
                        "POSITION": 0,
                        "NORMAL": 1,
                        "TEXCOORD_0": 2
                    }
                }
            ]
        }
    ],
    "nodes": [
        {
            "name": "nodes[0]",
            "mesh": 0
        }
    ],
    "samplers": [
        {
            "magFilter": 9729,
            "minFilter": 9987
        }
    ],
    "scenes": [
        {
            "nodes": [
                0
            ]
        }
    ],
    "textures": [
        {
            "source": 0,
            "sampler": 0
        }
    ],
    "scene": 0
}