{
    "asset": {
        "version": "2.0",
        "generator": "Open Asset Import Library (assimp v5.2.cf7d3637)"
    },
    "extensionsUsed": [
        "KHR_materials_volume",
        "FB_ngon_encoding"
    ],
    "accessors": [
        {
            "bufferView": 0,
            "byteOffset": 0,
            "componentType": 5126,
            "count": 97614,
            "type": "VEC3",
            "max": [
                33.582828521728519,
                21.5,
                33.49980163574219
            ],
            "min": [
                -33.582828521728519,
                0.0,
                -33.49980163574219
            ]
        },
        {
            "bufferView": 1,
            "byteOffset": 0,
            "componentType": 5126,
            "count": 97614,
            "type": "VEC3",
            "max": [
                1.0,
                1.0,
                1.0
            ],
            "min": [
                -1.0,
                -1.0,
                -1.0
            ]
        },
        {
            "bufferView": 2,
            "byteOffset": 0,
            "componentType": 5126,
            "count": 97614,
            "type": "VEC2",
            "max": [
                0.9987813234329224,
                0.9999570846557617
            ],
            "min": [
                0.0000884905457496643,
                0.00026112794876098633
            ]
        },
        {
            "bufferView": 3,
            "byteOffset": 0,
            "componentType": 5126,
            "count": 97614,
            "type": "VEC4",
            "max": [
                1.0,
                1.0,
                1.0,
                1.0
            ],
            "min": [
                1.0,
                1.0,
                1.0,
                1.0
            ]
        },
        {
            "bufferView": 4,
            "byteOffset": 0,
            "componentType": 5125,
            "count": 97614,
            "type": "SCALAR",
            "max": [
                97613
            ],
            "min": [
                0
            ]
        }
    ],
    "buffers": [
        {
            "byteLength": 5075928,
            "uri": "result.bin"
        }
    ],
    "bufferViews": [
        {
            "buffer": 0,
            "byteOffset": 0,
            "byteLength": 1171368,
            "target": 34962
        },
        {
            "buffer": 0,
            "byteOffset": 1171368,
            "byteLength": 1171368,
            "target": 34962
        },
        {
            "buffer": 0,
            "byteOffset": 2342736,
            "byteLength": 780912,
            "target": 34962
        },
        {
            "buffer": 0,
            "byteOffset": 3123648,
            "byteLength": 1561824,
            "target": 34962
        },
        {
            "buffer": 0,
            "byteOffset": 4685472,
            "byteLength": 390456,
            "target": 34963
        }
    ],
    "images": [
        {
            "uri": "data:image/png;base64,"
        },
        {
            "uri": "data:image/png;base64,"
        }
    ],
    "materials": [
        {
            "name": "48",
            "pbrMetallicRoughness": {
                "baseColorTexture": {
                    "index": 0
                },
                "metallicRoughnessTexture": {
                    "index": 1
                }
            },
            "alphaMode": "MASK",
            "doubleSided": true
        },
        {
            "name": "material"
        }
    ],
    "meshes": [
        {
            "name": "mesh_id5",
            "primitives": [
                {
                    "mode": 4,
                    "material": 0,
                    "indices": 4,
                    "attributes": {
                        "POSITION": 0,
                        "NORMAL": 1,
                        "TEXCOORD_0": 2,
                        "COLOR_0": 3
                    }
                }
            ]
        }
    ],
    "nodes": [
        {
            "name": "root",
            "children": [
                1
            ]
        },
        {
            "name": "node_id4",
            "matrix": [
                0.007622943725436926,
                0.0,
                0.0,
                0.0,
                0.0,
                0.007622943725436926,
                0.0,
                0.0,
                0.0,
                0.0,
                0.007622943725436926,
                0.0,
                0.0,
                -0.08194664120674133,
                0.25599902868270876,
                1.0
            ],
            "mesh": 0
        }
    ],
    "samplers": [
        {
            "minFilter": 9985
        }
    ],
    "scenes": [
        {
            "nodes": [
                0
            ]
        }
    ],
    "textures": [
        {
            "source": 0,
            "sampler": 0
        },
        {
            "source": 1,
            "sampler": 0
        }
    ],
    "scene": 0
}